#Circle_d1.obj

v 0.8724726 1.305749 0.1988235
v 1.089148 1.630027 0.1988235
v 1.386484 1.386485 0.1988235
v 1.110656 1.110657 0.1988235
v 1.630027 1.089149 0.1988235
v 1.305748 0.8724735 0.1988235
v 1.451143 0.6010834 0.1988235
v 1.81153 0.7503605 0.1988235
v 1.540235 0.306372 0.1988235
v 1.922748 0.3824585 0.1988235
v 1.960786 3.188582E-08 0.1988235
v 1.570706 2.829259E-08 0.1988235
v 1.540235 -0.306372 0.1988235
v 1.922748 -0.3824584 0.1988235
v 1.81153 -0.7503605 0.1988235
v 1.451143 -0.6010834 0.1988235
v 1.305748 -0.8724735 0.1988235
v 1.630027 -1.089149 0.1988235
v 1.386484 -1.386485 0.1988235
v 1.110656 -1.110657 0.1988235
v 0.8724729 -1.305749 0.1988235
v 1.089149 -1.630027 0.1988235
v 0.7503597 -1.81153 0.1988235
v 0.6010828 -1.451143 0.1988235
v 0.3063716 -1.540235 0.1988235
v 0.382458 -1.922748 0.1988235
v -2.934484E-07 -1.960786 0.1988235
v -2.3356E-07 -1.570706 0.1988235
v -0.306372 -1.540235 0.1988235
v -0.3824585 -1.922748 0.1988235
v -0.7503603 -1.81153 0.1988235
v -0.6010833 -1.451143 0.1988235
v -1.089149 -1.630027 0.1988235
v -0.8724733 -1.305748 0.1988235
v -1.110657 -1.110657 0.1988235
v -1.386485 -1.386485 0.1988235
v -1.305748 -0.8724733 0.1988235
v -1.630027 -1.089149 0.1988235
v -1.81153 -0.7503603 0.1988235
v -1.451143 -0.6010833 0.1988235
v -1.540235 -0.306372 0.1988235
v -1.922748 -0.3824584 0.1988235
v -1.960786 -8.136153E-08 0.1988235
v -1.570706 -6.830713E-08 0.1988235
v -1.540235 0.3063718 0.1988235
v -1.922748 0.3824583 0.1988235
v -1.81153 0.7503601 0.1988235
v -1.451143 0.6010832 0.1988235
v -1.305748 0.8724732 0.1988235
v -1.630027 1.089149 0.1988235
v -1.386485 1.386485 0.1988235
v -1.110657 1.110657 0.1988235
v -0.8724733 1.305748 0.1988235
v -1.089149 1.630027 0.1988235
v -0.7503602 1.81153 0.1988235
v -0.6010832 1.451143 0.1988235
v -0.3063719 1.540235 0.1988235
v -0.3824584 1.922748 0.1988235
v -1.191655E-07 1.960786 0.1988235
v -9.69452E-08 1.570706 0.1988235
v 0.3824579 1.922748 0.1988235
v 0.3063715 1.540235 0.1988235
v 0.6010826 1.451143 0.1988235
v 0.7503594 1.81153 0.1988235
v 1.305748 0.8724735 0.1988235
v 1.305748 0.8724735 -0.1988235
v 1.110656 1.110657 -0.1988235
v 1.110656 1.110657 0.1988235
v 1.451143 0.6010834 -0.1988235
v 1.451143 0.6010834 0.1988235
v 0.8724726 1.305749 -0.1988235
v 0.8724726 1.305749 0.1988235
v 0.6010826 1.451143 -0.1988235
v 0.6010826 1.451143 0.1988235
v 0.3063715 1.540235 -0.1988235
v 0.3063715 1.540235 0.1988235
v -9.69452E-08 1.570706 -0.1988235
v -9.69452E-08 1.570706 0.1988235
v -0.3063719 1.540235 0.1988235
v -0.3063719 1.540235 -0.1988235
v -0.6010832 1.451143 -0.1988235
v -0.6010832 1.451143 0.1988235
v -0.8724733 1.305748 -0.1988235
v -0.8724733 1.305748 0.1988235
v -1.110657 1.110657 -0.1988235
v -1.110657 1.110657 0.1988235
v -1.305748 0.8724732 0.1988235
v -1.305748 0.8724732 -0.1988235
v -1.451143 0.6010832 -0.1988235
v -1.451143 0.6010832 0.1988235
v -1.540235 0.3063718 -0.1988235
v -1.540235 0.3063718 0.1988235
v -1.570706 -6.496684E-08 -0.1988235
v -1.570706 -6.830713E-08 0.1988235
v -1.540235 -0.306372 0.1988235
v -1.540235 -0.306372 -0.1988235
v -1.451143 -0.6010833 0.1988235
v -1.451143 -0.6010833 -0.1988235
v -1.305748 -0.8724733 0.1988235
v -1.305748 -0.8724733 -0.1988235
v -1.110657 -1.110657 -0.1988235
v -1.110657 -1.110657 0.1988235
v -0.8724733 -1.305748 0.1988235
v -0.8724733 -1.305748 -0.1988235
v -0.6010833 -1.451143 -0.1988235
v -0.6010833 -1.451143 0.1988235
v -0.306372 -1.540235 0.1988235
v -0.306372 -1.540235 -0.1988235
v -2.3356E-07 -1.570706 0.1988235
v -2.335162E-07 -1.570706 -0.1988235
v 0.3063716 -1.540235 -0.1988235
v 0.3063716 -1.540235 0.1988235
v 0.6010828 -1.451143 0.1988235
v 0.6010828 -1.451143 -0.1988235
v 0.8724729 -1.305749 0.1988235
v 0.8724729 -1.305749 -0.1988235
v 1.110656 -1.110657 0.1988235
v 1.110656 -1.110657 -0.1988235
v 1.305748 -0.8724735 -0.1988235
v 1.305748 -0.8724735 0.1988235
v 1.451143 -0.6010834 0.1988235
v 1.451143 -0.6010834 -0.1988235
v 1.540235 -0.3063719 -0.1988235
v 1.540235 -0.306372 0.1988235
v 1.570706 3.158906E-08 -0.1988235
v 1.570706 2.829259E-08 0.1988235
v 1.540235 0.306372 -0.1988235
v 1.540235 0.306372 0.1988235
v -0.3824585 -1.922748 -0.1988235
v -0.306372 -1.540235 -0.1988235
v -0.6010833 -1.451143 -0.1988235
v -0.7503603 -1.81153 -0.1988235
v -2.934046E-07 -1.960786 -0.1988235
v -2.335162E-07 -1.570706 -0.1988235
v 0.3063716 -1.540235 -0.1988235
v 0.382458 -1.922748 -0.1988235
v 0.7503597 -1.81153 -0.1988235
v 0.6010828 -1.451143 -0.1988235
v 0.8724729 -1.305749 -0.1988235
v 1.089149 -1.630027 -0.1988235
v 1.386484 -1.386485 -0.1988235
v 1.110656 -1.110657 -0.1988235
v 1.305748 -0.8724735 -0.1988235
v 1.630027 -1.089149 -0.1988235
v 1.81153 -0.7503605 -0.1988235
v 1.451143 -0.6010834 -0.1988235
v 1.540235 -0.3063719 -0.1988235
v 1.922748 -0.3824584 -0.1988235
v 1.960786 3.518229E-08 -0.1988235
v 1.570706 3.158906E-08 -0.1988235
v 1.540235 0.306372 -0.1988235
v 1.922748 0.3824585 -0.1988235
v 1.81153 0.7503605 -0.1988235
v 1.451143 0.6010834 -0.1988235
v 1.305748 0.8724735 -0.1988235
v 1.630027 1.089149 -0.1988235
v 1.386484 1.386485 -0.1988235
v 1.110656 1.110657 -0.1988235
v 0.8724726 1.305749 -0.1988235
v 1.089148 1.630027 -0.1988235
v 0.6010826 1.451143 -0.1988235
v 0.7503594 1.81153 -0.1988235
v 0.3063715 1.540235 -0.1988235
v 0.3824579 1.922748 -0.1988235
v -1.191655E-07 1.960786 -0.1988235
v -9.69452E-08 1.570706 -0.1988235
v -0.3063719 1.540235 -0.1988235
v -0.3824584 1.922748 -0.1988235
v -0.6010832 1.451143 -0.1988235
v -0.7503602 1.81153 -0.1988235
v -0.8724733 1.305748 -0.1988235
v -1.089149 1.630027 -0.1988235
v -1.386485 1.386485 -0.1988235
v -1.110657 1.110657 -0.1988235
v -1.305748 0.8724732 -0.1988235
v -1.630027 1.089149 -0.1988235
v -1.81153 0.7503601 -0.1988235
v -1.451143 0.6010832 -0.1988235
v -1.540235 0.3063718 -0.1988235
v -1.922748 0.3824583 -0.1988235
v -1.960786 -7.802123E-08 -0.1988235
v -1.570706 -6.496684E-08 -0.1988235
v -1.540235 -0.306372 -0.1988235
v -1.922748 -0.3824584 -0.1988235
v -1.81153 -0.7503603 -0.1988235
v -1.451143 -0.6010833 -0.1988235
v -1.305748 -0.8724733 -0.1988235
v -1.630027 -1.089149 -0.1988235
v -1.386485 -1.386485 -0.1988235
v -1.110657 -1.110657 -0.1988235
v -0.8724733 -1.305748 -0.1988235
v -1.089149 -1.630027 -0.1988235
v -1.922748 -0.3824584 0.1988235
v -1.922748 -0.3824584 -0.1988235
v -1.960786 -7.802123E-08 -0.1988235
v -1.960786 -8.136153E-08 0.1988235
v -1.922748 0.3824583 -0.1988235
v -1.922748 0.3824583 0.1988235
v -1.81153 -0.7503603 -0.1988235
v -1.81153 -0.7503603 0.1988235
v -1.630027 -1.089149 0.1988235
v -1.630027 -1.089149 -0.1988235
v -1.386485 -1.386485 -0.1988235
v -1.386485 -1.386485 0.1988235
v -1.089149 -1.630027 -0.1988235
v -1.089149 -1.630027 0.1988235
v -0.7503603 -1.81153 -0.1988235
v -0.7503603 -1.81153 0.1988235
v -0.3824585 -1.922748 -0.1988235
v -0.3824585 -1.922748 0.1988235
v -2.934484E-07 -1.960786 0.1988235
v -2.934046E-07 -1.960786 -0.1988235
v 0.382458 -1.922748 0.1988235
v 0.382458 -1.922748 -0.1988235
v 0.7503597 -1.81153 0.1988235
v 0.7503597 -1.81153 -0.1988235
v 1.089149 -1.630027 0.1988235
v 1.089149 -1.630027 -0.1988235
v 1.386484 -1.386485 -0.1988235
v 1.386484 -1.386485 0.1988235
v 1.630027 -1.089149 0.1988235
v 1.630027 -1.089149 -0.1988235
v 1.81153 -0.7503605 -0.1988235
v 1.81153 -0.7503605 0.1988235
v 1.922748 -0.3824584 -0.1988235
v 1.922748 -0.3824584 0.1988235
v 1.960786 3.188582E-08 0.1988235
v 1.960786 3.518229E-08 -0.1988235
v 1.922748 0.3824585 0.1988235
v 1.922748 0.3824585 -0.1988235
v 1.81153 0.7503605 -0.1988235
v 1.81153 0.7503605 0.1988235
v 1.630027 1.089149 -0.1988235
v 1.630027 1.089149 0.1988235
v 1.386484 1.386485 -0.1988235
v 1.386484 1.386485 0.1988235
v 1.089148 1.630027 0.1988235
v 1.089148 1.630027 -0.1988235
v 0.7503594 1.81153 -0.1988235
v 0.7503594 1.81153 0.1988235
v 0.3824579 1.922748 0.1988235
v 0.3824579 1.922748 -0.1988235
v -1.191655E-07 1.960786 0.1988235
v -1.191655E-07 1.960786 -0.1988235
v -0.3824584 1.922748 0.1988235
v -0.3824584 1.922748 -0.1988235
v -0.7503602 1.81153 0.1988235
v -0.7503602 1.81153 -0.1988235
v -1.089149 1.630027 -0.1988235
v -1.089149 1.630027 0.1988235
v -1.386485 1.386485 0.1988235
v -1.386485 1.386485 -0.1988235
v -1.630027 1.089149 -0.1988235
v -1.630027 1.089149 0.1988235
v -1.81153 0.7503601 -0.1988235
v -1.81153 0.7503601 0.1988235

vn 0 0 1
vn 0 0 1
vn 0 0 1
vn 0 0 1
vn 0 0 1
vn 0 0 1
vn 0 0 1
vn 0 0 1
vn 0 0 1
vn 0 0 1
vn 0 0 1
vn 0 0 1
vn 0 0 1
vn 0 0 1
vn 0 0 1
vn 0 0 1
vn 0 0 1
vn 0 0 1
vn 0 0 1
vn 0 0 1
vn 0 0 1
vn 0 0 1
vn 0 0 1
vn 0 0 1
vn 0 0 1
vn 0 0 1
vn 0 0 1
vn 0 0 1
vn 0 0 1
vn 0 0 1
vn 0 0 1
vn 0 0 1
vn 0 0 1
vn 0 0 1
vn 0 0 1
vn 0 0 1
vn 0 0 1
vn 0 0 1
vn 0 0 1
vn 0 0 1
vn 0 0 1
vn 0 0 1
vn 0 0 1
vn 0 0 1
vn 0 0 1
vn 0 0 1
vn 0 0 1
vn 0 0 1
vn 0 0 1
vn 0 0 1
vn 0 0 1
vn 0 0 1
vn 0 0 1
vn 0 0 1
vn 0 0 1
vn 0 0 1
vn 0 0 1
vn 0 0 1
vn 0 0 1
vn 0 0 1
vn 0 0 1
vn 0 0 1
vn 0 0 1
vn 0 0 1
vn -0.8314695 -0.5555703 0
vn -0.8314695 -0.5555703 0
vn -0.7071065 -0.707107 0
vn -0.7071065 -0.707107 0
vn -0.9238795 -0.3826835 0
vn -0.9238795 -0.3826835 0
vn -0.5555699 -0.8314699 0
vn -0.5555699 -0.8314699 0
vn -0.3826832 -0.9238796 0
vn -0.3826832 -0.9238796 0
vn -0.1950903 -0.9807853 0
vn -0.1950903 -0.9807853 0
vn 0 -1 0
vn 0 -1 0
vn 0.1950905 -0.9807853 0
vn 0.1950905 -0.9807853 0
vn 0.3826833 -0.9238795 0
vn 0.3826833 -0.9238795 0
vn 0.5555702 -0.8314696 0
vn 0.5555702 -0.8314696 0
vn 0.7071068 -0.7071067 0
vn 0.7071068 -0.7071067 0
vn 0.8314696 -0.5555702 0
vn 0.8314696 -0.5555702 0
vn 0.9238795 -0.3826833 0
vn 0.9238795 -0.3826833 0
vn 0.9807853 -0.1950903 0
vn 0.9807853 -0.1950903 0
vn 1 0 0
vn 1 0 0
vn 0.9807853 0.1950903 0
vn 0.9807853 0.1950903 0
vn 0.9238795 0.3826834 0
vn 0.9238795 0.3826834 0
vn 0.8314695 0.5555702 0
vn 0.8314695 0.5555702 0
vn 0.7071067 0.7071068 0
vn 0.7071067 0.7071068 0
vn 0.5555702 0.8314696 0
vn 0.5555702 0.8314696 0
vn 0.3826834 0.9238795 0
vn 0.3826834 0.9238795 0
vn 0.1950905 0.9807853 0
vn 0.1950905 0.9807853 0
vn 0 1 0
vn 0 1 0
vn -0.1950902 0.9807854 0
vn -0.1950902 0.9807854 0
vn -0.3826832 0.9238796 0
vn -0.3826832 0.9238796 0
vn -0.55557 0.8314698 0
vn -0.55557 0.8314698 0
vn -0.7071066 0.7071069 0
vn -0.7071066 0.7071069 0
vn -0.8314695 0.5555705 0
vn -0.8314695 0.5555705 0
vn -0.9238794 0.3826837 0
vn -0.9238794 0.3826837 0
vn -0.9807854 0.1950902 0
vn -0.9807854 0.1950902 0
vn -1 0 0
vn -1 0 0
vn -0.9807853 -0.1950907 0
vn -0.9807853 -0.1950907 0
vn 0 0 -1
vn 0 0 -1
vn 0 0 -1
vn 0 0 -1
vn 0 0 -1
vn 0 0 -1
vn 0 0 -1
vn 0 0 -1
vn 0 0 -1
vn 0 0 -1
vn 0 0 -1
vn 0 0 -1
vn 0 0 -1
vn 0 0 -1
vn 0 0 -1
vn 0 0 -1
vn 0 0 -1
vn 0 0 -1
vn 0 0 -1
vn 0 0 -1
vn 0 0 -1
vn 0 0 -1
vn 0 0 -1
vn 0 0 -1
vn 0 0 -1
vn 0 0 -1
vn 0 0 -1
vn 0 0 -1
vn 0 0 -1
vn 0 0 -1
vn 0 0 -1
vn 0 0 -1
vn 0 0 -1
vn 0 0 -1
vn 0 0 -1
vn 0 0 -1
vn 0 0 -1
vn 0 0 -1
vn 0 0 -1
vn 0 0 -1
vn 0 0 -1
vn 0 0 -1
vn 0 0 -1
vn 0 0 -1
vn 0 0 -1
vn 0 0 -1
vn 0 0 -1
vn 0 0 -1
vn 0 0 -1
vn 0 0 -1
vn 0 0 -1
vn 0 0 -1
vn 0 0 -1
vn 0 0 -1
vn 0 0 -1
vn 0 0 -1
vn 0 0 -1
vn 0 0 -1
vn 0 0 -1
vn 0 0 -1
vn 0 0 -1
vn 0 0 -1
vn 0 0 -1
vn 0 0 -1
vn -0.9807853 -0.1950906 0
vn -0.9807853 -0.1950906 0
vn -1 0 0
vn -1 0 0
vn -0.9807853 0.1950906 0
vn -0.9807853 0.1950906 0
vn -0.9238794 -0.3826835 0
vn -0.9238794 -0.3826835 0
vn -0.8314695 -0.5555703 0
vn -0.8314695 -0.5555703 0
vn -0.7071066 -0.7071068 0
vn -0.7071066 -0.7071068 0
vn -0.5555702 -0.8314696 0
vn -0.5555702 -0.8314696 0
vn -0.3826837 -0.9238794 0
vn -0.3826837 -0.9238794 0
vn -0.1950906 -0.9807853 0
vn -0.1950906 -0.9807853 0
vn 0 -1 0
vn 0 -1 0
vn 0.1950902 -0.9807854 0
vn 0.1950902 -0.9807854 0
vn 0.3826832 -0.9238796 0
vn 0.3826832 -0.9238796 0
vn 0.5555702 -0.8314696 0
vn 0.5555702 -0.8314696 0
vn 0.7071066 -0.7071068 0
vn 0.7071066 -0.7071068 0
vn 0.8314694 -0.5555706 0
vn 0.8314694 -0.5555706 0
vn 0.9238794 -0.3826836 0
vn 0.9238794 -0.3826836 0
vn 0.9807853 -0.1950905 0
vn 0.9807853 -0.1950905 0
vn 1 0 0
vn 1 0 0
vn 0.9807853 0.1950905 0
vn 0.9807853 0.1950905 0
vn 0.9238794 0.3826836 0
vn 0.9238794 0.3826836 0
vn 0.8314693 0.5555707 0
vn 0.8314693 0.5555707 0
vn 0.7071065 0.7071069 0
vn 0.7071065 0.7071069 0
vn 0.5555702 0.8314696 0
vn 0.5555702 0.8314696 0
vn 0.3826833 0.9238795 0
vn 0.3826833 0.9238795 0
vn 0.19509 0.9807854 0
vn 0.19509 0.9807854 0
vn 0 1 0
vn 0 1 0
vn -0.1950906 0.9807853 0
vn -0.1950906 0.9807853 0
vn -0.3826836 0.9238794 0
vn -0.3826836 0.9238794 0
vn -0.5555702 0.8314696 0
vn -0.5555702 0.8314696 0
vn -0.7071068 0.7071067 0
vn -0.7071068 0.7071067 0
vn -0.8314696 0.5555702 0
vn -0.8314696 0.5555702 0
vn -0.9238795 0.3826835 0
vn -0.9238795 0.3826835 0

g Circle_d1
usemtl Circle_d1
usemap Circle_d1
f 1//1 3//3 2//2
f 1//1 4//4 3//3
f 5//5 3//3 4//4
f 5//5 4//4 6//6
f 5//5 6//6 7//7
f 5//5 7//7 8//8
f 8//8 7//7 9//9
f 8//8 9//9 10//10
f 11//11 10//10 9//9
f 11//11 9//9 12//12
f 11//11 12//12 13//13
f 11//11 13//13 14//14
f 15//15 14//14 13//13
f 15//15 13//13 16//16
f 15//15 16//16 17//17
f 15//15 17//17 18//18
f 19//19 18//18 17//17
f 19//19 17//17 20//20
f 19//19 20//20 21//21
f 19//19 21//21 22//22
f 23//23 22//22 21//21
f 23//23 21//21 24//24
f 23//23 24//24 25//25
f 23//23 25//25 26//26
f 27//27 26//26 25//25
f 27//27 25//25 28//28
f 27//27 28//28 29//29
f 27//27 29//29 30//30
f 31//31 30//30 29//29
f 31//31 29//29 32//32
f 33//33 31//31 32//32
f 33//33 32//32 34//34
f 33//33 34//34 35//35
f 33//33 35//35 36//36
f 36//36 35//35 37//37
f 36//36 37//37 38//38
f 39//39 38//38 37//37
f 39//39 37//37 40//40
f 39//39 40//40 41//41
f 39//39 41//41 42//42
f 43//43 42//42 41//41
f 43//43 41//41 44//44
f 43//43 44//44 45//45
f 43//43 45//45 46//46
f 47//47 46//46 45//45
f 47//47 45//45 48//48
f 47//47 48//48 49//49
f 47//47 49//49 50//50
f 51//51 50//50 49//49
f 51//51 49//49 52//52
f 51//51 52//52 53//53
f 51//51 53//53 54//54
f 55//55 54//54 53//53
f 55//55 53//53 56//56
f 55//55 56//56 57//57
f 55//55 57//57 58//58
f 59//59 58//58 57//57
f 59//59 57//57 60//60
f 61//61 59//59 60//60
f 61//61 60//60 62//62
f 61//61 62//62 63//63
f 61//61 63//63 64//64
f 64//64 63//63 1//1
f 64//64 1//1 2//2
f 65//65 67//67 66//66
f 65//65 68//68 67//67
f 69//69 65//65 66//66
f 69//69 70//70 65//65
f 71//71 67//67 68//68
f 71//71 68//68 72//72
f 73//73 71//71 72//72
f 73//73 72//72 74//74
f 75//75 73//73 74//74
f 75//75 74//74 76//76
f 77//77 75//75 76//76
f 77//77 76//76 78//78
f 79//79 77//77 78//78
f 79//79 80//80 77//77
f 81//81 80//80 79//79
f 81//81 79//79 82//82
f 83//83 81//81 82//82
f 83//83 82//82 84//84
f 85//85 83//83 84//84
f 85//85 84//84 86//86
f 85//85 86//86 87//87
f 85//85 87//87 88//88
f 89//89 88//88 87//87
f 89//89 87//87 90//90
f 91//91 89//89 90//90
f 91//91 90//90 92//92
f 93//93 91//91 92//92
f 93//93 92//92 94//94
f 93//93 94//94 95//95
f 93//93 95//95 96//96
f 96//96 95//95 97//97
f 96//96 97//97 98//98
f 98//98 97//97 99//99
f 98//98 99//99 100//100
f 101//101 100//100 99//99
f 101//101 99//99 102//102
f 101//101 102//102 103//103
f 101//101 103//103 104//104
f 105//105 104//104 103//103
f 105//105 103//103 106//106
f 105//105 106//106 107//107
f 105//105 107//107 108//108
f 108//108 107//107 109//109
f 108//108 109//109 110//110
f 111//111 110//110 109//109
f 111//111 109//109 112//112
f 111//111 112//112 113//113
f 111//111 113//113 114//114
f 114//114 113//113 115//115
f 114//114 115//115 116//116
f 116//116 115//115 117//117
f 116//116 117//117 118//118
f 119//119 118//118 117//117
f 119//119 117//117 120//120
f 119//119 120//120 121//121
f 119//119 121//121 122//122
f 123//123 122//122 121//121
f 123//123 121//121 124//124
f 125//125 123//123 124//124
f 125//125 124//124 126//126
f 127//127 125//125 126//126
f 127//127 126//126 128//128
f 70//70 127//127 128//128
f 70//70 69//69 127//127
f 129//129 131//131 130//130
f 129//129 132//132 131//131
f 133//133 129//129 130//130
f 133//133 130//130 134//134
f 133//133 134//134 135//135
f 133//133 135//135 136//136
f 137//137 136//136 135//135
f 137//137 135//135 138//138
f 137//137 138//138 139//139
f 137//137 139//139 140//140
f 141//141 140//140 139//139
f 141//141 139//139 142//142
f 141//141 142//142 143//143
f 141//141 143//143 144//144
f 145//145 144//144 143//143
f 145//145 143//143 146//146
f 145//145 146//146 147//147
f 145//145 147//147 148//148
f 149//149 148//148 147//147
f 149//149 147//147 150//150
f 149//149 150//150 151//151
f 149//149 151//151 152//152
f 153//153 152//152 151//151
f 153//153 151//151 154//154
f 153//153 154//154 155//155
f 153//153 155//155 156//156
f 157//157 156//156 155//155
f 157//157 155//155 158//158
f 157//157 158//158 159//159
f 157//157 159//159 160//160
f 160//160 159//159 161//161
f 160//160 161//161 162//162
f 162//162 161//161 163//163
f 162//162 163//163 164//164
f 165//165 164//164 163//163
f 165//165 163//163 166//166
f 165//165 166//166 167//167
f 165//165 167//167 168//168
f 168//168 167//167 169//169
f 168//168 169//169 170//170
f 170//170 169//169 171//171
f 170//170 171//171 172//172
f 173//173 172//172 171//171
f 173//173 171//171 174//174
f 173//173 174//174 175//175
f 173//173 175//175 176//176
f 177//177 176//176 175//175
f 177//177 175//175 178//178
f 177//177 178//178 179//179
f 177//177 179//179 180//180
f 181//181 180//180 179//179
f 181//181 179//179 182//182
f 181//181 182//182 183//183
f 181//181 183//183 184//184
f 185//185 184//184 183//183
f 185//185 183//183 186//186
f 185//185 186//186 187//187
f 185//185 187//187 188//188
f 189//189 188//188 187//187
f 189//189 187//187 190//190
f 189//189 190//190 191//191
f 189//189 191//191 192//192
f 191//191 132//132 192//192
f 191//191 131//131 132//132
f 193//193 195//195 194//194
f 193//193 196//196 195//195
f 197//197 195//195 196//196
f 197//197 196//196 198//198
f 199//199 193//193 194//194
f 199//199 200//200 193//193
f 201//201 200//200 199//199
f 201//201 199//199 202//202
f 203//203 201//201 202//202
f 203//203 204//204 201//201
f 204//204 203//203 205//205
f 204//204 205//205 206//206
f 207//207 206//206 205//205
f 207//207 208//208 206//206
f 208//208 207//207 209//209
f 208//208 209//209 210//210
f 211//211 210//210 209//209
f 211//211 209//209 212//212
f 213//213 211//211 212//212
f 213//213 212//212 214//214
f 215//215 213//213 214//214
f 215//215 214//214 216//216
f 217//217 215//215 216//216
f 217//217 216//216 218//218
f 219//219 217//217 218//218
f 219//219 220//220 217//217
f 221//221 220//220 219//219
f 221//221 219//219 222//222
f 223//223 221//221 222//222
f 223//223 224//224 221//221
f 224//224 223//223 225//225
f 224//224 225//225 226//226
f 227//227 226//226 225//225
f 227//227 225//225 228//228
f 229//229 227//227 228//228
f 229//229 228//228 230//230
f 231//231 229//229 230//230
f 231//231 232//232 229//229
f 232//232 231//231 233//233
f 232//232 233//233 234//234
f 235//235 234//234 233//233
f 235//235 236//236 234//234
f 237//237 236//236 235//235
f 237//237 235//235 238//238
f 239//239 237//237 238//238
f 239//239 240//240 237//237
f 241//241 240//240 239//239
f 241//241 239//239 242//242
f 243//243 241//241 242//242
f 243//243 242//242 244//244
f 245//245 243//243 244//244
f 245//245 244//244 246//246
f 247//247 245//245 246//246
f 247//247 246//246 248//248
f 247//247 248//248 249//249
f 247//247 249//249 250//250
f 251//251 250//250 249//249
f 251//251 249//249 252//252
f 251//251 252//252 253//253
f 251//251 253//253 254//254
f 255//255 254//254 253//253
f 255//255 256//256 254//254
f 255//255 198//198 256//256
f 255//255 197//197 198//198
