#Gold_Rush_Column_mesh.obj

v -0.6579193 5.918628 -0.6579196
v 0.2762762 5.236323 -0.2762764
v 0.6579193 5.918628 -0.6579196
v -0.2762762 5.236323 -0.2762764
v 0.6579193 5.918628 0.657919
v -0.2762762 5.236323 0.2762759
v -0.6579193 5.918628 0.657919
v 0.2762762 5.236323 0.2762759
v 0.6579193 5.918628 0.657919
v 0.2762762 5.236323 -0.2762764
v 0.2762762 5.236323 0.2762759
v 0.6579193 5.918628 -0.6579196
v -0.2762762 0 -0.2762762
v -0.2762762 5.236323 -0.2762764
v -0.2762762 5.236323 0.2762759
v -0.2762762 0 0.2762762
v 0.6579193 5.918628 0.657919
v -0.6579193 5.918628 0.657919
v -0.6579193 5.918628 -0.6579196
v 0.6579193 5.918628 -0.6579196
v -0.2762762 5.236323 0.2762759
v 0.2762762 5.236323 0.2762759
v 0.2762762 0 0.2762762
v -0.2762762 0 0.2762762
v 0.2762762 0 -0.2762762
v 0.2762762 5.236323 -0.2762764
v -0.2762762 5.236323 -0.2762764
v -0.2762762 0 -0.2762762
v 0.2762762 5.236323 0.2762759
v 0.2762762 5.236323 -0.2762764
v 0.2762762 0 -0.2762762
v 0.2762762 0 0.2762762
v -0.2762762 5.236323 0.2762759
v -0.2762762 5.236323 -0.2762764
v -0.6579193 5.918628 -0.6579196
v -0.6579193 5.918628 -0.6579196
v -0.6579193 5.918628 0.657919
v -0.2762762 5.236323 0.2762759
v -0.2762762 0 -0.2762762
v -0.2762762 0 0.2762762
v 0.2762762 0 0.2762762
v 0.2762762 0 -0.2762762

vn 0 -0.4881672 -0.8727501
vn 0 -0.4881672 -0.8727501
vn 0 -0.4881672 -0.8727501
vn 0 -0.4881672 -0.8727501
vn 0 -0.4881671 0.8727502
vn 0 -0.4881671 0.8727502
vn 0 -0.4881671 0.8727502
vn 0 -0.4881671 0.8727502
vn 0.8727499 -0.4881675 0
vn 0.8727499 -0.4881675 0
vn 0.8727499 -0.4881675 0
vn 0.8727499 -0.4881675 0
vn -1 0 0
vn -1 0 0
vn -1 0 0
vn -1 0 0
vn 0 1 0
vn 0 1 0
vn 0 1 0
vn 0 1 0
vn 0 0 1
vn 0 0 1
vn 0 0 1
vn 0 0 1
vn 0 0 -1
vn 0 0 -1
vn 0 0 -1
vn 0 0 -1
vn 1 0 0
vn 1 0 0
vn 1 0 0
vn 1 0 0
vn -0.8727502 -0.488167 0
vn -0.8727502 -0.488167 0
vn -0.8727502 -0.488167 0
vn -0.8727499 -0.4881676 0
vn -0.8727499 -0.4881676 0
vn -0.8727499 -0.4881676 0
vn 0 -1 0
vn 0 -1 0
vn 0 -1 0
vn 0 -1 0

vt 0.7623906 0.6889929
vt 0.6725058 0.6889929
vt 0.6725058 0.6889929
vt 0.7623906 0.6889929
vt 0.1204111 0.7811155
vt 0.292089 0.7811155
vt 0.292089 0.7811155
vt 0.1204111 0.7811155
vt 0.7397502 0.8398972
vt 0.7732952 0.6335559
vt 0.7397502 0.8065768
vt 0.7732952 0.6335559
vt 0.7069619 0.7023722
vt 0.7069619 0.7023722
vt 0.7069619 0.792257
vt 0.7069619 0.792257
vt 0.6725058 0.8288776
vt 0.7623906 0.8288776
vt 0.7623906 0.7839352
vt 0.6725058 0.7389929
vt 0.292089 0.7190553
vt 0.1204111 0.7190553
vt 0.1204111 0.7190553
vt 0.292089 0.7190553
vt 0.6725058 0.6889929
vt 0.6725058 0.6889929
vt 0.7623906 0.6889929
vt 0.7623906 0.6889929
vt 0.7397502 0.8065768
vt 0.7732952 0.6335559
vt 0.7732952 0.6335559
vt 0.7397502 0.8065768
vt 0.7069619 0.792257
vt 0.7623906 0.6889929
vt 0.7623906 0.7339352
vt 0.7623906 0.7339352
vt 0.7623906 0.7788776
vt 0.7069619 0.792257
vt 0.7621126 0.6887087
vt 0.7455573 0.7195514
vt 0.7033175 0.8534945
vt 0.735266 0.6887087

g Gold_Rush_Column_mesh
usemtl Gold_Rush_Column_mesh
usemap Gold_Rush_Column_mesh
f 1/1/1 3/3/3 2/2/2
f 4/4/4 1/1/1 2/2/2
f 5/5/5 7/7/7 6/6/6
f 8/8/8 5/5/5 6/6/6
f 9/9/9 11/11/11 10/10/10
f 12/12/12 9/9/9 10/10/10
f 13/13/13 15/15/15 14/14/14
f 13/13/13 16/16/16 15/15/15
f 17/17/17 19/19/19 18/18/18
f 17/17/17 20/20/20 19/19/19
f 21/21/21 23/23/23 22/22/22
f 21/21/21 24/24/24 23/23/23
f 25/25/25 27/27/27 26/26/26
f 25/25/25 28/28/28 27/27/27
f 29/29/29 31/31/31 30/30/30
f 29/29/29 32/32/32 31/31/31
f 33/33/33 35/35/35 34/34/34
f 36/36/36 38/38/38 37/37/37
f 39/39/39 41/41/41 40/40/40
f 39/39/39 42/42/42 41/41/41
