#pattern_4_1_baked-mesh.obj

v 0.575 1.25 4.0625
v 0.575 1 4.0625
v 0.325 1 4.0625
v 0.325 1.25 4.0625
v 0.575 1.25 3.9375
v 0.575 1.25 4.0625
v 0.325 1.25 4.0625
v 0.325 1.25 3.9375
v 0.575 1 3.9375
v 0.575 1.25 3.9375
v 0.325 1.25 3.9375
v 0.325 1 3.9375
v 0.575 1 4.0625
v 0.575 1 3.9375
v 0.325 1 3.9375
v 0.325 1 4.0625
v 0.575 1.25 3.9375
v 0.575 1 3.9375
v 0.575 1 4.0625
v 0.575 1.25 4.0625
v 0.325 1.25 4.0625
v 0.325 1 4.0625
v 0.325 1 3.9375
v 0.325 1.25 3.9375
v 0.575 1.497 4.0625
v 0.575 1.247 4.0625
v 0.325 1.247 4.0625
v 0.325 1.497 4.0625
v 0.575 1.747 4.0625
v 0.325 1.747 4.0625
v 0.575 1.997 4.0625
v 0.325 1.997 4.0625
v 0.575 2.247 4.0625
v 0.325 2.247 4.0625
v 0.575 1.497 3.9375
v 0.575 1.497 4.0625
v 0.325 1.497 4.0625
v 0.325 1.497 3.9375
v 0.575 1.247 3.9375
v 0.575 1.497 3.9375
v 0.325 1.497 3.9375
v 0.325 1.247 3.9375
v 0.325 1.747 3.9375
v 0.575 1.747 3.9375
v 0.325 1.997 3.9375
v 0.575 1.997 3.9375
v 0.325 2.247 3.9375
v 0.575 2.247 3.9375
v 0.575 1.247 4.0625
v 0.575 1.247 3.9375
v 0.325 1.247 3.9375
v 0.325 1.247 4.0625
v 0.575 1.497 3.9375
v 0.575 1.247 3.9375
v 0.575 1.247 4.0625
v 0.575 1.497 4.0625
v 0.575 1.747 3.9375
v 0.575 1.747 4.0625
v 0.575 1.997 3.9375
v 0.575 1.997 4.0625
v 0.575 2.247 3.9375
v 0.575 2.247 4.0625
v 0.325 1.497 4.0625
v 0.325 1.247 4.0625
v 0.325 1.247 3.9375
v 0.325 1.497 3.9375
v 0.325 1.747 4.0625
v 0.325 1.747 3.9375
v 0.325 1.997 4.0625
v 0.325 1.997 3.9375
v 0.325 2.247 4.0625
v 0.325 2.247 3.9375
v 0.575 1.747 3.9375
v 0.575 1.747 4.0625
v 0.325 1.747 4.0625
v 0.325 1.747 3.9375
v 0.575 1.497 4.0625
v 0.575 1.497 3.9375
v 0.325 1.497 3.9375
v 0.325 1.497 4.0625
v 0.575 1.997 3.9375
v 0.575 1.997 4.0625
v 0.325 1.997 4.0625
v 0.325 1.997 3.9375
v 0.575 1.747 4.0625
v 0.575 1.747 3.9375
v 0.325 1.747 3.9375
v 0.325 1.747 4.0625
v 0.575 2.247 3.9375
v 0.575 2.247 4.0625
v 0.325 2.247 4.0625
v 0.325 2.247 3.9375
v 0.575 1.997 4.0625
v 0.575 1.997 3.9375
v 0.325 1.997 3.9375
v 0.325 1.997 4.0625
v 0.575 2.496 4.0625
v 0.575 2.246 4.0625
v 0.325 2.246 4.0625
v 0.325 2.496 4.0625
v 0.575 2.496 3.9375
v 0.575 2.496 4.0625
v 0.325 2.496 4.0625
v 0.325 2.496 3.9375
v 0.575 2.246 3.9375
v 0.575 2.496 3.9375
v 0.325 2.496 3.9375
v 0.325 2.246 3.9375
v 0.575 2.246 4.0625
v 0.575 2.246 3.9375
v 0.325 2.246 3.9375
v 0.325 2.246 4.0625
v 0.575 2.496 3.9375
v 0.575 2.246 3.9375
v 0.575 2.246 4.0625
v 0.575 2.496 4.0625
v 0.325 2.496 4.0625
v 0.325 2.246 4.0625
v 0.325 2.246 3.9375
v 0.325 2.496 3.9375
v 0.475 2.658 4.0625
v 0.475 2.408 4.0625
v 0.225 2.408 4.0625
v 0.225 2.658 4.0625
v -0.025 2.658 4.0625
v -0.025 2.408 4.0625
v 0.475 2.658 3.9375
v 0.475 2.658 4.0625
v 0.225 2.658 4.0625
v 0.225 2.658 3.9375
v -0.025 2.658 3.9375
v -0.025 2.658 4.0625
v 0.475 2.408 3.9375
v 0.475 2.658 3.9375
v 0.225 2.658 3.9375
v 0.225 2.408 3.9375
v -0.025 2.408 3.9375
v -0.025 2.658 3.9375
v 0.475 2.408 4.0625
v 0.475 2.408 3.9375
v 0.225 2.408 3.9375
v 0.225 2.408 4.0625
v -0.025 2.408 4.0625
v -0.025 2.408 3.9375
v 0.475 2.658 3.9375
v 0.475 2.408 3.9375
v 0.475 2.408 4.0625
v 0.475 2.658 4.0625
v 0.225 2.658 4.0625
v 0.225 2.408 4.0625
v 0.225 2.408 3.9375
v 0.225 2.658 3.9375
v -0.225 2.658 4.0625
v -0.225 2.408 4.0625
v -0.475 2.408 4.0625
v -0.475 2.658 4.0625
v -0.225 2.658 3.9375
v -0.225 2.658 4.0625
v -0.475 2.658 4.0625
v -0.475 2.658 3.9375
v -0.225 2.408 3.9375
v -0.225 2.658 3.9375
v -0.475 2.658 3.9375
v -0.475 2.408 3.9375
v -0.225 2.408 4.0625
v -0.225 2.408 3.9375
v -0.475 2.408 3.9375
v -0.475 2.408 4.0625
v -0.225 2.658 3.9375
v -0.225 2.408 3.9375
v -0.225 2.408 4.0625
v -0.225 2.658 4.0625
v -0.475 2.658 4.0625
v -0.475 2.408 4.0625
v -0.475 2.408 3.9375
v -0.475 2.658 3.9375
v -0.325 2.496 4.0625
v -0.325 2.246 4.0625
v -0.575 2.246 4.0625
v -0.575 2.496 4.0625
v -0.325 2.496 3.9375
v -0.325 2.496 4.0625
v -0.575 2.496 4.0625
v -0.575 2.496 3.9375
v -0.325 2.246 3.9375
v -0.325 2.496 3.9375
v -0.575 2.496 3.9375
v -0.575 2.246 3.9375
v -0.325 2.246 4.0625
v -0.325 2.246 3.9375
v -0.575 2.246 3.9375
v -0.575 2.246 4.0625
v -0.325 2.496 3.9375
v -0.325 2.246 3.9375
v -0.325 2.246 4.0625
v -0.325 2.496 4.0625
v -0.575 2.496 4.0625
v -0.575 2.246 4.0625
v -0.575 2.246 3.9375
v -0.575 2.496 3.9375
v 0.225 2.658 3.9375
v 0.225 2.408 3.9375
v 0.225 2.408 4.0625
v 0.225 2.658 4.0625
v -0.025 2.658 4.0625
v -0.025 2.408 4.0625
v -0.025 2.408 3.9375
v -0.025 2.658 3.9375
v -0.258 2.658 4.0625
v -0.008000001 2.658 4.0625
v -0.008000001 2.408 4.0625
v -0.258 2.408 4.0625
v -0.258 2.658 3.9375
v -0.008000001 2.658 3.9375
v -0.008000001 2.658 4.0625
v -0.258 2.658 4.0625
v -0.258 2.408 3.9375
v -0.008000001 2.408 3.9375
v -0.008000001 2.658 3.9375
v -0.258 2.658 3.9375
v -0.258 2.408 4.0625
v -0.008000001 2.408 4.0625
v -0.008000001 2.408 3.9375
v -0.258 2.408 3.9375
v -0.008000001 2.658 3.9375
v -0.008000001 2.408 3.9375
v -0.008000001 2.408 4.0625
v -0.008000001 2.658 4.0625
v -0.258 2.658 4.0625
v -0.258 2.408 4.0625
v -0.258 2.408 3.9375
v -0.258 2.658 3.9375
v 0.325 1.0002 4.0625
v 0.575 1.0002 4.0625
v 0.575 0.7502 4.0625
v 0.325 0.7502 4.0625
v 0.575 1.0002 3.9375
v 0.575 1.0002 4.0625
v 0.325 1.0002 4.0625
v 0.325 1.0002 3.9375
v 0.575 0.7502 3.9375
v 0.575 1.0002 3.9375
v 0.325 1.0002 3.9375
v 0.325 0.7502 3.9375
v 0.575 0.7502 4.0625
v 0.575 0.7502 3.9375
v 0.325 0.7502 3.9375
v 0.325 0.7502 4.0625
v 0.575 1.0002 4.0625
v 0.575 1.0002 3.9375
v 0.575 0.7502 3.9375
v 0.575 0.7502 4.0625
v 0.325 1.0002 3.9375
v 0.325 1.0002 4.0625
v 0.325 0.7502 4.0625
v 0.325 0.7502 3.9375
v 0.575 0.751 4.0625
v 0.575 0.501 4.0625
v 0.325 0.501 4.0625
v 0.325 0.751 4.0625
v 0.575 0.751 3.9375
v 0.575 0.751 4.0625
v 0.325 0.751 4.0625
v 0.325 0.751 3.9375
v 0.575 0.501 3.9375
v 0.575 0.751 3.9375
v 0.325 0.751 3.9375
v 0.325 0.501 3.9375
v 0.575 0.501 4.0625
v 0.575 0.501 3.9375
v 0.325 0.501 3.9375
v 0.325 0.501 4.0625
v 0.575 0.751 3.9375
v 0.575 0.501 3.9375
v 0.575 0.501 4.0625
v 0.575 0.751 4.0625
v 0.325 0.751 4.0625
v 0.325 0.501 4.0625
v 0.325 0.501 3.9375
v 0.325 0.751 3.9375
v 0.575 0.502 4.0625
v 0.575 0.252 4.0625
v 0.325 0.252 4.0625
v 0.325 0.502 4.0625
v 0.575 0.502 3.9375
v 0.575 0.502 4.0625
v 0.325 0.502 4.0625
v 0.325 0.502 3.9375
v 0.325 0.252 3.9375
v 0.575 0.252 3.9375
v 0.575 0.502 3.9375
v 0.325 0.502 3.9375
v 0.575 0.252 4.0625
v 0.575 0.252 3.9375
v 0.325 0.252 3.9375
v 0.325 0.252 4.0625
v 0.575 0.502 3.9375
v 0.575 0.252 3.9375
v 0.575 0.252 4.0625
v 0.575 0.502 4.0625
v 0.325 0.502 4.0625
v 0.325 0.252 4.0625
v 0.325 0.252 3.9375
v 0.325 0.502 3.9375
v -0.325 1.25 4.0625
v -0.325 1 4.0625
v -0.575 1 4.0625
v -0.575 1.25 4.0625
v -0.325 1.25 3.9375
v -0.325 1.25 4.0625
v -0.575 1.25 4.0625
v -0.575 1.25 3.9375
v -0.325 1 3.9375
v -0.325 1.25 3.9375
v -0.575 1.25 3.9375
v -0.575 1 3.9375
v -0.325 1 4.0625
v -0.325 1 3.9375
v -0.575 1 3.9375
v -0.575 1 4.0625
v -0.325 1.25 3.9375
v -0.325 1 3.9375
v -0.325 1 4.0625
v -0.325 1.25 4.0625
v -0.575 1.25 4.0625
v -0.575 1 4.0625
v -0.575 1 3.9375
v -0.575 1.25 3.9375
v -0.325 1.497 4.0625
v -0.325 1.247 4.0625
v -0.575 1.247 4.0625
v -0.575 1.497 4.0625
v -0.325 1.747 4.0625
v -0.575 1.747 4.0625
v -0.325 1.997 4.0625
v -0.575 1.997 4.0625
v -0.325 2.247 4.0625
v -0.575 2.247 4.0625
v -0.325 1.497 3.9375
v -0.325 1.497 4.0625
v -0.575 1.497 4.0625
v -0.575 1.497 3.9375
v -0.325 1.247 3.9375
v -0.325 1.497 3.9375
v -0.575 1.497 3.9375
v -0.575 1.247 3.9375
v -0.575 1.747 3.9375
v -0.325 1.747 3.9375
v -0.575 1.997 3.9375
v -0.325 1.997 3.9375
v -0.575 2.247 3.9375
v -0.325 2.247 3.9375
v -0.325 1.247 4.0625
v -0.325 1.247 3.9375
v -0.575 1.247 3.9375
v -0.575 1.247 4.0625
v -0.325 1.497 3.9375
v -0.325 1.247 3.9375
v -0.325 1.247 4.0625
v -0.325 1.497 4.0625
v -0.325 1.747 3.9375
v -0.325 1.747 4.0625
v -0.325 1.997 3.9375
v -0.325 1.997 4.0625
v -0.325 2.247 3.9375
v -0.325 2.247 4.0625
v -0.575 1.497 4.0625
v -0.575 1.247 4.0625
v -0.575 1.247 3.9375
v -0.575 1.497 3.9375
v -0.575 1.747 4.0625
v -0.575 1.747 3.9375
v -0.575 1.997 4.0625
v -0.575 1.997 3.9375
v -0.575 2.247 4.0625
v -0.575 2.247 3.9375
v -0.325 1.747 3.9375
v -0.325 1.747 4.0625
v -0.575 1.747 4.0625
v -0.575 1.747 3.9375
v -0.325 1.497 4.0625
v -0.325 1.497 3.9375
v -0.575 1.497 3.9375
v -0.575 1.497 4.0625
v -0.325 1.997 3.9375
v -0.325 1.997 4.0625
v -0.575 1.997 4.0625
v -0.575 1.997 3.9375
v -0.325 1.747 4.0625
v -0.325 1.747 3.9375
v -0.575 1.747 3.9375
v -0.575 1.747 4.0625
v -0.325 2.247 3.9375
v -0.325 2.247 4.0625
v -0.575 2.247 4.0625
v -0.575 2.247 3.9375
v -0.325 1.997 4.0625
v -0.325 1.997 3.9375
v -0.575 1.997 3.9375
v -0.575 1.997 4.0625
v -0.575 1.0002 4.0625
v -0.325 1.0002 4.0625
v -0.325 0.7502 4.0625
v -0.575 0.7502 4.0625
v -0.325 1.0002 3.9375
v -0.325 1.0002 4.0625
v -0.575 1.0002 4.0625
v -0.575 1.0002 3.9375
v -0.325 0.7502 3.9375
v -0.325 1.0002 3.9375
v -0.575 1.0002 3.9375
v -0.575 0.7502 3.9375
v -0.325 0.7502 4.0625
v -0.325 0.7502 3.9375
v -0.575 0.7502 3.9375
v -0.575 0.7502 4.0625
v -0.325 1.0002 4.0625
v -0.325 1.0002 3.9375
v -0.325 0.7502 3.9375
v -0.325 0.7502 4.0625
v -0.575 1.0002 3.9375
v -0.575 1.0002 4.0625
v -0.575 0.7502 4.0625
v -0.575 0.7502 3.9375
v -0.325 0.751 4.0625
v -0.325 0.501 4.0625
v -0.575 0.501 4.0625
v -0.575 0.751 4.0625
v -0.325 0.751 3.9375
v -0.325 0.751 4.0625
v -0.575 0.751 4.0625
v -0.575 0.751 3.9375
v -0.325 0.501 3.9375
v -0.325 0.751 3.9375
v -0.575 0.751 3.9375
v -0.575 0.501 3.9375
v -0.325 0.501 4.0625
v -0.325 0.501 3.9375
v -0.575 0.501 3.9375
v -0.575 0.501 4.0625
v -0.325 0.751 3.9375
v -0.325 0.501 3.9375
v -0.325 0.501 4.0625
v -0.325 0.751 4.0625
v -0.575 0.751 4.0625
v -0.575 0.501 4.0625
v -0.575 0.501 3.9375
v -0.575 0.751 3.9375
v -0.325 0.502 4.0625
v -0.325 0.252 4.0625
v -0.575 0.252 4.0625
v -0.575 0.502 4.0625
v -0.325 0.502 3.9375
v -0.325 0.502 4.0625
v -0.575 0.502 4.0625
v -0.575 0.502 3.9375
v -0.575 0.252 3.9375
v -0.325 0.252 3.9375
v -0.325 0.502 3.9375
v -0.575 0.502 3.9375
v -0.325 0.252 4.0625
v -0.325 0.252 3.9375
v -0.575 0.252 3.9375
v -0.575 0.252 4.0625
v -0.325 0.502 3.9375
v -0.325 0.252 3.9375
v -0.325 0.252 4.0625
v -0.325 0.502 4.0625
v -0.575 0.502 4.0625
v -0.575 0.252 4.0625
v -0.575 0.252 3.9375
v -0.575 0.502 3.9375
v 0.575 2.657 4.0625
v 0.575 2.407 4.0625
v 0.325 2.407 4.0625
v 0.325 2.657 4.0625
v 0.575 2.657 3.9375
v 0.575 2.657 4.0625
v 0.325 2.657 4.0625
v 0.325 2.657 3.9375
v 0.575 2.407 3.9375
v 0.575 2.657 3.9375
v 0.325 2.657 3.9375
v 0.325 2.407 3.9375
v 0.575 2.407 4.0625
v 0.575 2.407 3.9375
v 0.325 2.407 3.9375
v 0.325 2.407 4.0625
v 0.575 2.657 3.9375
v 0.575 2.407 3.9375
v 0.575 2.407 4.0625
v 0.575 2.657 4.0625
v 0.325 2.657 4.0625
v 0.325 2.407 4.0625
v 0.325 2.407 3.9375
v 0.325 2.657 3.9375
v -0.325 2.657 4.0625
v -0.325 2.407 4.0625
v -0.575 2.407 4.0625
v -0.575 2.657 4.0625
v -0.325 2.657 3.9375
v -0.325 2.657 4.0625
v -0.575 2.657 4.0625
v -0.575 2.657 3.9375
v -0.325 2.407 3.9375
v -0.325 2.657 3.9375
v -0.575 2.657 3.9375
v -0.575 2.407 3.9375
v -0.325 2.407 4.0625
v -0.325 2.407 3.9375
v -0.575 2.407 3.9375
v -0.575 2.407 4.0625
v -0.325 2.657 3.9375
v -0.325 2.407 3.9375
v -0.325 2.407 4.0625
v -0.325 2.657 4.0625
v -0.575 2.657 4.0625
v -0.575 2.407 4.0625
v -0.575 2.407 3.9375
v -0.575 2.657 3.9375

vn 0 0 1
vn 0 0 1
vn 0 0 1
vn 0 0 1
vn 0 1 0
vn 0 1 0
vn 0 1 0
vn 0 1 0
vn 0 0 -1
vn 0 0 -1
vn 0 0 -1
vn 0 0 -1
vn 0 -1 0
vn 0 -1 0
vn 0 -1 0
vn 0 -1 0
vn 1 0 0
vn 1 0 0
vn 1 0 0
vn 1 0 0
vn -1 0 0
vn -1 0 0
vn -1 0 0
vn -1 0 0
vn 0 0 1
vn 0 0 1
vn 0 0 1
vn 0 0 1
vn 0 0 1
vn 0 0 1
vn 0 0 1
vn 0 0 1
vn 0 0 1
vn 0 0 1
vn 0 1 0
vn 0 1 0
vn 0 1 0
vn 0 1 0
vn 0 0 -1
vn 0 0 -1
vn 0 0 -1
vn 0 0 -1
vn 0 0 -1
vn 0 0 -1
vn 0 0 -1
vn 0 0 -1
vn 0 0 -1
vn 0 0 -1
vn 0 -1 0
vn 0 -1 0
vn 0 -1 0
vn 0 -1 0
vn 1 0 0
vn 1 0 0
vn 1 0 0
vn 1 0 0
vn 1 0 0
vn 1 0 0
vn 1 0 0
vn 1 0 0
vn 1 0 0
vn 1 0 0
vn -1 0 0
vn -1 0 0
vn -1 0 0
vn -1 0 0
vn -1 0 0
vn -1 0 0
vn -1 0 0
vn -1 0 0
vn -1 0 0
vn -1 0 0
vn 0 1 0
vn 0 1 0
vn 0 1 0
vn 0 1 0
vn 0 -1 0
vn 0 -1 0
vn 0 -1 0
vn 0 -1 0
vn 0 1 0
vn 0 1 0
vn 0 1 0
vn 0 1 0
vn 0 -1 0
vn 0 -1 0
vn 0 -1 0
vn 0 -1 0
vn 0 1 0
vn 0 1 0
vn 0 1 0
vn 0 1 0
vn 0 -1 0
vn 0 -1 0
vn 0 -1 0
vn 0 -1 0
vn 0 0 1
vn 0 0 1
vn 0 0 1
vn 0 0 1
vn 0 1 0
vn 0 1 0
vn 0 1 0
vn 0 1 0
vn 0 0 -1
vn 0 0 -1
vn 0 0 -1
vn 0 0 -1
vn 0 -1 0
vn 0 -1 0
vn 0 -1 0
vn 0 -1 0
vn 1 0 0
vn 1 0 0
vn 1 0 0
vn 1 0 0
vn -1 0 0
vn -1 0 0
vn -1 0 0
vn -1 0 0
vn 0 0 1
vn 0 0 1
vn 0 0 1
vn 0 0 1
vn 0 0 1
vn 0 0 1
vn 0 1 0
vn 0 1 0
vn 0 1 0
vn 0 1 0
vn 0 1 0
vn 0 1 0
vn 0 0 -1
vn 0 0 -1
vn 0 0 -1
vn 0 0 -1
vn 0 0 -1
vn 0 0 -1
vn 0 -1 0
vn 0 -1 0
vn 0 -1 0
vn 0 -1 0
vn 0 -1 0
vn 0 -1 0
vn 1 0 0
vn 1 0 0
vn 1 0 0
vn 1 0 0
vn -1 0 0
vn -1 0 0
vn -1 0 0
vn -1 0 0
vn 0 0 1
vn 0 0 1
vn 0 0 1
vn 0 0 1
vn 0 1 0
vn 0 1 0
vn 0 1 0
vn 0 1 0
vn 0 0 -1
vn 0 0 -1
vn 0 0 -1
vn 0 0 -1
vn 0 -1 0
vn 0 -1 0
vn 0 -1 0
vn 0 -1 0
vn 1 0 0
vn 1 0 0
vn 1 0 0
vn 1 0 0
vn -1 0 0
vn -1 0 0
vn -1 0 0
vn -1 0 0
vn 0 0 1
vn 0 0 1
vn 0 0 1
vn 0 0 1
vn 0 1 0
vn 0 1 0
vn 0 1 0
vn 0 1 0
vn 0 0 -1
vn 0 0 -1
vn 0 0 -1
vn 0 0 -1
vn 0 -1 0
vn 0 -1 0
vn 0 -1 0
vn 0 -1 0
vn 1 0 0
vn 1 0 0
vn 1 0 0
vn 1 0 0
vn -1 0 0
vn -1 0 0
vn -1 0 0
vn -1 0 0
vn 1 0 0
vn 1 0 0
vn 1 0 0
vn 1 0 0
vn -1 0 0
vn -1 0 0
vn -1 0 0
vn -1 0 0
vn 0 0 1
vn 0 0 1
vn 0 0 1
vn 0 0 1
vn 0 1 0
vn 0 1 0
vn 0 1 0
vn 0 1 0
vn 0 0 -1
vn 0 0 -1
vn 0 0 -1
vn 0 0 -1
vn 0 -1 0
vn 0 -1 0
vn 0 -1 0
vn 0 -1 0
vn 1 0 0
vn 1 0 0
vn 1 0 0
vn 1 0 0
vn -1 0 0
vn -1 0 0
vn -1 0 0
vn -1 0 0
vn 0 0 1
vn 0 0 1
vn 0 0 1
vn 0 0 1
vn 0 1 0
vn 0 1 0
vn 0 1 0
vn 0 1 0
vn 0 0 -1
vn 0 0 -1
vn 0 0 -1
vn 0 0 -1
vn 0 -1 0
vn 0 -1 0
vn 0 -1 0
vn 0 -1 0
vn 1 0 0
vn 1 0 0
vn 1 0 0
vn 1 0 0
vn -1 0 0
vn -1 0 0
vn -1 0 0
vn -1 0 0
vn 0 0 1
vn 0 0 1
vn 0 0 1
vn 0 0 1
vn 0 1 0
vn 0 1 0
vn 0 1 0
vn 0 1 0
vn 0 0 -1
vn 0 0 -1
vn 0 0 -1
vn 0 0 -1
vn 0 -1 0
vn 0 -1 0
vn 0 -1 0
vn 0 -1 0
vn 1 0 0
vn 1 0 0
vn 1 0 0
vn 1 0 0
vn -1 0 0
vn -1 0 0
vn -1 0 0
vn -1 0 0
vn 0 0 1
vn 0 0 1
vn 0 0 1
vn 0 0 1
vn 0 1 0
vn 0 1 0
vn 0 1 0
vn 0 1 0
vn 0 0 -1
vn 0 0 -1
vn 0 0 -1
vn 0 0 -1
vn 0 -1 0
vn 0 -1 0
vn 0 -1 0
vn 0 -1 0
vn 1 0 0
vn 1 0 0
vn 1 0 0
vn 1 0 0
vn -1 0 0
vn -1 0 0
vn -1 0 0
vn -1 0 0
vn 0 0 1
vn 0 0 1
vn 0 0 1
vn 0 0 1
vn 0 1 0
vn 0 1 0
vn 0 1 0
vn 0 1 0
vn 0 0 -1
vn 0 0 -1
vn 0 0 -1
vn 0 0 -1
vn 0 -1 0
vn 0 -1 0
vn 0 -1 0
vn 0 -1 0
vn 1 0 0
vn 1 0 0
vn 1 0 0
vn 1 0 0
vn -1 0 0
vn -1 0 0
vn -1 0 0
vn -1 0 0
vn 0 0 1
vn 0 0 1
vn 0 0 1
vn 0 0 1
vn 0 0 1
vn 0 0 1
vn 0 0 1
vn 0 0 1
vn 0 0 1
vn 0 0 1
vn 0 1 0
vn 0 1 0
vn 0 1 0
vn 0 1 0
vn 0 0 -1
vn 0 0 -1
vn 0 0 -1
vn 0 0 -1
vn 0 0 -1
vn 0 0 -1
vn 0 0 -1
vn 0 0 -1
vn 0 0 -1
vn 0 0 -1
vn 0 -1 0
vn 0 -1 0
vn 0 -1 0
vn 0 -1 0
vn 1 0 0
vn 1 0 0
vn 1 0 0
vn 1 0 0
vn 1 0 0
vn 1 0 0
vn 1 0 0
vn 1 0 0
vn 1 0 0
vn 1 0 0
vn -1 0 0
vn -1 0 0
vn -1 0 0
vn -1 0 0
vn -1 0 0
vn -1 0 0
vn -1 0 0
vn -1 0 0
vn -1 0 0
vn -1 0 0
vn 0 1 0
vn 0 1 0
vn 0 1 0
vn 0 1 0
vn 0 -1 0
vn 0 -1 0
vn 0 -1 0
vn 0 -1 0
vn 0 1 0
vn 0 1 0
vn 0 1 0
vn 0 1 0
vn 0 -1 0
vn 0 -1 0
vn 0 -1 0
vn 0 -1 0
vn 0 1 0
vn 0 1 0
vn 0 1 0
vn 0 1 0
vn 0 -1 0
vn 0 -1 0
vn 0 -1 0
vn 0 -1 0
vn 0 0 1
vn 0 0 1
vn 0 0 1
vn 0 0 1
vn 0 1 0
vn 0 1 0
vn 0 1 0
vn 0 1 0
vn 0 0 -1
vn 0 0 -1
vn 0 0 -1
vn 0 0 -1
vn 0 -1 0
vn 0 -1 0
vn 0 -1 0
vn 0 -1 0
vn 1 0 0
vn 1 0 0
vn 1 0 0
vn 1 0 0
vn -1 0 0
vn -1 0 0
vn -1 0 0
vn -1 0 0
vn 0 0 1
vn 0 0 1
vn 0 0 1
vn 0 0 1
vn 0 1 0
vn 0 1 0
vn 0 1 0
vn 0 1 0
vn 0 0 -1
vn 0 0 -1
vn 0 0 -1
vn 0 0 -1
vn 0 -1 0
vn 0 -1 0
vn 0 -1 0
vn 0 -1 0
vn 1 0 0
vn 1 0 0
vn 1 0 0
vn 1 0 0
vn -1 0 0
vn -1 0 0
vn -1 0 0
vn -1 0 0
vn 0 0 1
vn 0 0 1
vn 0 0 1
vn 0 0 1
vn 0 1 0
vn 0 1 0
vn 0 1 0
vn 0 1 0
vn 0 0 -1
vn 0 0 -1
vn 0 0 -1
vn 0 0 -1
vn 0 -1 0
vn 0 -1 0
vn 0 -1 0
vn 0 -1 0
vn 1 0 0
vn 1 0 0
vn 1 0 0
vn 1 0 0
vn -1 0 0
vn -1 0 0
vn -1 0 0
vn -1 0 0
vn 0 0 1
vn 0 0 1
vn 0 0 1
vn 0 0 1
vn 0 1 0
vn 0 1 0
vn 0 1 0
vn 0 1 0
vn 0 0 -1
vn 0 0 -1
vn 0 0 -1
vn 0 0 -1
vn 0 -1 0
vn 0 -1 0
vn 0 -1 0
vn 0 -1 0
vn 1 0 0
vn 1 0 0
vn 1 0 0
vn 1 0 0
vn -1 0 0
vn -1 0 0
vn -1 0 0
vn -1 0 0
vn 0 0 1
vn 0 0 1
vn 0 0 1
vn 0 0 1
vn 0 1 0
vn 0 1 0
vn 0 1 0
vn 0 1 0
vn 0 0 -1
vn 0 0 -1
vn 0 0 -1
vn 0 0 -1
vn 0 -1 0
vn 0 -1 0
vn 0 -1 0
vn 0 -1 0
vn 1 0 0
vn 1 0 0
vn 1 0 0
vn 1 0 0
vn -1 0 0
vn -1 0 0
vn -1 0 0
vn -1 0 0

g pattern_4_1_baked-mesh
usemtl pattern_4_1_baked-mesh
usemap pattern_4_1_baked-mesh
f 1//1 3//3 2//2
f 1//1 4//4 3//3
f 5//5 7//7 6//6
f 5//5 8//8 7//7
f 9//9 11//11 10//10
f 9//9 12//12 11//11
f 13//13 15//15 14//14
f 13//13 16//16 15//15
f 17//17 19//19 18//18
f 17//17 20//20 19//19
f 21//21 23//23 22//22
f 21//21 24//24 23//23
f 25//25 27//27 26//26
f 25//25 28//28 27//27
f 29//29 28//28 25//25
f 29//29 30//30 28//28
f 31//31 30//30 29//29
f 31//31 32//32 30//30
f 33//33 32//32 31//31
f 33//33 34//34 32//32
f 35//35 37//37 36//36
f 35//35 38//38 37//37
f 39//39 41//41 40//40
f 39//39 42//42 41//41
f 40//40 41//41 43//43
f 40//40 43//43 44//44
f 44//44 43//43 45//45
f 44//44 45//45 46//46
f 46//46 45//45 47//47
f 46//46 47//47 48//48
f 49//49 51//51 50//50
f 49//49 52//52 51//51
f 53//53 55//55 54//54
f 53//53 56//56 55//55
f 57//57 56//56 53//53
f 57//57 58//58 56//56
f 59//59 58//58 57//57
f 59//59 60//60 58//58
f 61//61 60//60 59//59
f 61//61 62//62 60//60
f 63//63 65//65 64//64
f 63//63 66//66 65//65
f 67//67 66//66 63//63
f 67//67 68//68 66//66
f 69//69 68//68 67//67
f 69//69 70//70 68//68
f 71//71 70//70 69//69
f 71//71 72//72 70//70
f 73//73 75//75 74//74
f 73//73 76//76 75//75
f 77//77 79//79 78//78
f 77//77 80//80 79//79
f 81//81 83//83 82//82
f 81//81 84//84 83//83
f 85//85 87//87 86//86
f 85//85 88//88 87//87
f 89//89 91//91 90//90
f 89//89 92//92 91//91
f 93//93 95//95 94//94
f 93//93 96//96 95//95
f 97//97 99//99 98//98
f 97//97 100//100 99//99
f 101//101 103//103 102//102
f 101//101 104//104 103//103
f 105//105 107//107 106//106
f 105//105 108//108 107//107
f 109//109 111//111 110//110
f 109//109 112//112 111//111
f 113//113 115//115 114//114
f 113//113 116//116 115//115
f 117//117 119//119 118//118
f 117//117 120//120 119//119
f 121//121 123//123 122//122
f 121//121 124//124 123//123
f 125//125 123//123 124//124
f 125//125 126//126 123//123
f 127//127 129//129 128//128
f 127//127 130//130 129//129
f 131//131 129//129 130//130
f 131//131 132//132 129//129
f 133//133 135//135 134//134
f 133//133 136//136 135//135
f 137//137 135//135 136//136
f 137//137 138//138 135//135
f 139//139 141//141 140//140
f 139//139 142//142 141//141
f 143//143 141//141 142//142
f 143//143 144//144 141//141
f 145//145 147//147 146//146
f 145//145 148//148 147//147
f 149//149 151//151 150//150
f 149//149 152//152 151//151
f 153//153 155//155 154//154
f 153//153 156//156 155//155
f 157//157 159//159 158//158
f 157//157 160//160 159//159
f 161//161 163//163 162//162
f 161//161 164//164 163//163
f 165//165 167//167 166//166
f 165//165 168//168 167//167
f 169//169 171//171 170//170
f 169//169 172//172 171//171
f 173//173 175//175 174//174
f 173//173 176//176 175//175
f 177//177 179//179 178//178
f 177//177 180//180 179//179
f 181//181 183//183 182//182
f 181//181 184//184 183//183
f 185//185 187//187 186//186
f 185//185 188//188 187//187
f 189//189 191//191 190//190
f 189//189 192//192 191//191
f 193//193 195//195 194//194
f 193//193 196//196 195//195
f 197//197 199//199 198//198
f 197//197 200//200 199//199
f 201//201 203//203 202//202
f 201//201 204//204 203//203
f 205//205 207//207 206//206
f 205//205 208//208 207//207
f 209//209 211//211 210//210
f 209//209 212//212 211//211
f 213//213 215//215 214//214
f 213//213 216//216 215//215
f 217//217 219//219 218//218
f 217//217 220//220 219//219
f 221//221 223//223 222//222
f 221//221 224//224 223//223
f 225//225 227//227 226//226
f 225//225 228//228 227//227
f 229//229 231//231 230//230
f 229//229 232//232 231//231
f 233//233 235//235 234//234
f 233//233 236//236 235//235
f 237//237 239//239 238//238
f 237//237 240//240 239//239
f 241//241 243//243 242//242
f 241//241 244//244 243//243
f 245//245 247//247 246//246
f 245//245 248//248 247//247
f 249//249 251//251 250//250
f 249//249 252//252 251//251
f 253//253 255//255 254//254
f 253//253 256//256 255//255
f 257//257 259//259 258//258
f 257//257 260//260 259//259
f 261//261 263//263 262//262
f 261//261 264//264 263//263
f 265//265 267//267 266//266
f 265//265 268//268 267//267
f 269//269 271//271 270//270
f 269//269 272//272 271//271
f 273//273 275//275 274//274
f 273//273 276//276 275//275
f 277//277 279//279 278//278
f 277//277 280//280 279//279
f 281//281 283//283 282//282
f 281//281 284//284 283//283
f 285//285 287//287 286//286
f 285//285 288//288 287//287
f 289//289 291//291 290//290
f 289//289 292//292 291//291
f 293//293 295//295 294//294
f 293//293 296//296 295//295
f 297//297 299//299 298//298
f 297//297 300//300 299//299
f 301//301 303//303 302//302
f 301//301 304//304 303//303
f 305//305 307//307 306//306
f 305//305 308//308 307//307
f 309//309 311//311 310//310
f 309//309 312//312 311//311
f 313//313 315//315 314//314
f 313//313 316//316 315//315
f 317//317 319//319 318//318
f 317//317 320//320 319//319
f 321//321 323//323 322//322
f 321//321 324//324 323//323
f 325//325 327//327 326//326
f 325//325 328//328 327//327
f 329//329 331//331 330//330
f 329//329 332//332 331//331
f 333//333 332//332 329//329
f 333//333 334//334 332//332
f 335//335 334//334 333//333
f 335//335 336//336 334//334
f 337//337 336//336 335//335
f 337//337 338//338 336//336
f 339//339 341//341 340//340
f 339//339 342//342 341//341
f 343//343 345//345 344//344
f 343//343 346//346 345//345
f 344//344 345//345 347//347
f 344//344 347//347 348//348
f 348//348 347//347 349//349
f 348//348 349//349 350//350
f 350//350 349//349 351//351
f 350//350 351//351 352//352
f 353//353 355//355 354//354
f 353//353 356//356 355//355
f 357//357 359//359 358//358
f 357//357 360//360 359//359
f 361//361 360//360 357//357
f 361//361 362//362 360//360
f 363//363 362//362 361//361
f 363//363 364//364 362//362
f 365//365 364//364 363//363
f 365//365 366//366 364//364
f 367//367 369//369 368//368
f 367//367 370//370 369//369
f 371//371 370//370 367//367
f 371//371 372//372 370//370
f 373//373 372//372 371//371
f 373//373 374//374 372//372
f 375//375 374//374 373//373
f 375//375 376//376 374//374
f 377//377 379//379 378//378
f 377//377 380//380 379//379
f 381//381 383//383 382//382
f 381//381 384//384 383//383
f 385//385 387//387 386//386
f 385//385 388//388 387//387
f 389//389 391//391 390//390
f 389//389 392//392 391//391
f 393//393 395//395 394//394
f 393//393 396//396 395//395
f 397//397 399//399 398//398
f 397//397 400//400 399//399
f 401//401 403//403 402//402
f 401//401 404//404 403//403
f 405//405 407//407 406//406
f 405//405 408//408 407//407
f 409//409 411//411 410//410
f 409//409 412//412 411//411
f 413//413 415//415 414//414
f 413//413 416//416 415//415
f 417//417 419//419 418//418
f 417//417 420//420 419//419
f 421//421 423//423 422//422
f 421//421 424//424 423//423
f 425//425 427//427 426//426
f 425//425 428//428 427//427
f 429//429 431//431 430//430
f 429//429 432//432 431//431
f 433//433 435//435 434//434
f 433//433 436//436 435//435
f 437//437 439//439 438//438
f 437//437 440//440 439//439
f 441//441 443//443 442//442
f 441//441 444//444 443//443
f 445//445 447//447 446//446
f 445//445 448//448 447//447
f 449//449 451//451 450//450
f 449//449 452//452 451//451
f 453//453 455//455 454//454
f 453//453 456//456 455//455
f 457//457 459//459 458//458
f 457//457 460//460 459//459
f 461//461 463//463 462//462
f 461//461 464//464 463//463
f 465//465 467//467 466//466
f 465//465 468//468 467//467
f 469//469 471//471 470//470
f 469//469 472//472 471//471
f 473//473 475//475 474//474
f 473//473 476//476 475//475
f 477//477 479//479 478//478
f 477//477 480//480 479//479
f 481//481 483//483 482//482
f 481//481 484//484 483//483
f 485//485 487//487 486//486
f 485//485 488//488 487//487
f 489//489 491//491 490//490
f 489//489 492//492 491//491
f 493//493 495//495 494//494
f 493//493 496//496 495//495
f 497//497 499//499 498//498
f 497//497 500//500 499//499
f 501//501 503//503 502//502
f 501//501 504//504 503//503
f 505//505 507//507 506//506
f 505//505 508//508 507//507
f 509//509 511//511 510//510
f 509//509 512//512 511//511
f 513//513 515//515 514//514
f 513//513 516//516 515//515
f 517//517 519//519 518//518
f 517//517 520//520 519//519
