#pCylinder1.obj

v 0.9510571 -1 -0.3090172
v 0.9510571 1 -0.3090172
v 0.8090175 1 -0.5877856
v 0.8090175 -1 -0.5877856
v 0.5877856 1 -0.8090175
v 0.5877856 -1 -0.8090175
v 0.3090172 1 -0.951057
v 0.3090172 -1 -0.951057
v 0 1 -1
v 0 -1 -1
v -0.3090172 1 -0.951057
v -0.3090172 -1 -0.951057
v -0.5877855 1 -0.8090173
v -0.5877855 -1 -0.8090173
v -0.8090172 1 -0.5877854
v -0.8090172 -1 -0.5877854
v -0.9510568 1 -0.3090171
v -0.9510568 -1 -0.3090171
v -1 1 0
v -1 -1 0
v -0.9510568 1 0.3090171
v -0.9510568 -1 0.3090171
v -0.8090172 1 0.5877854
v -0.8090172 -1 0.5877854
v -0.5877854 1 0.8090171
v -0.5877854 -1 0.8090171
v -0.3090171 1 0.9510567
v -0.3090171 -1 0.9510567
v -2.980232E-08 1 1
v -2.980232E-08 -1 1
v 0.309017 1 0.9510566
v 0.309017 -1 0.9510566
v 0.5877852 1 0.8090171
v 0.5877852 -1 0.8090171
v 0.809017 1 0.5877853
v 0.809017 -1 0.5877853
v 0.9510565 1 0.309017
v 0.9510565 -1 0.309017
v 1 1 0
v 1 -1 0
v 0.9510571 1 -0.3090172
v 0.9510571 -1 -0.3090172
v 0.8090175 -1 -0.5877856
v 0 -1 0
v 0.9510571 -1 -0.3090172
v 0.5877856 -1 -0.8090175
v 0 -1 0
v 0.3090172 -1 -0.951057
v 0 -1 0
v 0 -1 -1
v 0 -1 0
v -0.3090172 -1 -0.951057
v 0 -1 0
v -0.5877855 -1 -0.8090173
v 0 -1 0
v -0.8090172 -1 -0.5877854
v 0 -1 0
v -0.9510568 -1 -0.3090171
v 0 -1 0
v -1 -1 0
v 0 -1 0
v -0.9510568 -1 0.3090171
v 0 -1 0
v -0.8090172 -1 0.5877854
v 0 -1 0
v -0.5877854 -1 0.8090171
v 0 -1 0
v -0.3090171 -1 0.9510567
v 0 -1 0
v -2.980232E-08 -1 1
v 0 -1 0
v 0.309017 -1 0.9510566
v 0 -1 0
v 0.5877852 -1 0.8090171
v 0 -1 0
v 0.809017 -1 0.5877853
v 0 -1 0
v 0.9510565 -1 0.309017
v 0 -1 0
v 1 -1 0
v 0 -1 0
v 0.9510571 -1 -0.3090172
v 0 -1 0
v 0.9510571 1 -0.3090172
v 0 1 0
v 0.8090175 1 -0.5877856
v 0 1 0
v 0.5877856 1 -0.8090175
v 0 1 0
v 0.3090172 1 -0.951057
v 0 1 0
v 0 1 -1
v 0 1 0
v -0.3090172 1 -0.951057
v 0 1 0
v -0.5877855 1 -0.8090173
v 0 1 0
v -0.8090172 1 -0.5877854
v 0 1 0
v -0.9510568 1 -0.3090171
v 0 1 0
v -1 1 0
v 0 1 0
v -0.9510568 1 0.3090171
v 0 1 0
v -0.8090172 1 0.5877854
v 0 1 0
v -0.5877854 1 0.8090171
v 0 1 0
v -0.3090171 1 0.9510567
v 0 1 0
v -2.980232E-08 1 1
v 0 1 0
v 0.309017 1 0.9510566
v 0 1 0
v 0.5877852 1 0.8090171
v 0 1 0
v 0.809017 1 0.5877853
v 0 1 0
v 0.9510565 1 0.309017
v 0 1 0
v 1 1 0
v 0 1 0
v 0.9510571 1 -0.3090172

vn 0.9510568 0 -0.309016
vn 0.9510568 0 -0.309016
vn 0.809017 0 -0.5877852
vn 0.809017 0 -0.5877852
vn 0.5877851 0 -0.8090171
vn 0.5877851 0 -0.8090171
vn 0.3090168 0 -0.9510565
vn 0.3090168 0 -0.9510565
vn 0 0 -1
vn 0 0 -1
vn -0.3090171 0 -0.9510565
vn -0.3090171 0 -0.9510565
vn -0.5877855 0 -0.8090168
vn -0.5877855 0 -0.8090168
vn -0.8090171 0 -0.5877851
vn -0.8090171 0 -0.5877851
vn -0.9510565 0 -0.3090169
vn -0.9510565 0 -0.3090169
vn -1 0 0
vn -1 0 0
vn -0.9510565 0 0.309017
vn -0.9510565 0 0.309017
vn -0.8090169 0 0.5877854
vn -0.8090169 0 0.5877854
vn -0.5877852 0 0.8090171
vn -0.5877852 0 0.8090171
vn -0.3090169 0 0.9510565
vn -0.3090169 0 0.9510565
vn 0 0 1
vn 0 0 1
vn 0.3090171 0 0.9510565
vn 0.3090171 0 0.9510565
vn 0.5877852 0 0.809017
vn 0.5877852 0 0.809017
vn 0.809017 0 0.5877852
vn 0.809017 0 0.5877852
vn 0.9510565 0 0.3090169
vn 0.9510565 0 0.3090169
vn 1 0 0
vn 1 0 0
vn 0.9510568 0 -0.309016
vn 0.9510568 0 -0.309016
vn 0 -1 0
vn 0 -1 0
vn 0 -1 0
vn 0 -1 0
vn 0 -1 0
vn 0 -1 0
vn 0 -1 0
vn 0 -1 0
vn 0 -1 0
vn 0 -1 0
vn 0 -1 0
vn 0 -1 0
vn 0 -1 0
vn 0 -1 0
vn 0 -1 0
vn 0 -1 0
vn 0 -1 0
vn 0 -1 0
vn 0 -1 0
vn 0 -1 0
vn 0 -1 0
vn 0 -1 0
vn 0 -1 0
vn 0 -1 0
vn 0 -1 0
vn 0 -1 0
vn 0 -1 0
vn 0 -1 0
vn 0 -1 0
vn 0 -1 0
vn 0 -1 0
vn 0 -1 0
vn 0 -1 0
vn 0 -1 0
vn 0 -1 0
vn 0 -1 0
vn 0 -1 0
vn 0 -1 0
vn 0 -1 0
vn 0 -1 0
vn 0 -1 0
vn 0 1 0
vn 0 1 0
vn 0 1 0
vn 0 1 0
vn 0 1 0
vn 0 1 0
vn 0 1 0
vn 0 1 0
vn 0 1 0
vn 0 1 0
vn 0 1 0
vn 0 1 0
vn 0 1 0
vn 0 1 0
vn 0 1 0
vn 0 1 0
vn 0 1 0
vn 0 1 0
vn 0 1 0
vn 0 1 0
vn 0 1 0
vn 0 1 0
vn 0 1 0
vn 0 1 0
vn 0 1 0
vn 0 1 0
vn 0 1 0
vn 0 1 0
vn 0 1 0
vn 0 1 0
vn 0 1 0
vn 0 1 0
vn 0 1 0
vn 0 1 0
vn 0 1 0
vn 0 1 0
vn 0 1 0
vn 0 1 0
vn 0 1 0
vn 0 1 0
vn 0 1 0

vt 0 0.1591549
vt 0 0.4774648
vt 0.05 0.4774648
vt 0.05 0.1591549
vt 0.1 0.4774648
vt 0.1 0.1591549
vt 0.15 0.4774648
vt 0.15 0.1591549
vt 0.2 0.4774648
vt 0.2 0.1591549
vt 0.25 0.4774648
vt 0.25 0.1591549
vt 0.3 0.4774648
vt 0.3 0.1591549
vt 0.35 0.4774648
vt 0.35 0.1591549
vt 0.4 0.4774648
vt 0.4 0.1591549
vt 0.45 0.4774648
vt 0.45 0.1591549
vt 0.5000001 0.4774648
vt 0.5000001 0.1591549
vt 0.5500001 0.4774648
vt 0.5500001 0.1591549
vt 0.6000001 0.4774648
vt 0.6000001 0.1591549
vt 0.6500001 0.4774648
vt 0.6500001 0.1591549
vt 0.7000001 0.4774648
vt 0.7000001 0.1591549
vt 0.7500001 0.4774648
vt 0.7500001 0.1591549
vt 0.8000001 0.4774648
vt 0.8000001 0.1591549
vt 0.8500001 0.4774648
vt 0.8500001 0.1591549
vt 0.9000002 0.4774648
vt 0.9000002 0.1591549
vt 0.9500002 0.4774648
vt 0.9500002 0.1591549
vt 1 0.4774648
vt 1 0.1591549
vt 0.05 0.1591549
vt 0.5 0
vt 0 0.1591549
vt 0.1 0.1591549
vt 0.5 0
vt 0.15 0.1591549
vt 0.5 0
vt 0.2 0.1591549
vt 0.5 0
vt 0.25 0.1591549
vt 0.5 0
vt 0.3 0.1591549
vt 0.5 0
vt 0.35 0.1591549
vt 0.5 0
vt 0.4 0.1591549
vt 0.5 0
vt 0.45 0.1591549
vt 0.5 0
vt 0.5000001 0.1591549
vt 0.5 0
vt 0.5500001 0.1591549
vt 0.5 0
vt 0.6000001 0.1591549
vt 0.5 0
vt 0.6500001 0.1591549
vt 0.5 0
vt 0.7000001 0.1591549
vt 0.5 0
vt 0.7500001 0.1591549
vt 0.5 0
vt 0.8000001 0.1591549
vt 0.5 0
vt 0.8500001 0.1591549
vt 0.5 0
vt 0.9000002 0.1591549
vt 0.5 0
vt 0.9500002 0.1591549
vt 0.5 0
vt 1 0.1591549
vt 0.5 0
vt 0 0.4774648
vt 0.5 0.6366197
vt 0.05 0.4774648
vt 0.5 0.6366197
vt 0.1 0.4774648
vt 0.5 0.6366197
vt 0.15 0.4774648
vt 0.5 0.6366197
vt 0.2 0.4774648
vt 0.5 0.6366197
vt 0.25 0.4774648
vt 0.5 0.6366197
vt 0.3 0.4774648
vt 0.5 0.6366197
vt 0.35 0.4774648
vt 0.5 0.6366197
vt 0.4 0.4774648
vt 0.5 0.6366197
vt 0.45 0.4774648
vt 0.5 0.6366197
vt 0.5000001 0.4774648
vt 0.5 0.6366197
vt 0.5500001 0.4774648
vt 0.5 0.6366197
vt 0.6000001 0.4774648
vt 0.5 0.6366197
vt 0.6500001 0.4774648
vt 0.5 0.6366197
vt 0.7000001 0.4774648
vt 0.5 0.6366197
vt 0.7500001 0.4774648
vt 0.5 0.6366197
vt 0.8000001 0.4774648
vt 0.5 0.6366197
vt 0.8500001 0.4774648
vt 0.5 0.6366197
vt 0.9000002 0.4774648
vt 0.5 0.6366197
vt 0.9500002 0.4774648
vt 0.5 0.6366197
vt 1 0.4774648

g pCylinder1
usemtl pCylinder1
usemap pCylinder1
f 1/1/1 3/3/3 2/2/2
f 1/1/1 4/4/4 3/3/3
f 4/4/4 5/5/5 3/3/3
f 4/4/4 6/6/6 5/5/5
f 6/6/6 7/7/7 5/5/5
f 6/6/6 8/8/8 7/7/7
f 8/8/8 9/9/9 7/7/7
f 8/8/8 10/10/10 9/9/9
f 10/10/10 11/11/11 9/9/9
f 10/10/10 12/12/12 11/11/11
f 12/12/12 13/13/13 11/11/11
f 12/12/12 14/14/14 13/13/13
f 14/14/14 15/15/15 13/13/13
f 14/14/14 16/16/16 15/15/15
f 16/16/16 17/17/17 15/15/15
f 16/16/16 18/18/18 17/17/17
f 18/18/18 19/19/19 17/17/17
f 18/18/18 20/20/20 19/19/19
f 20/20/20 21/21/21 19/19/19
f 20/20/20 22/22/22 21/21/21
f 22/22/22 23/23/23 21/21/21
f 22/22/22 24/24/24 23/23/23
f 24/24/24 25/25/25 23/23/23
f 24/24/24 26/26/26 25/25/25
f 26/26/26 27/27/27 25/25/25
f 26/26/26 28/28/28 27/27/27
f 28/28/28 29/29/29 27/27/27
f 28/28/28 30/30/30 29/29/29
f 30/30/30 31/31/31 29/29/29
f 30/30/30 32/32/32 31/31/31
f 32/32/32 33/33/33 31/31/31
f 32/32/32 34/34/34 33/33/33
f 34/34/34 35/35/35 33/33/33
f 34/34/34 36/36/36 35/35/35
f 36/36/36 37/37/37 35/35/35
f 36/36/36 38/38/38 37/37/37
f 38/38/38 39/39/39 37/37/37
f 38/38/38 40/40/40 39/39/39
f 40/40/40 41/41/41 39/39/39
f 40/40/40 42/42/42 41/41/41
f 43/43/43 45/45/45 44/44/44
f 46/46/46 43/43/43 47/47/47
f 48/48/48 46/46/46 49/49/49
f 50/50/50 48/48/48 51/51/51
f 52/52/52 50/50/50 53/53/53
f 54/54/54 52/52/52 55/55/55
f 56/56/56 54/54/54 57/57/57
f 58/58/58 56/56/56 59/59/59
f 60/60/60 58/58/58 61/61/61
f 62/62/62 60/60/60 63/63/63
f 64/64/64 62/62/62 65/65/65
f 66/66/66 64/64/64 67/67/67
f 68/68/68 66/66/66 69/69/69
f 70/70/70 68/68/68 71/71/71
f 72/72/72 70/70/70 73/73/73
f 74/74/74 72/72/72 75/75/75
f 76/76/76 74/74/74 77/77/77
f 78/78/78 76/76/76 79/79/79
f 80/80/80 78/78/78 81/81/81
f 82/82/82 80/80/80 83/83/83
f 84/84/84 86/86/86 85/85/85
f 86/86/86 88/88/88 87/87/87
f 88/88/88 90/90/90 89/89/89
f 90/90/90 92/92/92 91/91/91
f 92/92/92 94/94/94 93/93/93
f 94/94/94 96/96/96 95/95/95
f 96/96/96 98/98/98 97/97/97
f 98/98/98 100/100/100 99/99/99
f 100/100/100 102/102/102 101/101/101
f 102/102/102 104/104/104 103/103/103
f 104/104/104 106/106/106 105/105/105
f 106/106/106 108/108/108 107/107/107
f 108/108/108 110/110/110 109/109/109
f 110/110/110 112/112/112 111/111/111
f 112/112/112 114/114/114 113/113/113
f 114/114/114 116/116/116 115/115/115
f 116/116/116 118/118/118 117/117/117
f 118/118/118 120/120/120 119/119/119
f 120/120/120 122/122/122 121/121/121
f 122/122/122 124/124/124 123/123/123
