#Plane_d2.obj

v -1.358649 0.001424104 0.0799999
v -1.358649 0.5701795 0.07999987
v -1.059958 0.4973311 0.07999986
v -1.059958 -0.001424104 0.07999989
v -0.8917152 1.422526 0.07999989
v -0.6013489 1.249076 0.07999988
v 0 1.25 0.07999991
v 0 1.42 0.07999992
v 0.8917152 1.422526 0.07999989
v 0.6013489 1.249076 0.07999988
v 1.059958 0.4973311 0.07999986
v 1.358649 0.5701795 0.07999987
v 1.358649 0.001424104 0.0799999
v 1.059958 -0.001424104 0.07999989
v -1.358649 0.001424104 0.0799999
v -1.358649 0.001424104 -0.08000014
v -1.358649 0.5701795 -0.08000017
v -1.358649 0.5701795 0.07999987
v -1.059958 -0.001424104 0.07999989
v -1.059958 0.4973311 0.07999986
v -1.059958 0.4973311 -0.08000018
v -1.059958 -0.001424104 -0.08000015
v -0.6013489 1.249076 -0.08000016
v -0.6013489 1.249076 0.07999988
v 0 1.25 0.07999991
v 0 1.25 -0.08000013
v 0.6013489 1.249076 -0.08000016
v 0.6013489 1.249076 0.07999988
v -1.358649 0.001424104 -0.08000014
v -1.059958 -0.001424104 -0.08000015
v -1.059958 0.4973311 -0.08000018
v -1.358649 0.5701795 -0.08000017
v -0.6013489 1.249076 -0.08000016
v -0.8917152 1.422526 -0.08000015
v 0 1.25 -0.08000013
v 0 1.42 -0.08000012
v 0.8917152 1.422526 -0.08000015
v 0.6013489 1.249076 -0.08000016
v 1.358649 0.5701795 -0.08000017
v 1.059958 0.4973311 -0.08000018
v 1.358649 0.001424104 -0.08000014
v 1.059958 -0.001424104 -0.08000015
v 0 1.42 -0.08000012
v 0 1.42 0.07999992
v -0.8917152 1.422526 0.07999989
v -0.8917152 1.422526 -0.08000015
v 0.8917152 1.422526 0.07999989
v 0.8917152 1.422526 -0.08000015
v -0.6013489 1.249076 -0.08000016
v -1.059958 0.4973311 -0.08000018
v -1.059958 0.4973311 0.07999986
v -0.6013489 1.249076 0.07999988
v -0.8917152 1.422526 -0.08000015
v -0.8917152 1.422526 0.07999989
v -1.358649 0.5701795 0.07999987
v -1.358649 0.5701795 -0.08000017
v 1.358649 0.001424104 -0.08000014
v 1.358649 0.001424104 0.0799999
v 1.358649 0.5701795 0.07999987
v 1.358649 0.5701795 -0.08000017
v 1.059958 0.4973311 0.07999986
v 1.059958 -0.001424104 0.07999989
v 1.059958 -0.001424104 -0.08000015
v 1.059958 0.4973311 -0.08000018
v 1.059958 0.4973311 -0.08000018
v 0.6013489 1.249076 -0.08000016
v 0.6013489 1.249076 0.07999988
v 1.059958 0.4973311 0.07999986
v 0.8917152 1.422526 -0.08000015
v 1.358649 0.5701795 -0.08000017
v 1.358649 0.5701795 0.07999987
v 0.8917152 1.422526 0.07999989

vn 0 0 1
vn 0 0 1
vn 0 0 1
vn 0 0 1
vn 0 0 1
vn 0 0 1
vn 0 0 1
vn 0 0 1
vn 0 0 1
vn 0 0 1
vn 0 0 1
vn 0 0 1
vn 0 0 1
vn 0 0 1
vn -1 0 0
vn -1 0 0
vn -1 0 0
vn -1 0 0
vn 1 0 0
vn 1 0 0
vn 1 0 0
vn 1 0 0
vn 0.001536727 -0.9999988 0
vn 0.001536727 -0.9999988 0
vn 0.001536727 -0.9999988 0
vn 0.001536727 -0.9999988 0
vn -0.001536727 -0.9999988 0
vn -0.001536727 -0.9999988 0
vn 0 0 -1
vn 0 0 -1
vn 0 0 -1
vn 0 0 -1
vn 0 0 -1
vn 0 0 -1
vn 0 0 -1
vn 0 0 -1
vn 0 0 -1
vn 0 0 -1
vn 0 0 -1
vn 0 0 -1
vn 0 0 -1
vn 0 0 -1
vn 0.002832916 0.9999961 0
vn 0.002832916 0.9999961 0
vn 0.002832916 0.9999961 0
vn 0.002832916 0.9999961 0
vn -0.002832916 0.9999961 0
vn -0.002832916 0.9999961 0
vn 0.8536812 -0.5207958 0
vn 0.8536812 -0.5207958 0
vn 0.8536812 -0.5207958 0
vn 0.8536812 -0.5207958 0
vn -0.8770215 0.480451 0
vn -0.8770215 0.480451 0
vn -0.8770215 0.480451 0
vn -0.8770215 0.480451 0
vn 1 0 0
vn 1 0 0
vn 1 0 0
vn 1 0 0
vn -1 0 0
vn -1 0 0
vn -1 0 0
vn -1 0 0
vn -0.8536812 -0.5207958 0
vn -0.8536812 -0.5207958 0
vn -0.8536812 -0.5207958 0
vn -0.8536812 -0.5207958 0
vn 0.8770215 0.480451 0
vn 0.8770215 0.480451 0
vn 0.8770215 0.480451 0
vn 0.8770215 0.480451 0

g Plane_d2
usemtl Plane_d2
usemap Plane_d2
f 1//1 3//3 2//2
f 1//1 4//4 3//3
f 5//5 2//2 3//3
f 5//5 3//3 6//6
f 6//6 7//7 5//5
f 7//7 8//8 5//5
f 8//8 7//7 9//9
f 7//7 10//10 9//9
f 11//11 9//9 10//10
f 11//11 12//12 9//9
f 13//13 12//12 11//11
f 13//13 11//11 14//14
f 15//15 17//17 16//16
f 15//15 18//18 17//17
f 19//19 21//21 20//20
f 19//19 22//22 21//21
f 23//23 25//25 24//24
f 23//23 26//26 25//25
f 27//27 25//25 26//26
f 27//27 28//28 25//25
f 29//29 31//31 30//30
f 29//29 32//32 31//31
f 33//33 31//31 32//32
f 33//33 32//32 34//34
f 35//35 33//33 34//34
f 36//36 35//35 34//34
f 35//35 36//36 37//37
f 38//38 35//35 37//37
f 38//38 37//37 39//39
f 38//38 39//39 40//40
f 41//41 40//40 39//39
f 41//41 42//42 40//40
f 43//43 45//45 44//44
f 43//43 46//46 45//45
f 47//47 43//43 44//44
f 47//47 48//48 43//43
f 49//49 51//51 50//50
f 49//49 52//52 51//51
f 53//53 55//55 54//54
f 53//53 56//56 55//55
f 57//57 59//59 58//58
f 57//57 60//60 59//59
f 61//61 63//63 62//62
f 61//61 64//64 63//63
f 65//65 67//67 66//66
f 65//65 68//68 67//67
f 69//69 71//71 70//70
f 69//69 72//72 71//71
