#Plane.obj

v -1.5 0.25265 0
v 1.5 0.25265 0
v 1.5 0.2526501 2.906118
v -1.5 0.2526501 2.940183
v 1.5 0.2526502 4.997935
v -1.5 0.2526502 5.038244
v -1.44143 0.2526502 5.615374
v -1.273088 0.2526503 6.170325
v -0.9997139 0.2526503 6.681772
v -0.6318147 0.2526503 7.130058
v -0.1835282 0.2526503 7.497957
v 0.3279184 0.2526503 7.771331
v 0.8828702 0.2526504 7.939673
v 1.46 0.2526503 7.998243
v 3.571812 0.2526503 7.998243
v 3.591812 0.2526502 4.997935
v 6.512 0.2526502 4.997935
v 6.512 0.2526503 7.998243
v 3.182409 0.2526502 4.964326
v 2.788738 0.2526502 4.844908
v 2.42593 0.2526502 4.650983
v 2.107925 0.2526502 4.390004
v 1.846946 0.2526502 4.072
v 1.653021 0.2526501 3.709191
v 1.533603 0.2526501 3.315521
v 1.5 -0.25265 0
v -1.5 -0.25265 0
v -1.5 -0.2526499 2.940183
v 1.5 -0.2526499 2.906118
v -1.5 -0.2526405 5.038244
v 1.5 -0.2526498 4.997935
v -1.44143 -0.2526405 5.615374
v -1.273088 -0.2526497 6.170325
v -0.9997139 -0.2526497 6.681772
v -0.6318147 -0.2526404 7.130058
v -0.1835282 -0.2526497 7.497957
v 0.3279184 -0.2526496 7.771331
v 0.8828702 -0.2526496 7.939673
v 1.46 -0.2526496 7.998243
v 3.591812 -0.2526498 4.997935
v 3.571812 -0.2526496 7.998243
v 6.512 -0.2526496 7.998243
v 6.512 -0.2526498 4.997935
v 3.182409 -0.2526498 4.964326
v 2.788738 -0.2526405 4.844908
v 2.42593 -0.2526498 4.650983
v 2.107925 -0.2526498 4.390004
v 1.846946 -0.2526405 4.072
v 1.653021 -0.2526498 3.709191
v 1.533603 -0.2526499 3.315521
v 1.5 -0.2526499 2.906118
v 1.5 0.2526501 2.906118
v 1.5 0.25265 0
v 1.5 -0.25265 0
v 1.533603 -0.2526499 3.315521
v 1.533603 0.2526501 3.315521
v 1.653021 0.2526501 3.709191
v 1.653021 -0.2526498 3.709191
v 1.846946 0.2526502 4.072
v 1.846946 -0.2526405 4.072
v 2.107925 -0.2526498 4.390004
v 2.107925 0.2526502 4.390004
v 2.42593 -0.2526498 4.650983
v 2.42593 0.2526502 4.650983
v 2.788738 0.2526502 4.844908
v 2.788738 -0.2526405 4.844908
v 3.182409 -0.2526498 4.964326
v 3.182409 0.2526502 4.964326
v 3.591812 -0.2526498 4.997935
v 3.591812 0.2526502 4.997935
v 6.512 0.2526502 4.997935
v 6.512 -0.2526498 4.997935
v 1.5 -0.25265 0
v 1.5 0.25265 0
v -1.5 0.25265 0
v -1.5 -0.25265 0
v -1.5 -0.2526499 2.940183
v -1.5 0.2526501 2.940183
v -1.5 0.2526502 5.038244
v -1.5 -0.2526405 5.038244
v -1.44143 0.2526502 5.615374
v -1.44143 -0.2526405 5.615374
v -1.273088 0.2526503 6.170325
v -1.273088 -0.2526497 6.170325
v -0.9997139 0.2526503 6.681772
v -0.9997139 -0.2526497 6.681772
v -0.6318147 -0.2526404 7.130058
v -0.6318147 0.2526503 7.130058
v -0.1835282 0.2526503 7.497957
v -0.1835282 -0.2526497 7.497957
v 0.3279184 0.2526503 7.771331
v 0.3279184 -0.2526496 7.771331
v 0.8828702 -0.2526496 7.939673
v 0.8828702 0.2526504 7.939673
v 1.46 -0.2526496 7.998243
v 1.46 0.2526503 7.998243
v 3.571812 -0.2526496 7.998243
v 3.571812 0.2526503 7.998243
v 6.512 0.2526503 7.998243
v 6.512 -0.2526496 7.998243
v -1.5 0.25265 0
v -1.5 -0.25265 0
v 6.512 -0.2526496 7.998243
v 6.512 0.2526503 7.998243
v 6.512 0.2526502 4.997935
v 6.512 -0.2526498 4.997935

vn 0 1 0
vn 0 1 0
vn 0 1 0
vn 0 1 0
vn 0 1 0
vn 0 1 0
vn 0 1 0
vn 0 1 0
vn 0 1 0
vn 0 1 0
vn 0 1 0
vn 0 1 0
vn 0 1 0
vn 0 1 0
vn 0 1 0
vn 0 1 0
vn 0 1 0
vn 0 1 0
vn 0 1 0
vn 0 1 0
vn 0 1 0
vn 0 1 0
vn 0 1 0
vn 0 1 0
vn 0 1 0
vn 0 -1 0
vn 0 -1 0
vn 0 -1 0
vn 0 -1 0
vn 0 -1 0
vn 0 -1 0
vn 0 -1 0
vn 0 -1 0
vn 0 -1 0
vn 0 -1 0
vn 0 -1 0
vn 0 -1 0
vn 0 -1 0
vn 0 -1 0
vn 0 -1 0
vn 0 -1 0
vn 0 -1 0
vn 0 -1 0
vn 0 -1 0
vn 0 -1 -5.464806E-05
vn 0 -1 1.95918E-05
vn 0 -1 0
vn 2.184495E-05 -1 0
vn 0 -1 0
vn 0 -1 0
vn 0.9991617 0 -0.04093558
vn 0.9991617 0 -0.04093558
vn 1 0 0
vn 1 0 0
vn 0.9823408 0 -0.1871002
vn 0.9823408 0 -0.1871002
vn 0.9238796 0 -0.3826832
vn 0.9238799 0 -0.3826825
vn 0.83147 0 -0.5555698
vn 0.8314699 0 -0.5555698
vn 0.7071062 0 -0.7071074
vn 0.7071066 0 -0.7071068
vn 0.5555696 0 -0.83147
vn 0.5555691 0 -0.8314704
vn 0.3826821 0 -0.92388
vn 0.3826821 0 -0.92388
vn 0.1871061 0 -0.9823398
vn 0.1871069 0 -0.9823396
vn 0.04094289 0 -0.9991615
vn 0.04094289 0 -0.9991615
vn 0 0 -1
vn 0 0 -1
vn 0 0 -1
vn 0 0 -1
vn 0 0 -1
vn 0 0 -1
vn -1 0 0
vn -1 0 0
vn -0.9987217 0 0.05054751
vn -0.9987217 0 0.05054744
vn -0.9804952 0 0.1965433
vn -0.9804951 0 0.1965438
vn -0.9238796 0 0.3826833
vn -0.9238794 0 0.3826838
vn -0.8314697 0 0.5555701
vn -0.83147 0 0.5555697
vn -0.707107 0 0.7071065
vn -0.7071069 0 0.7071065
vn -0.55557 0 0.8314698
vn -0.5555695 0 0.83147
vn -0.3826826 0 0.9238798
vn -0.3826826 0 0.9238798
vn -0.1965425 0 0.9804953
vn -0.1965425 0 0.9804953
vn -0.05054692 0 0.9987217
vn -0.05054692 0 0.9987217
vn 0 0 1
vn 0 0 1
vn 0 0 1
vn 0 0 1
vn -1 0 0
vn -1 0 0
vn 1 0 0
vn 1 0 0
vn 1 0 0
vn 1 0 0

g Plane
usemtl Plane
usemap Plane
f 1//1 3//3 2//2
f 1//1 4//4 3//3
f 5//5 3//3 4//4
f 5//5 4//4 6//6
f 6//6 7//7 5//5
f 5//5 7//7 8//8
f 5//5 8//8 9//9
f 5//5 9//9 10//10
f 11//11 5//5 10//10
f 12//12 5//5 11//11
f 13//13 5//5 12//12
f 13//13 14//14 5//5
f 15//15 5//5 14//14
f 15//15 16//16 5//5
f 17//17 16//16 15//15
f 17//17 15//15 18//18
f 5//5 16//16 19//19
f 5//5 19//19 20//20
f 5//5 20//20 21//21
f 5//5 21//21 22//22
f 5//5 22//22 23//23
f 24//24 5//5 23//23
f 25//25 5//5 24//24
f 3//3 5//5 25//25
f 26//26 28//28 27//27
f 26//26 29//29 28//28
f 30//30 28//28 29//29
f 30//30 29//29 31//31
f 32//32 30//30 31//31
f 32//32 31//31 33//33
f 33//33 31//31 34//34
f 34//34 31//31 35//35
f 31//31 36//36 35//35
f 31//31 37//37 36//36
f 31//31 38//38 37//37
f 39//39 38//38 31//31
f 39//39 31//31 40//40
f 39//39 40//40 41//41
f 42//42 41//41 40//40
f 42//42 40//40 43//43
f 40//40 31//31 44//44
f 44//44 31//31 45//45
f 45//45 31//31 46//46
f 46//46 31//31 47//47
f 47//47 31//31 48//48
f 31//31 49//49 48//48
f 31//31 50//50 49//49
f 31//31 29//29 50//50
f 51//51 53//53 52//52
f 51//51 54//54 53//53
f 55//55 51//51 52//52
f 55//55 52//52 56//56
f 57//57 55//55 56//56
f 57//57 58//58 55//55
f 59//59 58//58 57//57
f 59//59 60//60 58//58
f 61//61 60//60 59//59
f 61//61 59//59 62//62
f 63//63 61//61 62//62
f 63//63 62//62 64//64
f 65//65 63//63 64//64
f 65//65 66//66 63//63
f 67//67 66//66 65//65
f 67//67 65//65 68//68
f 69//69 67//67 68//68
f 69//69 68//68 70//70
f 71//71 69//69 70//70
f 71//71 72//72 69//69
f 73//73 75//75 74//74
f 73//73 76//76 75//75
f 77//77 79//79 78//78
f 77//77 80//80 79//79
f 81//81 79//79 80//80
f 81//81 80//80 82//82
f 83//83 81//81 82//82
f 83//83 82//82 84//84
f 85//85 83//83 84//84
f 85//85 84//84 86//86
f 87//87 85//85 86//86
f 87//87 88//88 85//85
f 89//89 88//88 87//87
f 89//89 87//87 90//90
f 91//91 89//89 90//90
f 91//91 90//90 92//92
f 93//93 91//91 92//92
f 93//93 94//94 91//91
f 95//95 94//94 93//93
f 95//95 96//96 94//94
f 97//97 96//96 95//95
f 97//97 98//98 96//96
f 99//99 98//98 97//97
f 99//99 97//97 100//100
f 101//101 77//77 78//78
f 101//101 102//102 77//77
f 103//103 105//105 104//104
f 103//103 106//106 105//105
