#Plane_d3.obj

v -3.764896 -0.07843395 3.263596
v -1.450884 -0.07843395 3.263596
v -1.787085 -1.691275 2.791174
v -4.081578 -1.691275 2.791174
v -1.114685 1.555614 2.870753
v -3.397607 1.555614 2.870753
v -0.7784843 2.777467 1.716839
v -3.017897 2.777467 1.716839
v -0.4422846 3.263047 0.1079102
v -2.743695 3.264788 0.001309395
v -2.407495 2.832026 -1.622622
v -0.1060834 2.883564 -1.529293
v -2.071295 1.648521 -2.815834
v 0.2301164 1.739668 -2.760529
v -1.735095 0.02817784 -3.261848
v 0.5663166 0.1347604 -3.259235
v -1.398895 -1.599235 -2.842363
v 0.9025159 -1.505486 -2.893137
v -1.062695 -2.802073 -1.668644
v 1.238717 -2.746025 -1.759338
v -0.7264938 -3.261306 -0.05199814
v 1.574918 -3.257823 -0.1585569
v -0.3902941 -2.855129 1.578788
v 1.911117 -2.905137 1.484627
v -0.05409431 -1.691275 2.791174
v 2.247317 -1.781508 2.734385
v 0.2821059 -0.07843395 3.263596
v 2.583517 -0.1849585 3.259243
v 0.6183066 1.555614 2.870753
v 2.919719 1.46105 2.919989
v 0.9545069 2.777467 1.716839
v 3.255919 2.719944 1.806604
v 1.290707 3.263047 0.1079102
v 3.592118 3.257824 0.2143974
v 1.626907 2.883564 -1.529293
v 3.954313 2.932026 -1.434328
v 3.954314 1.739668 -2.760529
v 1.963107 1.739668 -2.760529
v 3.954314 0.1347604 -3.259235
v 2.299307 0.1347604 -3.259235
v 2.928265 -1.505486 -2.893137
v 3.954314 -1.505486 -2.893137
v -4.476687 1.555614 2.870753
v -3.397607 1.555614 2.870753
v -3.764896 -0.07843395 3.263596
v -4.476687 -0.07843395 3.263596
v -4.476687 2.777467 1.716839
v -3.017897 2.777467 1.716839
v -4.476686 3.264788 0.001309395
v -2.743695 3.264788 0.001309395
v -4.140486 2.832026 -1.622622
v -2.407495 2.832026 -1.622622
v -3.804286 1.648521 -2.815834
v -2.071295 1.648521 -2.815834
v -3.468086 0.02817784 -3.261848
v -1.735095 0.02817784 -3.261848
v -3.131885 -1.599235 -2.842363
v -1.398895 -1.599235 -2.842363
v -2.795685 -2.802073 -1.668644
v -1.062695 -2.802073 -1.668644
v -2.459485 -3.261306 -0.05199814
v -0.7264938 -3.261306 -0.05199814
v -0.3902941 -2.855129 1.578788
v -2.123285 -2.855129 1.578788
v -1.787085 -1.691275 2.791174
v -0.05409431 -1.691275 2.791174
v 0.2821059 -0.07843395 3.263596
v -1.450884 -0.07843395 3.263596
v -1.114685 1.555614 2.870753
v 0.6183066 1.555614 2.870753
v 0.9545069 2.777467 1.716839
v -0.7784843 2.777467 1.716839
v 1.290707 3.263047 0.1079102
v -0.4422846 3.263047 0.1079102
v 1.626907 2.883564 -1.529293
v -0.1060834 2.883564 -1.529293
v 0.2301164 1.739668 -2.760529
v 1.963107 1.739668 -2.760529
v 0.5663166 0.1347604 -3.259235
v 2.299307 0.1347604 -3.259235
v 2.928265 -1.505486 -2.893137
v 0.9025159 -1.505486 -2.893137
v 3.954313 -2.746025 -1.759336
v 1.238717 -2.746025 -1.759338
v 3.954313 -3.257823 -0.1585569
v 1.574918 -3.257823 -0.1585569
v 3.954313 -2.905137 1.484626
v 1.911117 -2.905137 1.484627
v 3.954313 -1.781508 2.734385
v 2.247317 -1.781508 2.734385
v 3.954313 -0.1849585 3.259243
v 2.583517 -0.1849585 3.259243
v 3.954313 1.46105 2.919988
v 2.919719 1.46105 2.919989
v 3.954313 2.719944 1.806604
v 3.255919 2.719944 1.806604
v 3.954313 3.257823 0.2143974
v 3.592118 3.257824 0.2143974
v 3.954314 -1.505486 -2.893137
v 2.928265 -1.505486 -2.893137
v 3.954313 -2.746025 -1.759336
v 3.592118 3.257824 0.2143974
v 3.954313 2.932026 -1.434328
v 3.954313 3.257823 0.2143974
v -4.081578 -1.691275 2.791174
v -4.476687 -1.691274 2.791173
v -4.476687 -2.855129 1.578788
v -4.347688 -2.855129 1.578788
v -2.123285 -2.855129 1.578788
v -4.347688 -2.855129 1.578788
v -4.476686 -3.261306 -0.05199814
v -2.459485 -3.261306 -0.05199814
v -4.476686 -2.802073 -1.668644
v -2.795685 -2.802073 -1.668644
v -4.476686 -1.599235 -2.842363
v -3.131885 -1.599235 -2.842363
v -4.476686 0.02817784 -3.261847
v -3.468086 0.02817784 -3.261848
v -4.476686 1.648521 -2.815834
v -3.804286 1.648521 -2.815834
v -4.476686 2.832026 -1.622622
v -4.140486 2.832026 -1.622622
v -4.476686 -3.261306 -0.05199814
v -4.476687 -2.855129 1.578788
v -4.347688 -2.855129 1.578788
v -4.140486 2.832026 -1.622622
v -4.476686 3.264788 0.001309395
v -4.476686 2.832026 -1.622622
v -4.476686 -2.802073 -1.668644
v -4.476687 -2.855129 1.578788
v -4.476686 -3.261306 -0.05199814
v -4.476687 -1.691274 2.791173
v -4.476686 -1.599235 -2.842363
v -4.476686 0.02817784 -3.261847
v -4.476687 -0.07843395 3.263596
v -4.476687 1.555614 2.870753
v -4.476686 1.648521 -2.815834
v -4.476687 2.777467 1.716839
v -4.476686 2.832026 -1.622622
v -4.476686 3.264788 0.001309395
v 3.954313 -3.724854 1.903529
v 3.954313 -4.177056 -0.2032967
v 3.954313 -3.257823 -0.1585569
v 3.954313 -2.905137 1.484626
v 3.954313 -3.520847 -2.255756
v 3.954313 -2.746025 -1.759336
v 3.954314 -1.930277 -3.709471
v 3.954314 -1.505486 -2.893137
v 3.954314 0.1727847 -4.178867
v 3.954314 0.1347604 -3.259235
v 3.954314 2.230536 -3.539446
v 3.954314 1.739668 -2.760529
v 3.954313 3.759331 -1.839041
v 3.954313 2.932026 -1.434328
v 3.954313 4.177056 0.2748909
v 3.954313 3.257823 0.2143974
v 3.954313 3.487407 2.316359
v 3.954313 2.719944 1.806604
v 3.954313 1.873302 3.743895
v 3.954313 1.46105 2.919988
v 3.954313 -0.2371466 4.178875
v 3.954313 -0.1849585 3.259243
v 3.954313 -2.284181 3.505922
v 3.954313 -1.781508 2.734385
v 8.746824 -0.7377869 0.377038
v 3.954313 -3.724854 1.903529
v 3.954313 -2.284181 3.505922
v 8.746824 -0.4524308 0.6944256
v 9.310644 -0.002871306 0.003264427
v 8.746824 -0.3823325 -0.7347374
v 3.954314 -1.930277 -3.709471
v 3.954313 -3.520847 -2.255756
v 8.746824 -0.6973789 -0.4467983
v 9.310644 -0.002871306 0.003264427
v 8.746824 -0.6973789 -0.4467983
v 3.954313 -3.520847 -2.255756
v 3.954313 -4.177056 -0.2032967
v 8.746824 -0.8273551 -0.04026413
v 9.310644 -0.002871306 0.003264427
v 8.746824 0.6907551 0.458807
v 3.954313 3.487407 2.316359
v 3.954313 4.177056 0.2748909
v 8.746824 0.8273547 0.05445099
v 9.310644 -0.002871306 0.003264427
v 8.746824 -0.4524308 0.6944256
v 3.954313 -2.284181 3.505922
v 3.954313 -0.2371466 4.178875
v 8.746824 -0.04697204 0.8277187
v 9.310644 -0.002871306 0.003264427
v 8.746824 0.7446153 -0.3642578
v 3.954313 3.759331 -1.839041
v 3.954314 2.230536 -3.539446
v 8.746824 0.441805 -0.7010593
v 9.310644 -0.002871306 0.003264427
v 8.746824 -0.8273551 -0.04026413
v 3.954313 -4.177056 -0.2032967
v 3.954313 -3.724854 1.903529
v 8.746824 -0.7377869 0.377038
v 9.310644 -0.002871306 0.003264427
v 8.746824 0.8273547 0.05445099
v 3.954313 4.177056 0.2748909
v 3.954313 3.759331 -1.839041
v 8.746824 0.7446153 -0.3642578
v 9.310644 -0.002871306 0.003264427
v 8.746824 -0.04697204 0.8277187
v 3.954313 -0.2371466 4.178875
v 3.954313 1.873302 3.743895
v 8.746824 0.3710472 0.7415609
v 9.310644 -0.002871306 0.003264427
v 8.746824 0.441805 -0.7010593
v 3.954314 2.230536 -3.539446
v 3.954314 0.1727847 -4.178867
v 8.746824 0.03422356 -0.8277111
v 9.310644 -0.002871306 0.003264427
v 8.746824 0.03422356 -0.8277111
v 3.954314 0.1727847 -4.178867
v 3.954314 -1.930277 -3.709471
v 8.746824 -0.3823325 -0.7347374
v 9.310644 -0.002871306 0.003264427
v 8.746824 0.3710472 0.7415609
v 3.954313 1.873302 3.743895
v 3.954313 3.487407 2.316359
v 8.746824 0.6907551 0.458807
v 9.310644 -0.002871306 0.003264427

vn 0 -0.02450215 0.9996998
vn 0 -0.02450204 0.9996998
vn 0 -0.5187435 0.85493
vn 0 -0.5187434 0.85493
vn 0 0.4762379 0.8793165
vn 0 0.4762379 0.8793165
vn -0.001807247 0.8520643 0.523434
vn -0.001451099 0.8541269 0.5200625
vn -0.001449252 0.9995535 0.02984217
vn -0.001717507 0.9999508 0.00977259
vn 0 0.8695507 -0.4938436
vn 0 0.8811181 -0.4728964
vn 0 0.5084779 -0.861075
vn 0 0.5289352 -0.8486623
vn 0 0.01253943 -0.9999214
vn 0 0.03646127 -0.999335
vn 0 -0.4867249 -0.8735552
vn 0 -0.4656836 -0.8849513
vn 0 -0.8568934 -0.5154938
vn 0 -0.8443134 -0.5358497
vn 0 -0.9997856 -0.02070645
vn 0 -0.9990039 -0.04462304
vn 0 -0.877502 0.479573
vn 0 -0.8887259 0.458439
vn 0 -0.5224758 0.8526541
vn 0 -0.5427284 0.8399084
vn 0 -0.02887204 0.9995831
vn 0 -0.05278101 0.9986061
vn 0 0.4723895 0.8813899
vn 0 0.4511653 0.8924404
vn 0 0.8483581 0.5294228
vn 0 0.8354475 0.5495701
vn 0 0.999314 0.03703575
vn 0 0.998144 0.06089792
vn 0.001525882 0.8844695 -0.4665954
vn 0.003288691 0.8930048 -0.4500351
vn 0.003383547 0.5364563 -0.8439214
vn 0.001903411 0.5347889 -0.8449835
vn 0 0.04082947 -0.9991661
vn 0 0.04082946 -0.9991661
vn 0 -0.4618106 -0.8869786
vn 0 -0.4618107 -0.8869785
vn 0 0.4762379 0.8793165
vn 0 0.4762379 0.8793165
vn 0 -0.02450215 0.9996998
vn 0 -0.02450226 0.9996998
vn 0 0.85493 0.5187435
vn -0.001451099 0.8541269 0.5200625
vn 0 0.9999666 0.008167842
vn -0.001717507 0.9999508 0.00977259
vn 0 0.8673835 -0.4976403
vn 0 0.8695507 -0.4938436
vn 0 0.5047089 -0.8632895
vn 0 0.5084779 -0.861075
vn 0 0.008168191 -0.9999666
vn 0 0.01253943 -0.9999214
vn 0 -0.4905391 -0.8714192
vn 0 -0.4867249 -0.8735552
vn 0 -0.8591385 -0.511743
vn 0 -0.8568934 -0.5154938
vn 0 -0.9998666 -0.01633576
vn 0 -0.9997856 -0.02070645
vn 0 -0.877502 0.479573
vn 0 -0.8753973 0.4834043
vn 0 -0.5187435 0.85493
vn 0 -0.5224758 0.8526541
vn 0 -0.02887204 0.9995831
vn 0 -0.02450204 0.9996998
vn 0 0.4762379 0.8793165
vn 0 0.4723895 0.8813899
vn 0 0.8483581 0.5294228
vn -0.001807247 0.8520643 0.523434
vn 0 0.999314 0.03703575
vn -0.001449252 0.9995535 0.02984217
vn 0.001525882 0.8844695 -0.4665954
vn 0 0.8811181 -0.4728964
vn 0 0.5289352 -0.8486623
vn 0.001903411 0.5347889 -0.8449835
vn 0 0.03646127 -0.999335
vn 0 0.04082946 -0.9991661
vn 0 -0.4618106 -0.8869786
vn 0 -0.4656836 -0.8849513
vn 0 -0.8419629 -0.5395354
vn 0 -0.8443134 -0.5358497
vn 0 -0.9987993 -0.04898983
vn 0 -0.9990039 -0.04462304
vn 0 -0.8907214 0.4545494
vn 0 -0.8887259 0.458439
vn 0 -0.5463948 0.8375278
vn 0 -0.5427284 0.8399084
vn 0 -0.05714585 0.9983658
vn 0 -0.05278101 0.9986061
vn 0 0.4472598 0.8944041
vn 0 0.4511653 0.8924404
vn 0 0.8330371 0.5532172
vn 0 0.8354475 0.5495701
vn 0 0.9978657 0.06529931
vn 0 0.998144 0.06089792
vn 0 -0.4618107 -0.8869785
vn 0 -0.4618106 -0.8869786
vn 0 -0.8419629 -0.5395354
vn 0 0.998144 0.06089792
vn 0.003288691 0.8930048 -0.4500351
vn 0 0.9978657 0.06529931
vn 0 -0.5187434 0.85493
vn 0 -0.5187435 0.8549299
vn 0 -0.8753973 0.4834043
vn 0 -0.8753973 0.4834041
vn 0 -0.8753973 0.4834043
vn 0 -0.8753973 0.4834041
vn 0 -0.9998666 -0.01633584
vn 0 -0.9998666 -0.01633576
vn 0 -0.8591384 -0.5117431
vn 0 -0.8591385 -0.511743
vn 0 -0.490539 -0.8714193
vn 0 -0.4905391 -0.8714192
vn 0 0.008168112 -0.9999666
vn 0 0.008168191 -0.9999666
vn 0 0.5047087 -0.8632897
vn 0 0.5047089 -0.8632895
vn 0 0.8673833 -0.4976405
vn 0 0.8673835 -0.4976403
vn 0 -0.9998666 -0.01633584
vn 0 -0.8753973 0.4834043
vn 0 -0.8753973 0.4834041
vn 0 0.8673835 -0.4976403
vn 0 0.9999666 0.008167842
vn 0 0.8673833 -0.4976405
vn -1 0 0
vn -1 0 0
vn -1 0 0
vn -1 0 0
vn -1 0 0
vn -1 0 0
vn -1 0 0
vn -1 0 0
vn -1 0 0
vn -1 0 0
vn -1 0 0
vn -1 0 0
vn -1 0 0
vn -1 0 0
vn -1 0 0
vn -1 0 0
vn -1 0 0
vn -1 0 0
vn -1 0 0
vn -1 0 0
vn -1 0 0
vn -1 0 0
vn -1 0 0
vn -1 0 0
vn -1 0 0
vn -1 0 0
vn -1 0 0
vn -1 0 0
vn -1 0 0
vn -1 0 0
vn -1 0 0
vn -1 0 0
vn -1 0 0
vn -1 0 0
vn -1 0 0
vn -1 0 0
vn 0.6964784 -0.6391928 0.3261143
vn 0.5734341 -0.7297074 0.3724249
vn 0.573555 -0.4475542 0.6860976
vn 0.6965358 -0.3920436 0.600949
vn 0.9999974 -0.001704213 0.001531922
vn 0.6973524 -0.3308728 -0.635785
vn 0.5733045 -0.3783672 -0.7267463
vn 0.5732896 -0.6898679 -0.4420648
vn 0.6969502 -0.6037067 -0.3870383
vn 0.9999974 -0.001704213 0.001531922
vn 0.6969502 -0.6037067 -0.3870383
vn 0.5732896 -0.6898679 -0.4420648
vn 0.5733371 -0.8183371 -0.04011265
vn 0.6966302 -0.7165627 -0.03527303
vn 0.9999974 -0.001704213 0.001531922
vn 0.6975686 0.5969691 0.3962648
vn 0.573759 0.6822747 0.4531027
vn 0.5737135 0.8173064 0.05350843
vn 0.6978896 0.7146851 0.04664093
vn 0.9999974 -0.001704213 0.001531922
vn 0.6965358 -0.3920436 0.600949
vn 0.573555 -0.4475542 0.6860976
vn 0.5736678 -0.04677435 0.8177515
vn 0.6967877 -0.04090722 0.71611
vn 0.9999974 -0.001704213 0.001531922
vn 0.6975895 0.6407218 -0.320694
vn 0.5736055 0.7329063 -0.3658209
vn 0.5734805 0.4415552 -0.6900356
vn 0.6975307 0.3867751 -0.6032047
vn 0.9999974 -0.001704213 0.001531922
vn 0.6966302 -0.7165627 -0.03527303
vn 0.5733371 -0.8183371 -0.04011265
vn 0.5734341 -0.7297074 0.3724249
vn 0.6964784 -0.6391928 0.3261143
vn 0.9999974 -0.001704213 0.001531922
vn 0.6978896 0.7146851 0.04664093
vn 0.5737135 0.8173064 0.05350843
vn 0.5736055 0.7329063 -0.3658209
vn 0.6975895 0.6407218 -0.320694
vn 0.9999974 -0.001704213 0.001531922
vn 0.6967877 -0.04090722 0.71611
vn 0.5736678 -0.04677435 0.8177515
vn 0.5737422 0.3663363 0.7325419
vn 0.6971658 0.3207654 0.641147
vn 0.9999974 -0.001704213 0.001531922
vn 0.6975307 0.3867751 -0.6032047
vn 0.5734805 0.4415552 -0.6900356
vn 0.5733777 0.03348405 -0.8186066
vn 0.6977301 0.02933229 -0.7157601
vn 0.9999974 -0.001704213 0.001531922
vn 0.6977301 0.02933229 -0.7157601
vn 0.5733777 0.03348405 -0.8186066
vn 0.5733045 -0.3783672 -0.7267463
vn 0.6973524 -0.3308728 -0.635785
vn 0.9999974 -0.001704213 0.001531922
vn 0.6971658 0.3207654 0.641147
vn 0.5737422 0.3663363 0.7325419
vn 0.573759 0.6822747 0.4531027
vn 0.6975686 0.5969691 0.3962648
vn 0.9999974 -0.001704213 0.001531922

vt 0.4965529 0.2961813
vt 0.4960281 0.2960323
vt 0.4959961 0.2964352
vt 0.4965166 0.2965829
vt 0.49606 0.2956295
vt 0.4965778 0.2957765
vt 0.4960919 0.2952266
vt 0.4965999 0.2953708
vt 0.4961238 0.2948238
vt 0.4966525 0.2949486
vt 0.4966844 0.2945457
vt 0.4961557 0.2944209
vt 0.4967163 0.2941429
vt 0.4961876 0.2940181
vt 0.4967481 0.29374
vt 0.4962195 0.2936152
vt 0.49678 0.2933372
vt 0.4962513 0.2932123
vt 0.4968119 0.2929343
vt 0.4962832 0.2928095
vt 0.4968438 0.2925314
vt 0.4963151 0.2924066
vt 0.4968757 0.2921286
vt 0.496347 0.2920038
vt 0.4969075 0.2917257
vt 0.4963789 0.2916008
vt 0.4969394 0.2913229
vt 0.4964107 0.291198
vt 0.4969713 0.29092
vt 0.4964426 0.2907951
vt 0.4970032 0.2905171
vt 0.4964745 0.2903922
vt 0.4970351 0.2901142
vt 0.4965064 0.2899894
vt 0.4970669 0.2897114
vt 0.4965324 0.2895849
vt 0.4966472 0.2891803
vt 0.4970988 0.2893085
vt 0.4967554 0.2887991
vt 0.4971308 0.2889057
vt 0.4971627 0.2885028
vt 0.4968636 0.2884179
vt 0.4692847 0.2906155
vt 0.4692847 0.2906155
vt 0.4692847 0.2906155
vt 0.4692847 0.2906155
vt 0.4692847 0.2906155
vt 0.4692847 0.2906155
vt 0.4692847 0.2906155
vt 0.4692847 0.2906155
vt 0.4692847 0.2906155
vt 0.4692847 0.2906155
vt 0.4692847 0.2906155
vt 0.4692847 0.2906155
vt 0.4692847 0.2906155
vt 0.4692847 0.2906155
vt 0.4692847 0.2906155
vt 0.4692847 0.2906155
vt 0.4692847 0.2906155
vt 0.4692847 0.2906155
vt 0.4692847 0.2906155
vt 0.4692847 0.2906155
vt 0.4692847 0.2906155
vt 0.4692847 0.2906155
vt 0.4692847 0.2906155
vt 0.4692847 0.2906155
vt 0.4692847 0.2906155
vt 0.4692847 0.2906155
vt 0.4692847 0.2906155
vt 0.4692847 0.2906155
vt 0.4692847 0.2906155
vt 0.4692847 0.2906155
vt 0.4692847 0.2906155
vt 0.4692847 0.2906155
vt 0.4692847 0.2906155
vt 0.4692847 0.2906155
vt 0.4692847 0.2906155
vt 0.4692847 0.2906155
vt 0.4692847 0.2906155
vt 0.4692847 0.2906155
vt 0.4692847 0.2906155
vt 0.4692847 0.2906155
vt 0.4692847 0.2906155
vt 0.4692847 0.2906155
vt 0.4692847 0.2906155
vt 0.4692847 0.2906155
vt 0.4692847 0.2906155
vt 0.4692847 0.2906155
vt 0.4692847 0.2906155
vt 0.4692847 0.2906155
vt 0.4692847 0.2906155
vt 0.4692847 0.2906155
vt 0.4692847 0.2906155
vt 0.4692847 0.2906155
vt 0.4692847 0.2906155
vt 0.4692847 0.2906155
vt 0.4692847 0.2906155
vt 0.4692847 0.2906155
vt 0.4987895 0.2937627
vt 0.4987895 0.2937627
vt 0.4987895 0.2937627
vt 0.4745039 0.2820869
vt 0.4745039 0.2820869
vt 0.4745039 0.2820869
vt 0.4692847 0.2906155
vt 0.4692847 0.2906155
vt 0.4692847 0.2906155
vt 0.4692847 0.2906155
vt 0.4959642 0.2968381
vt 0.4964688 0.2969813
vt 0.4963899 0.2973708
vt 0.4959323 0.2972409
vt 0.4962817 0.2977521
vt 0.4959004 0.2976438
vt 0.4961735 0.2981333
vt 0.4958684 0.2980467
vt 0.4960653 0.2985145
vt 0.4958365 0.2984495
vt 0.4959571 0.2988957
vt 0.4958046 0.2988524
vt 0.4958489 0.2992769
vt 0.4957727 0.2992553
vt 0.4748034 0.2926713
vt 0.4748034 0.2926713
vt 0.4748034 0.2926713
vt 0.4936346 0.3002585
vt 0.4936346 0.3002585
vt 0.4936346 0.3002585
vt 0.4731696 0.2887996
vt 0.4731696 0.2887996
vt 0.4731696 0.2887996
vt 0.4731696 0.2887996
vt 0.4731696 0.2887996
vt 0.4731696 0.2887996
vt 0.4731696 0.2887996
vt 0.4731696 0.2887996
vt 0.4731696 0.2887996
vt 0.4731696 0.2887996
vt 0.4731696 0.2887996
vt 0.4731696 0.2887996
vt 0.4862313 0.3355987
vt 0.4862522 0.3330381
vt 0.485193 0.3333106
vt 0.4851767 0.3353078
vt 0.4849961 0.3308066
vt 0.4842134 0.3315703
vt 0.4827961 0.3294962
vt 0.4824975 0.3305483
vt 0.4802357 0.3294544
vt 0.4805006 0.3305156
vt 0.4779941 0.3306922
vt 0.4787523 0.3314811
vt 0.4766226 0.3330381
vt 0.4776826 0.3333106
vt 0.4766435 0.3355987
vt 0.4776989 0.3353078
vt 0.4779359 0.3378094
vt 0.4787069 0.337032
vt 0.480157 0.3390837
vt 0.4804392 0.3380258
vt 0.4827178 0.3390837
vt 0.4824364 0.3380258
vt 0.4849389 0.3378093
vt 0.4841687 0.337032
vt 0.4622991 0.3126548
vt 0.4592031 0.3121935
vt 0.4592031 0.3133466
vt 0.4622991 0.3128831
vt 0.4628213 0.312769
vt 0.4737208 0.2796309
vt 0.468743 0.2788873
vt 0.468743 0.2807414
vt 0.4737208 0.2799982
vt 0.4745634 0.2798183
vt 0.4622987 0.3115
vt 0.4592031 0.311038
vt 0.4592031 0.3121911
vt 0.4622987 0.3117283
vt 0.4628217 0.3116162
vt 0.4622998 0.3080343
vt 0.4592031 0.3075716
vt 0.4592031 0.3087246
vt 0.4622998 0.3082627
vt 0.4628248 0.3081465
vt 0.4737221 0.2814871
vt 0.468743 0.2807453
vt 0.468743 0.2825994
vt 0.4737221 0.2818544
vt 0.4745622 0.2816688
vt 0.4622949 0.3068373
vt 0.4592031 0.3063456
vt 0.4592031 0.3075691
vt 0.4622949 0.3070796
vt 0.4628193 0.3069585
vt 0.4737211 0.2833454
vt 0.468743 0.2826034
vt 0.468743 0.2844575
vt 0.4737211 0.2837126
vt 0.4745612 0.2835309
vt 0.4676298 0.2760165
vt 0.466885 0.2809958
vt 0.4687391 0.2809958
vt 0.467997 0.2760165
vt 0.4678115 0.2751712
vt 0.4622997 0.3103442
vt 0.4592031 0.3098826
vt 0.4592031 0.3110356
vt 0.4622997 0.3105726
vt 0.4628228 0.3104564
vt 0.4737213 0.2759162
vt 0.468743 0.2751712
vt 0.468743 0.2770253
vt 0.4737213 0.2762835
vt 0.4745667 0.2761018
vt 0.4622987 0.3091901
vt 0.4592031 0.3087271
vt 0.4592031 0.3098801
vt 0.4622987 0.3094184
vt 0.4628237 0.3093063
vt 0.4737227 0.2777724
vt 0.468743 0.2770292
vt 0.468743 0.2788833
vt 0.4737227 0.2781397
vt 0.4745654 0.2779523

g Plane_d3
usemtl Plane_d3
usemap Plane_d3
f 1/1/1 3/3/3 2/2/2
f 1/1/1 4/4/4 3/3/3
f 5/5/5 1/1/1 2/2/2
f 5/5/5 6/6/6 1/1/1
f 6/6/6 5/5/5 7/7/7
f 6/6/6 7/7/7 8/8/8
f 8/8/8 7/7/7 9/9/9
f 8/8/8 9/9/9 10/10/10
f 11/11/11 10/10/10 9/9/9
f 11/11/11 9/9/9 12/12/12
f 13/13/13 11/11/11 12/12/12
f 13/13/13 12/12/12 14/14/14
f 15/15/15 13/13/13 14/14/14
f 15/15/15 14/14/14 16/16/16
f 17/17/17 15/15/15 16/16/16
f 17/17/17 16/16/16 18/18/18
f 19/19/19 17/17/17 18/18/18
f 19/19/19 18/18/18 20/20/20
f 21/21/21 19/19/19 20/20/20
f 21/21/21 20/20/20 22/22/22
f 23/23/23 21/21/21 22/22/22
f 23/23/23 22/22/22 24/24/24
f 25/25/25 23/23/23 24/24/24
f 25/25/25 24/24/24 26/26/26
f 27/27/27 25/25/25 26/26/26
f 27/27/27 26/26/26 28/28/28
f 29/29/29 27/27/27 28/28/28
f 29/29/29 28/28/28 30/30/30
f 31/31/31 29/29/29 30/30/30
f 31/31/31 30/30/30 32/32/32
f 33/33/33 31/31/31 32/32/32
f 33/33/33 32/32/32 34/34/34
f 35/35/35 33/33/33 34/34/34
f 35/35/35 34/34/34 36/36/36
f 35/35/35 36/36/36 37/37/37
f 35/35/35 37/37/37 38/38/38
f 39/39/39 38/38/38 37/37/37
f 39/39/39 40/40/40 38/38/38
f 40/40/40 39/39/39 41/41/41
f 39/39/39 42/42/42 41/41/41
f 43/43/43 45/45/45 44/44/44
f 43/43/43 46/46/46 45/45/45
f 47/47/47 43/43/43 44/44/44
f 47/47/47 44/44/44 48/48/48
f 49/49/49 47/47/47 48/48/48
f 49/49/49 48/48/48 50/50/50
f 51/51/51 49/49/49 50/50/50
f 51/51/51 50/50/50 52/52/52
f 53/53/53 51/51/51 52/52/52
f 53/53/53 52/52/52 54/54/54
f 55/55/55 53/53/53 54/54/54
f 55/55/55 54/54/54 56/56/56
f 57/57/57 55/55/55 56/56/56
f 57/57/57 56/56/56 58/58/58
f 59/59/59 57/57/57 58/58/58
f 59/59/59 58/58/58 60/60/60
f 61/61/61 59/59/59 60/60/60
f 61/61/61 60/60/60 62/62/62
f 61/61/61 62/62/62 63/63/63
f 61/61/61 63/63/63 64/64/64
f 65/65/65 64/64/64 63/63/63
f 65/65/65 63/63/63 66/66/66
f 65/65/65 66/66/66 67/67/67
f 65/65/65 67/67/67 68/68/68
f 69/69/69 68/68/68 67/67/67
f 69/69/69 67/67/67 70/70/70
f 69/69/69 70/70/70 71/71/71
f 69/69/69 71/71/71 72/72/72
f 72/72/72 71/71/71 73/73/73
f 72/72/72 73/73/73 74/74/74
f 74/74/74 73/73/73 75/75/75
f 74/74/74 75/75/75 76/76/76
f 77/77/77 76/76/76 75/75/75
f 77/77/77 75/75/75 78/78/78
f 79/79/79 77/77/77 78/78/78
f 79/79/79 78/78/78 80/80/80
f 79/79/79 80/80/80 81/81/81
f 82/82/82 79/79/79 81/81/81
f 82/82/82 81/81/81 83/83/83
f 84/84/84 82/82/82 83/83/83
f 84/84/84 83/83/83 85/85/85
f 84/84/84 85/85/85 86/86/86
f 86/86/86 85/85/85 87/87/87
f 86/86/86 87/87/87 88/88/88
f 88/88/88 87/87/87 89/89/89
f 88/88/88 89/89/89 90/90/90
f 90/90/90 89/89/89 91/91/91
f 90/90/90 91/91/91 92/92/92
f 92/92/92 91/91/91 93/93/93
f 92/92/92 93/93/93 94/94/94
f 94/94/94 93/93/93 95/95/95
f 94/94/94 95/95/95 96/96/96
f 96/96/96 95/95/95 97/97/97
f 96/96/96 97/97/97 98/98/98
f 99/99/99 101/101/101 100/100/100
f 102/102/102 104/104/104 103/103/103
f 45/45/45 106/106/106 105/105/105
f 45/45/45 46/46/46 106/106/106
f 105/105/105 106/106/106 107/107/107
f 105/105/105 107/107/107 108/108/108
f 3/3/3 110/110/110 109/109/109
f 3/3/3 4/4/4 110/110/110
f 111/111/111 109/109/109 110/110/110
f 111/111/111 112/112/112 109/109/109
f 113/113/113 112/112/112 111/111/111
f 113/113/113 114/114/114 112/112/112
f 115/115/115 114/114/114 113/113/113
f 115/115/115 116/116/116 114/114/114
f 117/117/117 116/116/116 115/115/115
f 117/117/117 118/118/118 116/116/116
f 119/119/119 118/118/118 117/117/117
f 119/119/119 120/120/120 118/118/118
f 121/121/121 120/120/120 119/119/119
f 121/121/121 122/122/122 120/120/120
f 123/123/123 125/125/125 124/124/124
f 126/126/126 128/128/128 127/127/127
f 129/129/129 131/131/131 130/130/130
f 130/130/130 132/132/132 129/129/129
f 132/132/132 133/133/133 129/129/129
f 134/134/134 133/133/133 132/132/132
f 134/134/134 132/132/132 135/135/135
f 135/135/135 136/136/136 134/134/134
f 134/134/134 135/135/135 136/136/136
f 134/134/134 136/136/136 137/137/137
f 136/136/136 138/138/138 137/137/137
f 138/138/138 139/139/139 137/137/137
f 138/138/138 140/140/140 139/139/139
f 141/141/141 143/143/143 142/142/142
f 141/141/141 144/144/144 143/143/143
f 145/145/145 142/142/142 143/143/143
f 145/145/145 143/143/143 146/146/146
f 147/147/147 145/145/145 146/146/146
f 147/147/147 146/146/146 148/148/148
f 149/149/149 147/147/147 148/148/148
f 149/149/149 148/148/148 150/150/150
f 151/151/151 149/149/149 150/150/150
f 151/151/151 150/150/150 152/152/152
f 153/153/153 151/151/151 152/152/152
f 153/153/153 152/152/152 154/154/154
f 155/155/155 153/153/153 154/154/154
f 155/155/155 154/154/154 156/156/156
f 157/157/157 155/155/155 156/156/156
f 157/157/157 156/156/156 158/158/158
f 159/159/159 157/157/157 158/158/158
f 159/159/159 158/158/158 160/160/160
f 161/161/161 159/159/159 160/160/160
f 161/161/161 160/160/160 162/162/162
f 163/163/163 161/161/161 162/162/162
f 163/163/163 162/162/162 164/164/164
f 163/163/163 164/164/164 144/144/144
f 163/163/163 144/144/144 141/141/141
f 165/165/165 167/167/167 166/166/166
f 165/165/165 168/168/168 167/167/167
f 165/165/165 169/169/169 168/168/168
f 170/170/170 172/172/172 171/171/171
f 170/170/170 173/173/173 172/172/172
f 170/170/170 174/174/174 173/173/173
f 175/175/175 177/177/177 176/176/176
f 175/175/175 178/178/178 177/177/177
f 175/175/175 179/179/179 178/178/178
f 180/180/180 182/182/182 181/181/181
f 180/180/180 183/183/183 182/182/182
f 180/180/180 184/184/184 183/183/183
f 185/185/185 187/187/187 186/186/186
f 185/185/185 188/188/188 187/187/187
f 185/185/185 189/189/189 188/188/188
f 190/190/190 192/192/192 191/191/191
f 190/190/190 193/193/193 192/192/192
f 190/190/190 194/194/194 193/193/193
f 195/195/195 197/197/197 196/196/196
f 195/195/195 198/198/198 197/197/197
f 195/195/195 199/199/199 198/198/198
f 200/200/200 202/202/202 201/201/201
f 200/200/200 203/203/203 202/202/202
f 200/200/200 204/204/204 203/203/203
f 205/205/205 207/207/207 206/206/206
f 205/205/205 208/208/208 207/207/207
f 205/205/205 209/209/209 208/208/208
f 210/210/210 212/212/212 211/211/211
f 210/210/210 213/213/213 212/212/212
f 210/210/210 214/214/214 213/213/213
f 215/215/215 217/217/217 216/216/216
f 215/215/215 218/218/218 217/217/217
f 215/215/215 219/219/219 218/218/218
f 220/220/220 222/222/222 221/221/221
f 220/220/220 223/223/223 222/222/222
f 220/220/220 224/224/224 223/223/223
