#PolySphereSmall.obj

v 0.07071067 0 0.07071067
v 0 0 0.09999999
v 0 0.07071067 0.07071067
v 0.09999999 0 0
v 0.07071067 0 0.07071067
v 0.07071067 0.07071067 0
v 0.07071067 0.07071067 0
v 0.07071067 0 0.07071067
v 0 0.07071067 0.07071067
v 0.07071067 0.07071067 0
v 0 0.07071067 0.07071067
v 0 0.09999999 0
v 0 0.07071067 0.07071067
v 0 0 0.09999999
v -0.07071067 0 0.07071067
v 0 0.09999999 0
v 0 0.07071067 0.07071067
v -0.07071067 0.07071067 0
v -0.07071067 0.07071067 0
v 0 0.07071067 0.07071067
v -0.07071067 0 0.07071067
v -0.07071067 0.07071067 0
v -0.07071067 0 0.07071067
v -0.09999999 0 0
v -0.07071067 0 0.07071067
v 0 0 0.09999999
v 0 -0.07071067 0.07071067
v -0.09999999 0 0
v -0.07071067 0 0.07071067
v -0.07071067 -0.07071067 0
v -0.07071067 -0.07071067 0
v -0.07071067 0 0.07071067
v 0 -0.07071067 0.07071067
v -0.07071067 -0.07071067 0
v 0 -0.07071067 0.07071067
v 0 -0.09999999 0
v 0 -0.07071067 0.07071067
v 0 0 0.09999999
v 0.07071067 0 0.07071067
v 0 -0.09999999 0
v 0 -0.07071067 0.07071067
v 0.07071067 -0.07071067 0
v 0.07071067 -0.07071067 0
v 0 -0.07071067 0.07071067
v 0.07071067 0 0.07071067
v 0.07071067 -0.07071067 0
v 0.07071067 0 0.07071067
v 0.09999999 0 0
v 0 0.07071067 -0.07071067
v 0 0 -0.09999999
v 0.07071067 0 -0.07071067
v 0 0.09999999 0
v 0 0.07071067 -0.07071067
v 0.07071067 0.07071067 0
v 0.07071067 0.07071067 0
v 0 0.07071067 -0.07071067
v 0.07071067 0 -0.07071067
v 0.07071067 0.07071067 0
v 0.07071067 0 -0.07071067
v 0.09999999 0 0
v -0.07071067 0 -0.07071067
v 0 0 -0.09999999
v 0 0.07071067 -0.07071067
v -0.09999999 0 0
v -0.07071067 0 -0.07071067
v -0.07071067 0.07071067 0
v -0.07071067 0.07071067 0
v -0.07071067 0 -0.07071067
v 0 0.07071067 -0.07071067
v -0.07071067 0.07071067 0
v 0 0.07071067 -0.07071067
v 0 0.09999999 0
v 0 -0.07071067 -0.07071067
v 0 0 -0.09999999
v -0.07071067 0 -0.07071067
v 0 -0.09999999 0
v 0 -0.07071067 -0.07071067
v -0.07071067 -0.07071067 0
v -0.07071067 -0.07071067 0
v 0 -0.07071067 -0.07071067
v -0.07071067 0 -0.07071067
v -0.07071067 -0.07071067 0
v -0.07071067 0 -0.07071067
v -0.09999999 0 0
v 0.07071067 0 -0.07071067
v 0 0 -0.09999999
v 0 -0.07071067 -0.07071067
v 0.09999999 0 0
v 0.07071067 0 -0.07071067
v 0.07071067 -0.07071067 0
v 0.07071067 -0.07071067 0
v 0.07071067 0 -0.07071067
v 0 -0.07071067 -0.07071067
v 0.07071067 -0.07071067 0
v 0 -0.07071067 -0.07071067
v 0 -0.09999999 0

vn 0.3574067 0.3574067 0.8628562
vn 0.3574067 0.3574067 0.8628562
vn 0.3574067 0.3574067 0.8628562
vn 0.8628562 0.3574067 0.3574067
vn 0.8628562 0.3574067 0.3574067
vn 0.8628562 0.3574067 0.3574067
vn 0.5773503 0.5773503 0.5773503
vn 0.5773503 0.5773503 0.5773503
vn 0.5773503 0.5773503 0.5773503
vn 0.3574067 0.8628562 0.3574067
vn 0.3574067 0.8628562 0.3574067
vn 0.3574067 0.8628562 0.3574067
vn -0.3574067 0.3574067 0.8628562
vn -0.3574067 0.3574067 0.8628562
vn -0.3574067 0.3574067 0.8628562
vn -0.3574067 0.8628562 0.3574067
vn -0.3574067 0.8628562 0.3574067
vn -0.3574067 0.8628562 0.3574067
vn -0.5773503 0.5773503 0.5773503
vn -0.5773503 0.5773503 0.5773503
vn -0.5773503 0.5773503 0.5773503
vn -0.8628562 0.3574067 0.3574067
vn -0.8628562 0.3574067 0.3574067
vn -0.8628562 0.3574067 0.3574067
vn -0.3574067 -0.3574067 0.8628562
vn -0.3574067 -0.3574067 0.8628562
vn -0.3574067 -0.3574067 0.8628562
vn -0.8628562 -0.3574067 0.3574067
vn -0.8628562 -0.3574067 0.3574067
vn -0.8628562 -0.3574067 0.3574067
vn -0.5773503 -0.5773503 0.5773503
vn -0.5773503 -0.5773503 0.5773503
vn -0.5773503 -0.5773503 0.5773503
vn -0.3574067 -0.8628562 0.3574067
vn -0.3574067 -0.8628562 0.3574067
vn -0.3574067 -0.8628562 0.3574067
vn 0.3574067 -0.3574067 0.8628562
vn 0.3574067 -0.3574067 0.8628562
vn 0.3574067 -0.3574067 0.8628562
vn 0.3574067 -0.8628562 0.3574067
vn 0.3574067 -0.8628562 0.3574067
vn 0.3574067 -0.8628562 0.3574067
vn 0.5773503 -0.5773503 0.5773503
vn 0.5773503 -0.5773503 0.5773503
vn 0.5773503 -0.5773503 0.5773503
vn 0.8628562 -0.3574067 0.3574067
vn 0.8628562 -0.3574067 0.3574067
vn 0.8628562 -0.3574067 0.3574067
vn 0.3574067 0.3574067 -0.8628562
vn 0.3574067 0.3574067 -0.8628562
vn 0.3574067 0.3574067 -0.8628562
vn 0.3574067 0.8628562 -0.3574067
vn 0.3574067 0.8628562 -0.3574067
vn 0.3574067 0.8628562 -0.3574067
vn 0.5773503 0.5773503 -0.5773503
vn 0.5773503 0.5773503 -0.5773503
vn 0.5773503 0.5773503 -0.5773503
vn 0.8628562 0.3574067 -0.3574067
vn 0.8628562 0.3574067 -0.3574067
vn 0.8628562 0.3574067 -0.3574067
vn -0.3574067 0.3574067 -0.8628562
vn -0.3574067 0.3574067 -0.8628562
vn -0.3574067 0.3574067 -0.8628562
vn -0.8628562 0.3574067 -0.3574067
vn -0.8628562 0.3574067 -0.3574067
vn -0.8628562 0.3574067 -0.3574067
vn -0.5773503 0.5773503 -0.5773503
vn -0.5773503 0.5773503 -0.5773503
vn -0.5773503 0.5773503 -0.5773503
vn -0.3574067 0.8628562 -0.3574067
vn -0.3574067 0.8628562 -0.3574067
vn -0.3574067 0.8628562 -0.3574067
vn -0.3574067 -0.3574067 -0.8628562
vn -0.3574067 -0.3574067 -0.8628562
vn -0.3574067 -0.3574067 -0.8628562
vn -0.3574067 -0.8628562 -0.3574067
vn -0.3574067 -0.8628562 -0.3574067
vn -0.3574067 -0.8628562 -0.3574067
vn -0.5773503 -0.5773503 -0.5773503
vn -0.5773503 -0.5773503 -0.5773503
vn -0.5773503 -0.5773503 -0.5773503
vn -0.8628562 -0.3574067 -0.3574067
vn -0.8628562 -0.3574067 -0.3574067
vn -0.8628562 -0.3574067 -0.3574067
vn 0.3574067 -0.3574067 -0.8628562
vn 0.3574067 -0.3574067 -0.8628562
vn 0.3574067 -0.3574067 -0.8628562
vn 0.8628562 -0.3574067 -0.3574067
vn 0.8628562 -0.3574067 -0.3574067
vn 0.8628562 -0.3574067 -0.3574067
vn 0.5773503 -0.5773503 -0.5773503
vn 0.5773503 -0.5773503 -0.5773503
vn 0.5773503 -0.5773503 -0.5773503
vn 0.3574067 -0.8628562 -0.3574067
vn 0.3574067 -0.8628562 -0.3574067
vn 0.3574067 -0.8628562 -0.3574067

vt 0.5 0.75
vt 0.625 1
vt 0.75 0.75
vt 0.5 0.5
vt 0.5 0.75
vt 0.625 0.5
vt 0.625 0.5
vt 0.5 0.75
vt 0.75 0.75
vt 0.625 0.5
vt 0.75 0.75
vt 0.75 0.5
vt 0.75 0.75
vt 0.875 1
vt 1 0.75
vt 0.75 0.5
vt 0.75 0.75
vt 0.875 0.5
vt 0.875 0.5
vt 0.75 0.75
vt 1 0.75
vt 0.875 0.5
vt 1 0.75
vt 1 0.5
vt 0 0.75
vt 0.125 1
vt 0.25 0.75
vt 0 0.5
vt 0 0.75
vt 0.125 0.5
vt 0.125 0.5
vt 0 0.75
vt 0.25 0.75
vt 0.125 0.5
vt 0.25 0.75
vt 0.25 0.5
vt 0.25 0.75
vt 0.375 1
vt 0.5 0.75
vt 0.25 0.5
vt 0.25 0.75
vt 0.375 0.5
vt 0.375 0.5
vt 0.25 0.75
vt 0.5 0.75
vt 0.375 0.5
vt 0.5 0.75
vt 0.5 0.5
vt 0.75 0.25
vt 0.625 0
vt 0.5 0.25
vt 0.75 0.5
vt 0.75 0.25
vt 0.625 0.5
vt 0.625 0.5
vt 0.75 0.25
vt 0.5 0.25
vt 0.625 0.5
vt 0.5 0.25
vt 0.5 0.5
vt 1 0.25
vt 0.875 0
vt 0.75 0.25
vt 1 0.5
vt 1 0.25
vt 0.875 0.5
vt 0.875 0.5
vt 1 0.25
vt 0.75 0.25
vt 0.875 0.5
vt 0.75 0.25
vt 0.75 0.5
vt 0.25 0.25
vt 0.125 0
vt 0 0.25
vt 0.25 0.5
vt 0.25 0.25
vt 0.125 0.5
vt 0.125 0.5
vt 0.25 0.25
vt 0 0.25
vt 0.125 0.5
vt 0 0.25
vt 0 0.5
vt 0.5 0.25
vt 0.375 0
vt 0.25 0.25
vt 0.5 0.5
vt 0.5 0.25
vt 0.375 0.5
vt 0.375 0.5
vt 0.5 0.25
vt 0.25 0.25
vt 0.375 0.5
vt 0.25 0.25
vt 0.25 0.5

g PolySphereSmall
usemtl PolySphereSmall
usemap PolySphereSmall
f 1/1/1 3/3/3 2/2/2
f 4/4/4 6/6/6 5/5/5
f 7/7/7 9/9/9 8/8/8
f 10/10/10 12/12/12 11/11/11
f 13/13/13 15/15/15 14/14/14
f 16/16/16 18/18/18 17/17/17
f 19/19/19 21/21/21 20/20/20
f 22/22/22 24/24/24 23/23/23
f 25/25/25 27/27/27 26/26/26
f 28/28/28 30/30/30 29/29/29
f 31/31/31 33/33/33 32/32/32
f 34/34/34 36/36/36 35/35/35
f 37/37/37 39/39/39 38/38/38
f 40/40/40 42/42/42 41/41/41
f 43/43/43 45/45/45 44/44/44
f 46/46/46 48/48/48 47/47/47
f 49/49/49 51/51/51 50/50/50
f 52/52/52 54/54/54 53/53/53
f 55/55/55 57/57/57 56/56/56
f 58/58/58 60/60/60 59/59/59
f 61/61/61 63/63/63 62/62/62
f 64/64/64 66/66/66 65/65/65
f 67/67/67 69/69/69 68/68/68
f 70/70/70 72/72/72 71/71/71
f 73/73/73 75/75/75 74/74/74
f 76/76/76 78/78/78 77/77/77
f 79/79/79 81/81/81 80/80/80
f 82/82/82 84/84/84 83/83/83
f 85/85/85 87/87/87 86/86/86
f 88/88/88 90/90/90 89/89/89
f 91/91/91 93/93/93 92/92/92
f 94/94/94 96/96/96 95/95/95
