#PolyTiltedTube01.obj

v 0.5703669 0.1134531 0.2934249
v 0.5815411 -2.772318E-08 0.2934249
v 0.3199999 0 0
v 0.3138511 0.0624289 0
v 0.3138512 -0.06242842 0
v 0.570367 -0.1134522 0.2934249
v 0.5815411 -2.772318E-08 0.2934249
v 0.3199999 0 0
v 0.2956415 -0.1224583 0
v 0.5372743 -0.2225454 0.2934249
v 0.2660704 -0.1777821 0
v 0.4835342 -0.3230864 0.2934249
v 0.2262743 -0.2262739 0
v 0.4112121 -0.4112113 0.2934249
v 0.1777827 -0.2660701 0
v 0.3230874 -0.4835335 0.2934249
v 0.1224589 -0.2956413 0
v 0.2225466 -0.5372738 0.2934249
v 0.06242912 -0.3138512 0
v 0.1134535 -0.570367 0.2934249
v 1.907349E-07 -0.32 0
v 3.612234E-07 -0.5815413 0.2934249
v -0.06242875 -0.3138513 0
v -0.1134528 -0.5703672 0.2934249
v -0.1224586 -0.2956415 0
v -0.222546 -0.5372743 0.2934249
v -0.1777824 -0.2660704 0
v -0.3230869 -0.4835342 0.2934249
v -0.2262741 -0.2262743 0
v -0.4112117 -0.411212 0.2934249
v -0.2660703 -0.1777826 0
v -0.4835339 -0.3230873 0.2934249
v -0.2956415 -0.1224588 0
v -0.5372742 -0.2225465 0.2934249
v -0.3138514 -0.06242903 0
v -0.5703672 -0.1134533 0.2934249
v -0.3200001 -1.042692E-07 0
v -0.5815414 -2.172134E-07 0.2934249
v -0.3138514 0.06242882 0
v -0.5703673 0.1134529 0.2934249
v -0.2956416 0.1224586 0
v -0.5372743 0.2225461 0.2934249
v -0.2660704 0.1777825 0
v -0.4835341 0.323087 0.2934249
v -0.2262743 0.2262742 0
v -0.411212 0.4112118 0.2934249
v -0.1777826 0.2660703 0
v -0.3230872 0.4835339 0.2934249
v -0.1224588 0.2956415 0
v -0.2225463 0.5372741 0.2934249
v -0.06242898 0.3138513 0
v -0.1134532 0.570367 0.2934249
v -9.536743E-08 0.32 0
v -1.58715E-07 0.5815413 0.2934249
v 0.06242879 0.3138513 0
v 0.1134529 0.570367 0.2934249
v 0.1224586 0.2956414 0
v 0.2225459 0.5372741 0.2934249
v 0.1777823 0.2660703 0
v 0.3230868 0.4835339 0.2934249
v 0.226274 0.2262742 0
v 0.4112116 0.4112118 0.2934249
v 0.2660701 0.1777825 0
v 0.4835337 0.323087 0.2934249
v 0.2956413 0.1224587 0
v 0.5372739 0.2225462 0.2934249
v 0.3138511 0.0624289 0
v 0.5372739 0.2225462 0.2934249
v 0.5703669 0.1134531 0.2934249

vn -0.7321565 -0.145635 0.6653851
vn -0.7465002 0 0.6653851
vn -0.7465002 0 0.6653852
vn -0.7321566 -0.145635 0.665385
vn -0.7321567 0.1456342 0.6653851
vn -0.7321567 0.1456341 0.6653851
vn -0.7465002 0 0.6653851
vn -0.7465002 0 0.6653852
vn -0.6896769 0.2856719 0.6653851
vn -0.6896769 0.285672 0.6653851
vn -0.6206928 0.4147326 0.6653851
vn -0.6206928 0.4147326 0.6653851
vn -0.5278561 0.5278548 0.6653851
vn -0.527856 0.5278549 0.6653851
vn -0.4147341 0.6206918 0.6653851
vn -0.4147341 0.6206918 0.6653851
vn -0.2856741 0.689676 0.6653851
vn -0.2856741 0.689676 0.6653852
vn -0.1456359 0.7321562 0.6653852
vn -0.1456359 0.7321562 0.6653852
vn 0 0.7465001 0.6653852
vn 0 0.7465001 0.6653852
vn 0.1456344 0.7321566 0.6653852
vn 0.1456344 0.7321565 0.6653852
vn 0.2856725 0.6896765 0.6653852
vn 0.2856725 0.6896765 0.6653852
vn 0.4147328 0.6206924 0.6653852
vn 0.4147328 0.6206924 0.6653852
vn 0.527855 0.5278557 0.6653852
vn 0.527855 0.5278556 0.6653852
vn 0.6206918 0.4147338 0.6653853
vn 0.6206918 0.4147338 0.6653853
vn 0.689676 0.2856736 0.6653852
vn 0.689676 0.2856735 0.6653852
vn 0.7321563 0.145635 0.6653852
vn 0.7321563 0.145635 0.6653852
vn 0.7465001 0 0.6653852
vn 0.7465001 0 0.6653852
vn 0.7321564 -0.1456346 0.6653853
vn 0.7321564 -0.1456346 0.6653853
vn 0.6896763 -0.2856731 0.6653853
vn 0.6896762 -0.285673 0.6653853
vn 0.6206922 -0.4147331 0.6653853
vn 0.6206922 -0.4147331 0.6653853
vn 0.5278553 -0.5278552 0.6653853
vn 0.5278553 -0.5278553 0.6653853
vn 0.4147332 -0.6206923 0.6653853
vn 0.4147332 -0.6206922 0.6653853
vn 0.2856729 -0.6896763 0.6653852
vn 0.2856729 -0.6896763 0.6653852
vn 0.1456349 -0.7321565 0.6653851
vn 0.1456349 -0.7321565 0.6653851
vn 0 -0.7465003 0.6653851
vn 0 -0.7465003 0.6653851
vn -0.1456351 -0.7321565 0.6653851
vn -0.1456351 -0.7321565 0.6653851
vn -0.2856731 -0.6896763 0.6653851
vn -0.2856731 -0.6896765 0.6653851
vn -0.4147333 -0.6206923 0.6653851
vn -0.4147333 -0.6206923 0.6653851
vn -0.5278556 -0.5278553 0.6653851
vn -0.5278555 -0.5278553 0.6653851
vn -0.6206923 -0.4147334 0.6653851
vn -0.6206923 -0.4147335 0.6653851
vn -0.6896763 -0.2856733 0.6653851
vn -0.6896763 -0.2856733 0.665385
vn -0.7321566 -0.145635 0.665385
vn -0.6896763 -0.2856733 0.665385
vn -0.7321565 -0.145635 0.6653851

vt 0.0005 0.9995
vt 0.03171866 0.9995
vt 0.03171866 0.0005
vt 0.0005 0.0005
vt 0.06293731 0.0005
vt 0.06293731 0.9995
vt 0.03171866 0.9995
vt 0.03171866 0.0005
vt 0.09415597 0.0005
vt 0.09415597 0.9995
vt 0.1253747 0.0005
vt 0.1253747 0.9995
vt 0.1565935 0.0005
vt 0.1565935 0.9995
vt 0.1878123 0.0005
vt 0.1878123 0.9995
vt 0.219031 0.0005
vt 0.219031 0.9995
vt 0.2502498 0.0005
vt 0.2502498 0.9995
vt 0.2814685 0.0005
vt 0.2814685 0.9995
vt 0.3126872 0.0005
vt 0.3126872 0.9995
vt 0.343906 0.0005
vt 0.343906 0.9995
vt 0.3751248 0.0005
vt 0.3751248 0.9995
vt 0.4063435 0.0005
vt 0.4063435 0.9995
vt 0.4375622 0.0005
vt 0.4375622 0.9995
vt 0.468781 0.0005
vt 0.468781 0.9995
vt 0.4999997 0.0005
vt 0.4999997 0.9995
vt 0.5312185 0.0005
vt 0.5312185 0.9995
vt 0.5624372 0.0005
vt 0.5624372 0.9995
vt 0.593656 0.0005
vt 0.593656 0.9995
vt 0.6248747 0.0005
vt 0.6248747 0.9995
vt 0.6560935 0.0005
vt 0.6560935 0.9995
vt 0.6873122 0.0005
vt 0.6873122 0.9995
vt 0.718531 0.0005
vt 0.718531 0.9995
vt 0.7497497 0.0005
vt 0.7497497 0.9995
vt 0.7809684 0.0005
vt 0.7809684 0.9995
vt 0.8121872 0.0005
vt 0.8121872 0.9995
vt 0.8434059 0.0005
vt 0.8434059 0.9995
vt 0.8746247 0.0005
vt 0.8746247 0.9995
vt 0.9058434 0.0005
vt 0.9058434 0.9995
vt 0.9370622 0.0005
vt 0.9370622 0.9995
vt 0.9682809 0.0005
vt 0.9682809 0.9995
vt 0.9994997 0.0005
vt 0.9682809 0.9995
vt 0.9994997 0.9995

g PolyTiltedTube01
usemtl PolyTiltedTube01
usemap PolyTiltedTube01
f 1/1/1 3/3/3 2/2/2
f 1/1/1 4/4/4 3/3/3
f 2/2/2 3/3/3 5/5/5
f 6/6/6 2/2/2 5/5/5
f 7/7/7 5/5/5 6/6/6
f 7/7/7 8/8/8 5/5/5
f 6/6/6 5/5/5 9/9/9
f 6/6/6 5/5/5 9/9/9
f 6/6/6 9/9/9 10/10/10
f 10/10/10 6/6/6 9/9/9
f 10/10/10 9/9/9 11/11/11
f 10/10/10 9/9/9 11/11/11
f 10/10/10 11/11/11 12/12/12
f 12/12/12 10/10/10 11/11/11
f 12/12/12 11/11/11 13/13/13
f 12/12/12 11/11/11 13/13/13
f 12/12/12 13/13/13 14/14/14
f 14/14/14 12/12/12 13/13/13
f 14/14/14 13/13/13 15/15/15
f 14/14/14 13/13/13 15/15/15
f 14/14/14 15/15/15 16/16/16
f 16/16/16 14/14/14 15/15/15
f 16/16/16 15/15/15 17/17/17
f 16/16/16 15/15/15 17/17/17
f 16/16/16 17/17/17 18/18/18
f 18/18/18 16/16/16 17/17/17
f 18/18/18 17/17/17 19/19/19
f 18/18/18 17/17/17 19/19/19
f 18/18/18 19/19/19 20/20/20
f 20/20/20 18/18/18 19/19/19
f 20/20/20 19/19/19 21/21/21
f 20/20/20 19/19/19 21/21/21
f 20/20/20 21/21/21 22/22/22
f 22/22/22 20/20/20 21/21/21
f 22/22/22 21/21/21 23/23/23
f 22/22/22 21/21/21 23/23/23
f 22/22/22 23/23/23 24/24/24
f 24/24/24 22/22/22 23/23/23
f 24/24/24 23/23/23 25/25/25
f 24/24/24 23/23/23 25/25/25
f 24/24/24 25/25/25 26/26/26
f 26/26/26 24/24/24 25/25/25
f 26/26/26 25/25/25 27/27/27
f 26/26/26 25/25/25 27/27/27
f 26/26/26 27/27/27 28/28/28
f 28/28/28 26/26/26 27/27/27
f 28/28/28 27/27/27 29/29/29
f 28/28/28 27/27/27 29/29/29
f 28/28/28 29/29/29 30/30/30
f 30/30/30 28/28/28 29/29/29
f 30/30/30 29/29/29 31/31/31
f 30/30/30 29/29/29 31/31/31
f 30/30/30 31/31/31 32/32/32
f 32/32/32 30/30/30 31/31/31
f 32/32/32 31/31/31 33/33/33
f 32/32/32 31/31/31 33/33/33
f 32/32/32 33/33/33 34/34/34
f 34/34/34 32/32/32 33/33/33
f 34/34/34 33/33/33 35/35/35
f 34/34/34 33/33/33 35/35/35
f 34/34/34 35/35/35 36/36/36
f 36/36/36 34/34/34 35/35/35
f 36/36/36 35/35/35 37/37/37
f 36/36/36 35/35/35 37/37/37
f 36/36/36 37/37/37 38/38/38
f 38/38/38 36/36/36 37/37/37
f 38/38/38 37/37/37 39/39/39
f 38/38/38 37/37/37 39/39/39
f 38/38/38 39/39/39 40/40/40
f 40/40/40 38/38/38 39/39/39
f 40/40/40 39/39/39 41/41/41
f 40/40/40 39/39/39 41/41/41
f 40/40/40 41/41/41 42/42/42
f 42/42/42 40/40/40 41/41/41
f 42/42/42 41/41/41 43/43/43
f 42/42/42 41/41/41 43/43/43
f 42/42/42 43/43/43 44/44/44
f 44/44/44 42/42/42 43/43/43
f 44/44/44 43/43/43 45/45/45
f 44/44/44 43/43/43 45/45/45
f 44/44/44 45/45/45 46/46/46
f 46/46/46 44/44/44 45/45/45
f 46/46/46 45/45/45 47/47/47
f 46/46/46 45/45/45 47/47/47
f 46/46/46 47/47/47 48/48/48
f 48/48/48 46/46/46 47/47/47
f 48/48/48 47/47/47 49/49/49
f 48/48/48 47/47/47 49/49/49
f 48/48/48 49/49/49 50/50/50
f 50/50/50 48/48/48 49/49/49
f 50/50/50 49/49/49 51/51/51
f 50/50/50 49/49/49 51/51/51
f 50/50/50 51/51/51 52/52/52
f 52/52/52 50/50/50 51/51/51
f 52/52/52 51/51/51 53/53/53
f 52/52/52 51/51/51 53/53/53
f 52/52/52 53/53/53 54/54/54
f 54/54/54 52/52/52 53/53/53
f 54/54/54 53/53/53 55/55/55
f 54/54/54 53/53/53 55/55/55
f 54/54/54 55/55/55 56/56/56
f 56/56/56 54/54/54 55/55/55
f 56/56/56 55/55/55 57/57/57
f 56/56/56 55/55/55 57/57/57
f 56/56/56 57/57/57 58/58/58
f 58/58/58 56/56/56 57/57/57
f 58/58/58 57/57/57 59/59/59
f 58/58/58 57/57/57 59/59/59
f 58/58/58 59/59/59 60/60/60
f 60/60/60 58/58/58 59/59/59
f 60/60/60 59/59/59 61/61/61
f 60/60/60 59/59/59 61/61/61
f 60/60/60 61/61/61 62/62/62
f 62/62/62 60/60/60 61/61/61
f 62/62/62 61/61/61 63/63/63
f 62/62/62 61/61/61 63/63/63
f 62/62/62 63/63/63 64/64/64
f 64/64/64 62/62/62 63/63/63
f 64/64/64 63/63/63 65/65/65
f 64/64/64 63/63/63 65/65/65
f 64/64/64 65/65/65 66/66/66
f 66/66/66 64/64/64 65/65/65
f 66/66/66 65/65/65 67/67/67
f 68/68/68 65/65/65 67/67/67
f 68/68/68 67/67/67 69/69/69
