#PolySpikeSimple.obj

v -0.01271458 -0.04523065 0.0151463
v 0 0 0.1104819
v 0.04548233 0.01720046 0.0151463
v 7.162191E-12 2.16916E-17 -0.006897356
v 0.04548233 0.01720046 0.0151463
v -0.03453872 0.03453872 0.0151463
v -0.03453872 0.03453872 0.0151463
v 0 0 0.1104819
v -0.01271458 -0.04523065 0.0151463
v -0.03453872 0.03453872 0.0151463
v 0.04548233 0.01720046 0.0151463
v 0 0 0.1104819
v 7.162191E-12 2.16916E-17 -0.006897356
v -0.01271458 -0.04523065 0.0151463
v 0.04548233 0.01720046 0.0151463
v 7.162191E-12 2.16916E-17 -0.006897356
v -0.03453872 0.03453872 0.0151463
v -0.01271458 -0.04523065 0.0151463

vn 0.7134908 -0.6651003 0.2203918
vn 0.7134907 -0.6651003 0.2203918
vn 0.7134908 -0.6651003 0.2203918
vn 0.1355965 0.6258167 -0.7680932
vn 0.1355965 0.6258168 -0.7680931
vn 0.1355965 0.6258168 -0.7680932
vn -0.9349025 -0.2557804 0.2460361
vn -0.9349025 -0.2557805 0.2460361
vn -0.9349025 -0.2557805 0.2460361
vn 0.2040545 0.9417705 0.2672638
vn 0.2040545 0.9417705 0.2672638
vn 0.2040546 0.9417705 0.2672638
vn 0.5231645 -0.4876822 -0.6989028
vn 0.5231644 -0.4876823 -0.6989027
vn 0.5231644 -0.4876823 -0.6989027
vn -0.6495335 -0.1777062 -0.7392746
vn -0.6495335 -0.1777062 -0.7392744
vn -0.6495335 -0.1777062 -0.7392744

vt -0.5 5.184207E-11
vt 0 0.5
vt 0.5 5.184203E-11
vt -0.5 1.036835E-10
vt 5.184203E-11 0.5
vt 1.171548E-18 -0.5
vt 0.5 1.171548E-18
vt 0 0.5
vt 5.184207E-11 0.5
vt 1.171548E-18 -0.5
vt 5.184203E-11 0.5
vt 0.5 0
vt 3.140185E-16 -0.5
vt -0.5 5.184207E-11
vt 0.5 5.184203E-11
vt -0.5 1.036835E-10
vt 0.5 1.171548E-18
vt 5.184207E-11 0.5

g PolySpikeSimple
usemtl PolySpikeSimple
usemap PolySpikeSimple
f 1/1/1 3/3/3 2/2/2
f 4/4/4 6/6/6 5/5/5
f 7/7/7 9/9/9 8/8/8
f 10/10/10 12/12/12 11/11/11
f 13/13/13 15/15/15 14/14/14
f 16/16/16 18/18/18 17/17/17
