#PolyConfetti.obj

v -0.026896 -7.376856E-11 0.004217842
v 0 -7.376856E-11 -0.002857047
v -1.051314E-11 -0.02652319 -0.005231439
v -0.02586929 -0.02692275 0.002071512
v 0.02509895 -7.376856E-11 0.003369635
v 0.026896 -0.02750973 0.002071512
v -1.051314E-11 -0.02652319 -0.005231439
v 0 -7.376856E-11 -0.002857047
v -5.264282E-06 0.02634259 -0.005177461
v 0 -7.376856E-11 -0.002857047
v -0.026896 -7.376856E-11 0.004217842
v -0.02549721 0.02652891 0.002071512
v -5.264282E-06 0.02634259 -0.005177461
v 0.026896 0.02750973 0.002071512
v 0.02509895 -7.376856E-11 0.003369635
v 0 -7.376856E-11 -0.002857047
v -0.02750973 -7.376856E-11 0.001536203
v -0.02750973 -0.02750973 -0.0006101265
v 0 -0.02750973 -0.006906142
v 0 -7.376856E-11 -0.00560802
v 0 -0.02750973 -0.006906142
v 0.02750973 -0.02750973 -0.0006101265
v 0.02750973 -7.376856E-11 0.0006879958
v 0 -7.376856E-11 -0.00560802
v -0.02750973 -7.376856E-11 0.001536203
v 0 -7.376856E-11 -0.00560802
v 0 0.02750973 -0.006906142
v -0.02750973 0.02750973 -0.0006101265
v 0 -7.376856E-11 -0.00560802
v 0.02750973 -7.376856E-11 0.0006879958
v 0.02750973 0.02750973 -0.0006101265
v 0 0.02750973 -0.006906142
v -0.02750973 -0.02750973 -0.0006101265
v -0.02586929 -0.02692275 0.002071512
v -1.051314E-11 -0.02652319 -0.005231439
v 0 -0.02750973 -0.006906142
v -0.02750973 -0.02750973 -0.0006101265
v -0.02750973 -7.376856E-11 0.001536203
v -0.026896 -7.376856E-11 0.004217842
v -0.02586929 -0.02692275 0.002071512
v 0.02750973 -0.02750973 -0.0006101265
v 0 -0.02750973 -0.006906142
v -1.051314E-11 -0.02652319 -0.005231439
v 0.026896 -0.02750973 0.002071512
v 0.02750973 -7.376856E-11 0.0006879958
v 0.02750973 -0.02750973 -0.0006101265
v 0.026896 -0.02750973 0.002071512
v 0.02509895 -7.376856E-11 0.003369635
v 0.02750973 0.02750973 -0.0006101265
v 0.026896 0.02750973 0.002071512
v 0 0.02750973 -0.006906142
v -0.02549721 0.02652891 0.002071512
v -0.02750973 0.02750973 -0.0006101265
v -5.264282E-06 0.02634259 -0.005177461
v -0.02750973 0.02750973 -0.0006101265
v -0.02549721 0.02652891 0.002071512
v -0.026896 -7.376856E-11 0.004217842
v -0.02750973 -7.376856E-11 0.001536203
v 0.02750973 0.02750973 -0.0006101265
v 0.026896 0.02750973 0.002071512
v -5.264282E-06 0.02634259 -0.005177461
v 0 0.02750973 -0.006906142

vn 0.2626726 -0.07631309 0.9618624
vn 0.2626726 -0.07631309 0.9618624
vn 0.2626726 -0.07631309 0.9618624
vn 0.2626726 -0.07631309 0.9618624
vn -0.2524491 -0.0739702 0.9647787
vn -0.2524491 -0.07397021 0.9647787
vn -0.2524491 -0.07397019 0.9647787
vn -0.2524491 -0.0739702 0.9647787
vn 0.263255 0.0743222 0.9618592
vn 0.263255 0.0743222 0.9618592
vn 0.263255 0.0743222 0.9618592
vn 0.263255 0.0743222 0.9618592
vn -0.2517259 0.07321905 0.9650249
vn -0.2517259 0.07321905 0.9650249
vn -0.2517259 0.07321905 0.9650249
vn -0.2517259 0.07321905 0.9650249
vn -0.2368661 0.06070383 -0.969644
vn -0.2368661 0.06070383 -0.969644
vn -0.2368661 0.06070383 -0.969644
vn -0.2368661 0.06070383 -0.969644
vn 0.2228612 0.04594987 -0.9737667
vn 0.2228612 0.04594986 -0.9737667
vn 0.2228612 0.04594987 -0.9737667
vn 0.2228612 0.04594986 -0.9737667
vn -0.2368661 -0.06070383 -0.969644
vn -0.2368661 -0.06070383 -0.969644
vn -0.2368661 -0.06070383 -0.969644
vn -0.2368661 -0.06070383 -0.969644
vn 0.2228612 -0.04594987 -0.9737667
vn 0.2228612 -0.04594987 -0.9737667
vn 0.2228612 -0.04594987 -0.9737667
vn 0.2228612 -0.04594987 -0.9737667
vn 0.08597919 -0.9469504 0.3096653
vn 0.08597918 -0.9469504 0.3096652
vn 0.08597919 -0.9469504 0.3096652
vn 0.08597919 -0.9469504 0.3096653
vn -0.9189166 -0.04820675 0.391495
vn -0.9189166 -0.04820675 0.3914951
vn -0.9189166 -0.04820675 0.3914951
vn -0.9189166 -0.04820674 0.3914951
vn -0.07038891 -0.974975 0.2108769
vn -0.07038891 -0.974975 0.2108769
vn -0.07038891 -0.974975 0.2108769
vn -0.07038891 -0.974975 0.2108769
vn 0.8710303 0.005270971 0.491201
vn 0.8710303 0.005270971 0.491201
vn 0.8710304 0.005270972 0.491201
vn 0.8710304 0.005270972 0.491201
vn 0.8710303 -0.005270973 0.491201
vn 0.8710303 -0.005270973 0.491201
vn 0.1045589 0.9120197 0.3965948
vn 0.1045589 0.9120197 0.3965948
vn 0.1045589 0.9120197 0.3965948
vn 0.1045589 0.9120197 0.3965948
vn -0.8922811 0.05865686 0.4476537
vn -0.8922811 0.05865686 0.4476537
vn -0.8922811 0.05865686 0.4476537
vn -0.8922811 0.05865686 0.4476537
vn -0.08153504 0.9662735 0.2442694
vn -0.08153504 0.9662735 0.2442694
vn -0.08153504 0.9662735 0.2442694
vn -0.08153504 0.9662735 0.2442694

vt 0 0.5
vt 0.5 0.5
vt 0.5 0
vt 0 0
vt 1 0.5
vt 1 0
vt 0.5 0
vt 0.5 0.5
vt 0.5 1
vt 0.5 0.5
vt 0 0.5
vt 0 1
vt 0.5 1
vt 1 1
vt 1 0.5
vt 0.5 0.5
vt 0 0.5
vt 0 0
vt 0.5 0
vt 0.5 0.5
vt 0.5 0
vt 1 0
vt 1 0.5
vt 0.5 0.5
vt 0 0.5
vt 0.5 0.5
vt 0.5 1
vt 0 1
vt 0.5 0.5
vt 1 0.5
vt 1 1
vt 0.5 1
vt 0 0
vt 0 0
vt 0.5 0
vt 0.5 0
vt 0 0
vt 0 0.5
vt 0 0.5
vt 0 0
vt 1 0
vt 0.5 0
vt 0.5 0
vt 1 0
vt 1 0.5
vt 1 0
vt 1 0
vt 1 0.5
vt 1 1
vt 1 1
vt 0.5 1
vt 0 1
vt 0 1
vt 0.5 1
vt 0 1
vt 0 1
vt 0 0.5
vt 0 0.5
vt 1 1
vt 1 1
vt 0.5 1
vt 0.5 1

g PolyConfetti
usemtl PolyConfetti
usemap PolyConfetti
f 1/1/1 3/3/3 2/2/2
f 1/1/1 4/4/4 3/3/3
f 5/5/5 7/7/7 6/6/6
f 5/5/5 8/8/8 7/7/7
f 9/9/9 11/11/11 10/10/10
f 9/9/9 12/12/12 11/11/11
f 13/13/13 15/15/15 14/14/14
f 13/13/13 16/16/16 15/15/15
f 17/17/17 19/19/19 18/18/18
f 17/17/17 20/20/20 19/19/19
f 21/21/21 23/23/23 22/22/22
f 21/21/21 24/24/24 23/23/23
f 25/25/25 27/27/27 26/26/26
f 25/25/25 28/28/28 27/27/27
f 29/29/29 31/31/31 30/30/30
f 29/29/29 32/32/32 31/31/31
f 33/33/33 35/35/35 34/34/34
f 33/33/33 36/36/36 35/35/35
f 37/37/37 39/39/39 38/38/38
f 37/37/37 40/40/40 39/39/39
f 41/41/41 43/43/43 42/42/42
f 41/41/41 44/44/44 43/43/43
f 45/45/45 47/47/47 46/46/46
f 45/45/45 48/48/48 47/47/47
f 49/49/49 48/48/48 45/45/45
f 49/49/49 50/50/50 48/48/48
f 51/51/51 53/53/53 52/52/52
f 54/54/54 51/51/51 52/52/52
f 55/55/55 57/57/57 56/56/56
f 55/55/55 58/58/58 57/57/57
f 59/59/59 61/61/61 60/60/60
f 59/59/59 62/62/62 61/61/61
