#Rock_1.obj

v -0.039538 0.387048 0.330457
v 0.383574 0.387048 0.330457
v 0.118393 0.121867 0.465065
v -0.034383 -0.143315 0.137539
v -0.146789 -0.143315 -0.199906
v -0.066601 0.361579 -0.147654
v 0.106012 0.387048 -0.199906
v -0.146789 -0.143315 -0.199906
v 0.383574 -0.143315 -0.199906
v -0.039538 0.387048 0.330457
v -0.034383 -0.143315 0.137539
v -0.066601 0.361579 -0.147654
v 0.383574 -0.143315 0.330457
v 0.383574 0.387048 0.330457
v 0.566093 0.121867 0.065276
v 0.383574 -0.143315 -0.199906
v 0.383574 -0.143315 0.330457
v 0.566093 0.121867 0.065276
v 0.106012 0.387048 -0.199906
v 0.383574 -0.143315 -0.199906
v 0.566093 0.121867 0.065276
v -0.034383 -0.143315 0.137539
v -0.039538 0.387048 0.330457
v 0.118393 0.121867 0.465065
v 0.383574 -0.143315 0.330457
v -0.034383 -0.143315 0.137539
v 0.118393 0.121867 0.465065
v 0.383574 0.387048 0.330457
v 0.383574 -0.143315 0.330457
v 0.118393 0.121867 0.465065
v 0.383574 -0.143315 -0.199906
v -0.034383 -0.143315 0.137539
v 0.383574 -0.143315 0.330457
v -0.146789 -0.143315 -0.199906
v 0.383574 0.387048 0.330457
v 0.106012 0.387048 -0.199906
v 0.566093 0.121867 0.065276
v -0.066601 0.361579 -0.147654
v 0.106012 0.387048 -0.199906
v 0.118393 0.631109 0.065276
v -0.039538 0.387048 0.330457
v -0.066601 0.361579 -0.147654
v 0.118393 0.631109 0.065276
v 0.383574 0.387048 0.330457
v -0.039538 0.387048 0.330457
v 0.118393 0.631109 0.065276
v -0.066601 0.361579 -0.147654
v -0.146789 -0.143315 -0.199906
v 0.106012 0.387048 -0.199906
v 0.118393 0.631109 0.065276
v 0.106012 0.387048 -0.199906
v 0.383574 0.387048 0.330457

vn 0 0.4526326 0.8916972
vn 0 0.4526326 0.8916972
vn 0 0.4526326 0.8916972
vn -0.9422129 0.1171619 0.3138596
vn -0.9422129 0.1171619 0.3138596
vn -0.9422129 0.1171619 0.3138596
vn 0 0 -1
vn 0 0 -1
vn 0 0 -1
vn -0.9978328 -0.03084123 0.05812426
vn -0.9978328 -0.03084123 0.05812426
vn -0.9978328 -0.03084123 0.05812426
vn 0.8237415 0 0.5669656
vn 0.8237415 0 0.5669656
vn 0.8237415 0 0.5669656
vn 0.8237425 -0.5669641 0
vn 0.8237425 -0.5669641 0
vn 0.8237425 -0.5669641 0
vn 0.603911 0.3160529 -0.7317117
vn 0.603911 0.3160529 -0.7317117
vn 0.603911 0.3160529 -0.7317117
vn -0.8119925 -0.2064721 0.5459281
vn -0.8119925 -0.2064721 0.5459281
vn -0.8119925 -0.2064721 0.5459281
vn -0.3146183 -0.660612 0.681621
vn -0.3146183 -0.660612 0.681621
vn -0.3146183 -0.660612 0.681621
vn 0.4526326 0 0.8916972
vn 0.4526326 0 0.8916972
vn 0.4526326 0 0.8916972
vn 0 -1 0
vn 0 -1 0
vn 0 -1 0
vn 0 -1 0
vn 0.6039103 0.7317124 -0.3160525
vn 0.6039103 0.7317124 -0.3160525
vn 0.6039103 0.7317124 -0.3160525
vn -0.2980381 0.7092556 -0.6388503
vn -0.2980381 0.7092556 -0.6388503
vn -0.2980381 0.7092556 -0.6388503
vn -0.8307101 0.5564339 0.01738026
vn -0.8307101 0.5564339 0.01738026
vn -0.8307101 0.5564339 0.01738026
vn 0 0.7358003 0.6771985
vn 0 0.7358003 0.6771985
vn 0 0.7358003 0.6771985
vn -0.3062952 0.1459976 -0.9406742
vn -0.3062952 0.1459976 -0.9406742
vn -0.3062952 0.1459976 -0.9406742
vn 0.8052706 0.4170533 -0.4214331
vn 0.8052706 0.4170533 -0.4214331
vn 0.8052706 0.4170533 -0.4214331

g Rock_1
usemtl Rock_1
usemap Rock_1
f 1//1 3//3 2//2
f 4//4 6//6 5//5
f 7//7 9//9 8//8
f 10//10 12//12 11//11
f 13//13 15//15 14//14
f 16//16 18//18 17//17
f 19//19 21//21 20//20
f 22//22 24//24 23//23
f 25//25 27//27 26//26
f 28//28 30//30 29//29
f 31//31 33//33 32//32
f 34//34 31//31 32//32
f 35//35 37//37 36//36
f 38//38 40//40 39//39
f 41//41 43//43 42//42
f 44//44 46//46 45//45
f 47//47 49//49 48//48
f 50//50 52//52 51//51
