#Sphere_teeths.obj

v 0.08516674 -0.8739855 -0.04096788
v 0.08516667 -0.8739855 0.04096792
v 0.08662722 -0.0007305145 0.0409679
v 0.08662729 -0.0007305145 -0.04096789
v 0.08452946 -0.949577 -0.0409679
v 0.08452938 -0.949577 0.0409679
v -0.08808783 -0.8725249 -0.04096789
v 0.08516674 -0.8739855 -0.04096788
v 0.08662729 -0.0007305145 -0.04096789
v -0.08662729 0.0007300377 -0.0409679
v 0.08452946 -0.949577 -0.0409679
v -0.08872508 -0.948116 -0.04096789
v 0.07082515 -1.022126 -0.0409679
v -0.07624587 -1.020887 -0.04096789
v 0.02544574 -1.058157 -0.04096789
v -0.03148018 -1.057677 -0.04096789
v -0.08662729 0.0007300377 0.0409679
v -0.08808783 -0.8725249 0.04096792
v -0.08808783 -0.8725249 -0.04096789
v -0.08662729 0.0007300377 -0.0409679
v -0.08872508 -0.948116 -0.04096789
v -0.08872516 -0.948116 0.04096791
v 0.08516667 -0.8739855 0.04096792
v -0.08808783 -0.8725249 0.04096792
v -0.08662729 0.0007300377 0.0409679
v 0.08662722 -0.0007305145 0.0409679
v 0.08452938 -0.949577 0.0409679
v -0.08872516 -0.948116 0.04096791
v -0.07624587 -1.020887 0.04096791
v 0.07082508 -1.022126 0.0409679
v -0.03148026 -1.057678 0.04096791
v 0.02544566 -1.058157 0.04096791
v -0.08662729 0.0007300377 0.0409679
v -0.08662729 0.0007300377 -0.0409679
v 0.08662729 -0.0007305145 -0.04096789
v 0.08662722 -0.0007305145 0.0409679
v 0.07082515 -1.022126 -0.0409679
v 0.07082508 -1.022126 0.0409679
v 0.08452938 -0.949577 0.0409679
v 0.08452946 -0.949577 -0.0409679
v 0.02544566 -1.058157 0.04096791
v 0.02544574 -1.058157 -0.04096789
v -0.03148026 -1.057678 0.04096791
v -0.03148018 -1.057677 -0.04096789
v -0.07624587 -1.020887 -0.04096789
v -0.07624587 -1.020887 0.04096791
v -0.08872508 -0.948116 -0.04096789
v -0.08872516 -0.948116 0.04096791

vn 0.9999872 -0.005051464 0
vn 0.9999872 -0.005051464 0
vn 0.9999987 -0.001672527 0
vn 0.9999987 -0.001672527 0
vn 0.9952444 -0.09740872 0
vn 0.9952444 -0.09740872 0
vn 0 0 -1
vn 0 0 -1
vn 0 0 -1
vn 0 0 -1
vn 0 0 -1
vn 0 0 -1
vn 0 0 -1
vn 0 0 -1
vn 0 0 -1
vn 0 0 -1
vn -0.9999987 0.001672527 0
vn -0.9999872 0.005051515 0
vn -0.9999872 0.005051515 0
vn -0.9999987 0.001672527 0
vn -0.9967453 -0.08061491 0
vn -0.9967453 -0.08061491 0
vn 0 0 1
vn 0 0 1
vn 0 0 1
vn 0 0 1
vn 0 0 1
vn 0 0 1
vn 0 0 1
vn 0 0 1
vn 0 0 1
vn 0 0 1
vn 0.008429796 0.9999645 0
vn 0.008429796 0.9999645 0
vn 0.008429796 0.9999645 0
vn 0.008429796 0.9999645 0
vn 0.8560519 -0.5168898 0
vn 0.8560519 -0.5168898 0
vn 0.9952444 -0.09740872 0
vn 0.9952444 -0.09740872 0
vn 0.3252889 -0.9456146 0
vn 0.3252889 -0.9456146 0
vn -0.3411843 -0.9399964 0
vn -0.3411843 -0.9399964 0
vn -0.8646442 -0.5023849 0
vn -0.8646442 -0.5023849 0
vn -0.9967453 -0.08061491 0
vn -0.9967453 -0.08061491 0

vt 0.4419689 0.4482028
vt 0.4419689 0.4461415
vt 0.4376101 0.4461415
vt 0.4376101 0.4482028
vt 0.4438707 0.4482028
vt 0.4438707 0.4461415
vt 0.441969 0.4525616
vt 0.4419689 0.4482028
vt 0.4376101 0.4482028
vt 0.4376101 0.4525616
vt 0.4438707 0.4482028
vt 0.4438708 0.4525615
vt 0.4455408 0.4491428
vt 0.4453485 0.4516698
vt 0.4461115 0.4499652
vt 0.4459999 0.4508449
vt 0.4376101 0.454623
vt 0.441969 0.4546229
vt 0.441969 0.4525616
vt 0.4376101 0.4525616
vt 0.4438708 0.4525615
vt 0.4438708 0.4546229
vt 0.4439054 0.4631904
vt 0.4439054 0.4589162
vt 0.4396313 0.4589162
vt 0.4396313 0.4631904
vt 0.4457703 0.4631904
vt 0.4457703 0.4589162
vt 0.4475628 0.4592392
vt 0.4475628 0.4628674
vt 0.448461 0.4603512
vt 0.448461 0.4617555
vt 0.4396313 0.4589162
vt 0.4376101 0.4589162
vt 0.4376101 0.4631904
vt 0.4396313 0.4631904
vt 0.4455408 0.4491428
vt 0.4473478 0.4480188
vt 0.4456919 0.4461899
vt 0.4438707 0.4482028
vt 0.4479194 0.4497128
vt 0.4461115 0.4499652
vt 0.4478562 0.4514788
vt 0.4459999 0.4508449
vt 0.4453485 0.4516698
vt 0.446841 0.452962
vt 0.4438708 0.4525615
vt 0.4453108 0.4542597

g Sphere_teeths
usemtl Sphere_teeths
usemap Sphere_teeths
f 1/1/1 3/3/3 2/2/2
f 1/1/1 4/4/4 3/3/3
f 5/5/5 1/1/1 2/2/2
f 5/5/5 2/2/2 6/6/6
f 7/7/7 9/9/9 8/8/8
f 7/7/7 10/10/10 9/9/9
f 11/11/11 7/7/7 8/8/8
f 11/11/11 12/12/12 7/7/7
f 13/13/13 12/12/12 11/11/11
f 13/13/13 14/14/14 12/12/12
f 13/13/13 15/15/15 14/14/14
f 15/15/15 16/16/16 14/14/14
f 17/17/17 19/19/19 18/18/18
f 17/17/17 20/20/20 19/19/19
f 21/21/21 18/18/18 19/19/19
f 21/21/21 22/22/22 18/18/18
f 23/23/23 25/25/25 24/24/24
f 23/23/23 26/26/26 25/25/25
f 27/27/27 23/23/23 24/24/24
f 27/27/27 24/24/24 28/28/28
f 27/27/27 28/28/28 29/29/29
f 27/27/27 29/29/29 30/30/30
f 29/29/29 31/31/31 30/30/30
f 31/31/31 32/32/32 30/30/30
f 33/33/33 35/35/35 34/34/34
f 33/33/33 36/36/36 35/35/35
f 37/37/37 39/39/39 38/38/38
f 37/37/37 40/40/40 39/39/39
f 41/41/41 37/37/37 38/38/38
f 41/41/41 42/42/42 37/37/37
f 43/43/43 42/42/42 41/41/41
f 43/43/43 44/44/44 42/42/42
f 43/43/43 45/45/45 44/44/44
f 43/43/43 46/46/46 45/45/45
f 46/46/46 47/47/47 45/45/45
f 46/46/46 48/48/48 47/47/47
