#Support_d2.obj

v 0.175 -1.311342E-08 0.695
v -0.175 -1.311342E-08 0.695
v -0.175 0 1.113877
v 0.175 0 1.113877
v 0.175 1.726175 0.147
v 0.175 1.726175 0.3191682
v 0.175 2.263871 1.116123
v 0.175 1.726175 -0.1469999
v 0.175 1.726175 0.6131681
v 0.175 1.342511 0.6131681
v 0.175 1.342512 0.3191682
v 0.175 1.041175 -0.147
v 0.175 1.041175 0.147
v 0.175 1.726175 0.695
v 0.175 0 1.113877
v 0.175 -1.311342E-08 0.695
v 0.175 1.726175 -0.3191682
v 0.175 1.726175 -0.6131681
v 0.175 2.263871 -1.116123
v 0.175 1.726175 -0.695
v 0.175 0 -1.113877
v 0.175 -1.311342E-08 -0.695
v 0.175 1.342512 -0.3191682
v 0.175 1.342511 -0.6131681
v -0.175 1.726175 0.6131681
v -0.175 1.726175 0.695
v 0.175 1.726175 0.695
v 0.175 1.726175 0.6131681
v -0.175 0 1.113877
v -0.175 2.263871 1.116123
v 0.175 2.263871 1.116123
v 0.175 0 1.113877
v -0.175 1.726175 0.695
v -0.175 -1.311342E-08 0.695
v 0.175 -1.311342E-08 0.695
v 0.175 1.726175 0.695
v 0.175 1.342512 0.3191682
v 0.175 1.726175 0.3191682
v -0.175 1.726175 0.3191682
v -0.175 1.342512 0.3191682
v -0.175 1.726175 0.3191682
v -0.175 1.726175 0.6131681
v -0.175 1.342511 0.6131681
v -0.175 1.342512 0.3191682
v -0.175 2.263871 1.116123
v -0.175 1.726175 0.695
v -0.175 0 1.113877
v -0.175 -1.311342E-08 0.695
v -0.175 1.726175 0.147
v -0.175 1.726175 -0.1469999
v -0.175 1.041175 0.147
v -0.175 1.041175 -0.147
v -0.175 1.726175 -0.3191682
v -0.175 2.263871 -1.116123
v -0.175 1.726175 -0.6131681
v -0.175 1.726175 -0.695
v -0.175 0 -1.113877
v -0.175 -1.311342E-08 -0.695
v -0.175 1.342511 -0.6131681
v -0.175 1.342512 -0.3191682
v -0.175 1.342512 0.3191682
v -0.175 1.342511 0.6131681
v 0.175 1.342511 0.6131681
v 0.175 1.342512 0.3191682
v 0.175 1.726175 0.6131681
v 0.175 1.342511 0.6131681
v -0.175 1.342511 0.6131681
v -0.175 1.726175 0.6131681
v -0.175 -1.311342E-08 -0.695
v 0.175 -1.311342E-08 -0.695
v 0.175 0 -1.113877
v -0.175 0 -1.113877
v 0.175 1.726175 -0.695
v -0.175 1.726175 -0.695
v -0.175 1.726175 -0.6131681
v 0.175 1.726175 -0.6131681
v -0.175 0 -1.113877
v 0.175 0 -1.113877
v 0.175 2.263871 -1.116123
v -0.175 2.263871 -1.116123
v -0.175 1.726175 -0.695
v 0.175 1.726175 -0.695
v 0.175 -1.311342E-08 -0.695
v -0.175 -1.311342E-08 -0.695
v -0.175 1.342512 -0.3191682
v 0.175 1.342512 -0.3191682
v 0.175 1.342511 -0.6131681
v -0.175 1.342511 -0.6131681
v 0.175 1.726175 0.147
v 0.175 1.041175 0.147
v -0.175 1.041175 0.147
v -0.175 1.726175 0.147
v -0.175 1.041175 -0.147
v 0.175 1.041175 -0.147
v 0.175 1.726175 -0.1469999
v -0.175 1.726175 -0.1469999
v -0.175 1.041175 -0.147
v -0.175 1.041175 0.147
v 0.175 1.041175 0.147
v 0.175 1.041175 -0.147
v -0.175 1.726175 0.3191682
v 0.175 1.726175 0.3191682
v 0.175 1.726175 0.147
v -0.175 1.726175 0.147
v 0.175 2.263871 1.116123
v -0.175 2.263871 1.116123
v -0.175 2.263871 -1.116123
v 0.175 2.263871 -1.116123
v -0.175 1.726175 -0.3191682
v -0.175 1.726175 -0.1469999
v 0.175 1.726175 -0.1469999
v 0.175 1.726175 -0.3191682
v -0.175 1.342512 -0.3191682
v -0.175 1.726175 -0.3191682
v 0.175 1.726175 -0.3191682
v 0.175 1.342512 -0.3191682
v -0.175 1.726175 -0.6131681
v -0.175 1.342511 -0.6131681
v 0.175 1.342511 -0.6131681
v 0.175 1.726175 -0.6131681

vn 0 -1 0
vn 0 -1 0
vn 0 -1 0
vn 0 -1 0
vn 1 0 0
vn 1 0 0
vn 1 0 0
vn 1 0 0
vn 1 0 0
vn 1 0 0
vn 1 0 0
vn 1 0 0
vn 1 0 0
vn 1 0 0
vn 1 0 0
vn 1 0 0
vn 1 0 0
vn 1 0 0
vn 1 0 0
vn 1 0 0
vn 1 0 0
vn 1 0 0
vn 1 0 0
vn 1 0 0
vn 0 -1 0
vn 0 -1 0
vn 0 -1 0
vn 0 -1 0
vn 0 -0.0009920629 0.9999995
vn 0 -0.0009920629 0.9999995
vn 0 -0.0009920629 0.9999995
vn 0 -0.0009920629 0.9999995
vn 0 0 -1
vn 0 0 -1
vn 0 0 -1
vn 0 0 -1
vn 0 0 -1
vn 0 0 -1
vn 0 0 -1
vn 0 0 -1
vn -1 0 0
vn -1 0 0
vn -1 0 0
vn -1 0 0
vn -1 0 0
vn -1 0 0
vn -1 0 0
vn -1 0 0
vn -1 0 0
vn -1 0 0
vn -1 0 0
vn -1 0 0
vn -1 0 0
vn -1 0 0
vn -1 0 0
vn -1 0 0
vn -1 0 0
vn -1 0 0
vn -1 0 0
vn -1 0 0
vn 0 -1 0
vn 0 -1 0
vn 0 -1 0
vn 0 -1 0
vn 0 0 1
vn 0 0 1
vn 0 0 1
vn 0 0 1
vn 0 -1 0
vn 0 -1 0
vn 0 -1 0
vn 0 -1 0
vn 0 -1 0
vn 0 -1 0
vn 0 -1 0
vn 0 -1 0
vn 0 -0.0009920629 -0.9999995
vn 0 -0.0009920629 -0.9999995
vn 0 -0.0009920629 -0.9999995
vn 0 -0.0009920629 -0.9999995
vn 0 0 1
vn 0 0 1
vn 0 0 1
vn 0 0 1
vn 0 -1 0
vn 0 -1 0
vn 0 -1 0
vn 0 -1 0
vn 0 0 1
vn 0 0 1
vn 0 0 1
vn 0 0 1
vn 0 0 -1
vn 0 0 -1
vn 0 0 -1
vn 0 0 -1
vn 0 -1 0
vn 0 -1 0
vn 0 -1 0
vn 0 -1 0
vn 0 -1 0
vn 0 -1 0
vn 0 -1 0
vn 0 -1 0
vn 0 1 0
vn 0 1 0
vn 0 1 0
vn 0 1 0
vn 0 -1 0
vn 0 -1 0
vn 0 -1 0
vn 0 -1 0
vn 0 0 1
vn 0 0 1
vn 0 0 1
vn 0 0 1
vn 0 0 -1
vn 0 0 -1
vn 0 0 -1
vn 0 0 -1

g Support_d2
usemtl Support_d2
usemap Support_d2
f 1//1 3//3 2//2
f 1//1 4//4 3//3
f 5//5 7//7 6//6
f 7//7 5//5 8//8
f 6//6 7//7 9//9
f 10//10 6//6 9//9
f 10//10 11//11 6//6
f 12//12 8//8 5//5
f 12//12 5//5 13//13
f 9//9 7//7 14//14
f 14//14 7//7 15//15
f 16//16 14//14 15//15
f 7//7 8//8 17//17
f 7//7 17//17 18//18
f 19//19 7//7 18//18
f 19//19 18//18 20//20
f 19//19 20//20 21//21
f 20//20 22//22 21//21
f 18//18 17//17 23//23
f 18//18 23//23 24//24
f 25//25 27//27 26//26
f 25//25 28//28 27//27
f 29//29 31//31 30//30
f 29//29 32//32 31//31
f 33//33 35//35 34//34
f 33//33 36//36 35//35
f 37//37 39//39 38//38
f 37//37 40//40 39//39
f 41//41 43//43 42//42
f 41//41 44//44 43//43
f 42//42 45//45 41//41
f 46//46 45//45 42//42
f 47//47 45//45 46//46
f 48//48 47//47 46//46
f 41//41 45//45 49//49
f 45//45 50//50 49//49
f 51//51 49//49 50//50
f 51//51 50//50 52//52
f 45//45 53//53 50//50
f 45//45 54//54 53//53
f 54//54 55//55 53//53
f 54//54 56//56 55//55
f 54//54 57//57 56//56
f 57//57 58//58 56//56
f 59//59 53//53 55//55
f 59//59 60//60 53//53
f 61//61 63//63 62//62
f 61//61 64//64 63//63
f 65//65 67//67 66//66
f 65//65 68//68 67//67
f 69//69 71//71 70//70
f 69//69 72//72 71//71
f 73//73 75//75 74//74
f 73//73 76//76 75//75
f 77//77 79//79 78//78
f 77//77 80//80 79//79
f 81//81 83//83 82//82
f 81//81 84//84 83//83
f 85//85 87//87 86//86
f 85//85 88//88 87//87
f 89//89 91//91 90//90
f 89//89 92//92 91//91
f 93//93 95//95 94//94
f 93//93 96//96 95//95
f 97//97 99//99 98//98
f 97//97 100//100 99//99
f 101//101 103//103 102//102
f 101//101 104//104 103//103
f 105//105 107//107 106//106
f 105//105 108//108 107//107
f 109//109 111//111 110//110
f 109//109 112//112 111//111
f 113//113 115//115 114//114
f 113//113 116//116 115//115
f 117//117 119//119 118//118
f 117//117 120//120 119//119
