#Support_d22.obj

v -0.175 0 -1.413877
v -0.175 -2.8213E-08 -0.5513476
v 0.175 -2.8213E-08 -0.5513476
v 0.175 0 -1.413877
v 0.175 1.526175 -0.5513476
v 0.175 2.463871 0
v 0.175 2.072771 -0.5513477
v 0.175 1.526175 0.5513476
v 0.175 2.463871 -1.416123
v 0.175 2.072771 -1.052165
v 0.175 0 -1.413877
v 0.175 0.839116 -1.052164
v 0.175 -2.8213E-08 -0.5513476
v 0.175 0.839116 -0.5513476
v 0.175 2.072771 0.5513477
v 0.175 2.463871 1.416123
v 0.175 2.072771 1.052165
v 0.175 0 1.413877
v 0.175 0.839116 1.052164
v 0.175 3.695528E-08 0.5513476
v 0.175 0.839116 0.5513476
v -0.175 0 -1.413877
v 0.175 0 -1.413877
v 0.175 2.463871 -1.416123
v -0.175 2.463871 -1.416123
v -0.175 1.526175 -0.5513476
v -0.175 1.526175 0.5513476
v 0.175 1.526175 0.5513476
v 0.175 1.526175 -0.5513476
v -0.175 0 -1.413877
v -0.175 0.839116 -1.052164
v -0.175 -2.8213E-08 -0.5513476
v -0.175 2.072771 -1.052165
v -0.175 2.463871 -1.416123
v -0.175 0.839116 -0.5513476
v -0.175 2.072771 -0.5513477
v -0.175 2.463871 0
v -0.175 1.526175 -0.5513476
v -0.175 1.526175 0.5513476
v -0.175 2.072771 0.5513477
v -0.175 2.463871 1.416123
v -0.175 2.072771 1.052165
v -0.175 0 1.413877
v -0.175 0.839116 1.052164
v -0.175 3.695528E-08 0.5513476
v -0.175 0.839116 0.5513476
v -0.175 -2.8213E-08 -0.5513476
v -0.175 0.839116 -0.5513476
v 0.175 0.839116 -0.5513476
v 0.175 -2.8213E-08 -0.5513476
v 0.175 0.839116 -0.5513476
v -0.175 0.839116 -0.5513476
v -0.175 0.839116 -1.052164
v 0.175 0.839116 -1.052164
v -0.175 0.839116 -1.052164
v -0.175 2.072771 -1.052165
v 0.175 2.072771 -1.052165
v 0.175 0.839116 -1.052164
v 0.175 2.072771 -1.052165
v -0.175 2.072771 -1.052165
v -0.175 2.072771 -0.5513477
v 0.175 2.072771 -0.5513477
v 0.175 1.526175 -0.5513476
v 0.175 2.072771 -0.5513477
v -0.175 2.072771 -0.5513477
v -0.175 1.526175 -0.5513476
v 0.175 2.463871 0
v -0.175 2.463871 0
v -0.175 2.463871 -1.416123
v 0.175 2.463871 -1.416123
v -0.175 2.463871 1.416123
v 0.175 2.463871 1.416123
v -0.175 3.695528E-08 0.5513476
v -0.175 0 1.413877
v 0.175 0 1.413877
v 0.175 3.695528E-08 0.5513476
v -0.175 0 1.413877
v -0.175 2.463871 1.416123
v 0.175 2.463871 1.416123
v 0.175 0 1.413877
v -0.175 0.839116 0.5513476
v -0.175 3.695528E-08 0.5513476
v 0.175 3.695528E-08 0.5513476
v 0.175 0.839116 0.5513476
v -0.175 0.839116 0.5513476
v 0.175 0.839116 0.5513476
v 0.175 0.839116 1.052164
v -0.175 0.839116 1.052164
v -0.175 2.072771 1.052165
v -0.175 0.839116 1.052164
v 0.175 0.839116 1.052164
v 0.175 2.072771 1.052165
v 0.175 2.072771 1.052165
v 0.175 2.072771 0.5513477
v -0.175 2.072771 0.5513477
v -0.175 2.072771 1.052165
v 0.175 1.526175 0.5513476
v -0.175 1.526175 0.5513476
v -0.175 2.072771 0.5513477
v 0.175 2.072771 0.5513477

vn 0 -1 0
vn 0 -1 0
vn 0 -1 0
vn 0 -1 0
vn 1 0 0
vn 1 0 0
vn 1 0 0
vn 1 0 0
vn 1 0 0
vn 1 0 0
vn 1 0 0
vn 1 0 0
vn 1 0 0
vn 1 0 0
vn 1 0 0
vn 1 0 0
vn 1 0 0
vn 1 0 0
vn 1 0 0
vn 1 0 0
vn 1 0 0
vn 0 -0.0009115341 -0.9999996
vn 0 -0.0009115341 -0.9999996
vn 0 -0.0009115341 -0.9999996
vn 0 -0.0009115341 -0.9999996
vn 0 -1 0
vn 0 -1 0
vn 0 -1 0
vn 0 -1 0
vn -1 0 0
vn -1 0 0
vn -1 0 0
vn -1 0 0
vn -1 0 0
vn -1 0 0
vn -1 0 0
vn -1 0 0
vn -1 0 0
vn -1 0 0
vn -1 0 0
vn -1 0 0
vn -1 0 0
vn -1 0 0
vn -1 0 0
vn -1 0 0
vn -1 0 0
vn 0 0 1
vn 0 0 1
vn 0 0 1
vn 0 0 1
vn 0 1 0
vn 0 1 0
vn 0 1 0
vn 0 1 0
vn 0 0 1
vn 0 0 1
vn 0 0 1
vn 0 0 1
vn 0 -1 0
vn 0 -1 0
vn 0 -1 0
vn 0 -1 0
vn 0 0 -1
vn 0 0 -1
vn 0 0 -1
vn 0 0 -1
vn 0 1 0
vn 0 1 0
vn 0 1 0
vn 0 1 0
vn 0 1 0
vn 0 1 0
vn 0 -1 0
vn 0 -1 0
vn 0 -1 0
vn 0 -1 0
vn 0 -0.0009115341 0.9999996
vn 0 -0.0009115341 0.9999996
vn 0 -0.0009115341 0.9999996
vn 0 -0.0009115341 0.9999996
vn 0 0 -1
vn 0 0 -1
vn 0 0 -1
vn 0 0 -1
vn 0 1 0
vn 0 1 0
vn 0 1 0
vn 0 1 0
vn 0 0 -1
vn 0 0 -1
vn 0 0 -1
vn 0 0 -1
vn 0 -1 0
vn 0 -1 0
vn 0 -1 0
vn 0 -1 0
vn 0 0 1
vn 0 0 1
vn 0 0 1
vn 0 0 1

g Support_d22
usemtl Support_d22
usemap Support_d22
f 1//1 3//3 2//2
f 1//1 4//4 3//3
f 5//5 7//7 6//6
f 8//8 5//5 6//6
f 9//9 6//6 7//7
f 10//10 9//9 7//7
f 9//9 10//10 11//11
f 10//10 12//12 11//11
f 12//12 13//13 11//11
f 12//12 14//14 13//13
f 15//15 8//8 6//6
f 6//6 16//16 15//15
f 16//16 17//17 15//15
f 17//17 16//16 18//18
f 19//19 17//17 18//18
f 20//20 19//19 18//18
f 21//21 19//19 20//20
f 22//22 24//24 23//23
f 22//22 25//25 24//24
f 26//26 28//28 27//27
f 26//26 29//29 28//28
f 30//30 32//32 31//31
f 30//30 31//31 33//33
f 34//34 30//30 33//33
f 35//35 31//31 32//32
f 33//33 36//36 34//34
f 36//36 37//37 34//34
f 36//36 38//38 37//37
f 38//38 39//39 37//37
f 39//39 40//40 37//37
f 37//37 40//40 41//41
f 40//40 42//42 41//41
f 43//43 41//41 42//42
f 44//44 43//43 42//42
f 45//45 43//43 44//44
f 44//44 46//46 45//45
f 47//47 49//49 48//48
f 47//47 50//50 49//49
f 51//51 53//53 52//52
f 51//51 54//54 53//53
f 55//55 57//57 56//56
f 55//55 58//58 57//57
f 59//59 61//61 60//60
f 59//59 62//62 61//61
f 63//63 65//65 64//64
f 63//63 66//66 65//65
f 67//67 69//69 68//68
f 67//67 70//70 69//69
f 71//71 67//67 68//68
f 71//71 72//72 67//67
f 73//73 75//75 74//74
f 73//73 76//76 75//75
f 77//77 79//79 78//78
f 77//77 80//80 79//79
f 81//81 83//83 82//82
f 81//81 84//84 83//83
f 85//85 87//87 86//86
f 85//85 88//88 87//87
f 89//89 91//91 90//90
f 89//89 92//92 91//91
f 93//93 95//95 94//94
f 93//93 96//96 95//95
f 97//97 99//99 98//98
f 97//97 100//100 99//99
