#Support_d19.obj

v 0.175 1.072735 0.795
v 0.175 0 1.113877
v 0.175 2.046158 1.116123
v 0.175 0.6534402 0.795
v 0.175 1.726175 0.420013
v 0.175 2.046158 0
v 0.175 1.726175 0
v 0.175 1.072735 0.420013
v 0.175 -2.513348E-08 0.4200131
v 0.175 0.6534402 0.4200131
v 0.175 1.726175 -0.420013
v 0.175 2.046158 -1.116123
v 0.175 1.072735 -0.795
v 0.175 0 -1.113877
v 0.175 0.6534402 -0.795
v 0.175 1.072735 -0.420013
v 0.175 -2.513348E-08 -0.4200131
v 0.175 0.6534402 -0.4200131
v 0.175 -2.513348E-08 0.4200131
v -0.175 -1.202006E-08 0.4200131
v -0.175 -1.311342E-08 1.113877
v 0.175 0 1.113877
v 0.175 1.072735 0.795
v -0.175 1.072735 0.795
v -0.175 0.6534402 0.795
v 0.175 0.6534402 0.795
v -0.175 -1.311342E-08 1.113877
v -0.175 2.046158 1.116123
v 0.175 2.046158 1.116123
v 0.175 0 1.113877
v 0.175 2.046158 0
v 0.175 2.046158 1.116123
v -0.175 2.046158 1.116123
v -0.175 2.046158 0
v 0.175 2.046158 -1.116123
v -0.175 2.046158 -1.116123
v -0.175 1.072735 0.795
v -0.175 1.726175 0.420013
v -0.175 2.046158 1.116123
v -0.175 -1.311342E-08 1.113877
v -0.175 0.6534402 0.795
v -0.175 -1.202006E-08 0.4200131
v -0.175 1.726175 0
v -0.175 2.046158 0
v -0.175 1.072735 0.420013
v -0.175 0.6534402 0.4200131
v -0.175 2.046158 -1.116123
v -0.175 1.726175 -0.420013
v -0.175 1.072735 -0.795
v -0.175 -1.311342E-08 -1.113877
v -0.175 0.6534402 -0.795
v -0.175 -1.202006E-08 -0.4200131
v -0.175 1.072735 -0.420013
v -0.175 0.6534402 -0.4200131
v 0.175 1.726175 0.420013
v -0.175 1.726175 0.420013
v -0.175 1.072735 0.420013
v 0.175 1.072735 0.420013
v 0.175 0.6534402 0.4200131
v 0.175 0.6534402 0.795
v -0.175 0.6534402 0.795
v -0.175 0.6534402 0.4200131
v -0.175 1.726175 0.420013
v 0.175 1.726175 0.420013
v 0.175 1.726175 0
v -0.175 1.726175 0
v -0.175 1.726175 -0.420013
v 0.175 1.726175 -0.420013
v -0.175 1.072735 0.420013
v 0.175 1.072735 0.420013
v 0.175 1.072735 0.795
v -0.175 1.072735 0.795
v -0.175 0.6534402 0.4200131
v -0.175 -1.202006E-08 0.4200131
v 0.175 -2.513348E-08 0.4200131
v 0.175 0.6534402 0.4200131
v -0.175 -1.311342E-08 -1.113877
v -0.175 -1.202006E-08 -0.4200131
v 0.175 -2.513348E-08 -0.4200131
v 0.175 0 -1.113877
v -0.175 0.6534402 -0.795
v -0.175 1.072735 -0.795
v 0.175 1.072735 -0.795
v 0.175 0.6534402 -0.795
v -0.175 -1.311342E-08 -1.113877
v 0.175 0 -1.113877
v 0.175 2.046158 -1.116123
v -0.175 2.046158 -1.116123
v -0.175 1.726175 -0.420013
v 0.175 1.726175 -0.420013
v 0.175 1.072735 -0.420013
v -0.175 1.072735 -0.420013
v 0.175 0.6534402 -0.795
v 0.175 0.6534402 -0.4200131
v -0.175 0.6534402 -0.4200131
v -0.175 0.6534402 -0.795
v 0.175 1.072735 -0.420013
v -0.175 1.072735 -0.420013
v -0.175 1.072735 -0.795
v 0.175 1.072735 -0.795
v -0.175 -1.202006E-08 -0.4200131
v -0.175 0.6534402 -0.4200131
v 0.175 0.6534402 -0.4200131
v 0.175 -2.513348E-08 -0.4200131

vn 1 0 0
vn 1 0 0
vn 1 0 0
vn 1 0 0
vn 1 0 0
vn 1 0 0
vn 1 0 0
vn 1 0 0
vn 1 0 0
vn 1 0 0
vn 1 0 0
vn 1 0 0
vn 1 0 0
vn 1 0 0
vn 1 0 0
vn 1 0 0
vn 1 0 0
vn 1 0 0
vn 0 -1 0
vn 0 -1 0
vn 0 -1 0
vn 0 -1 0
vn 0 0 -1
vn 0 0 -1
vn 0 0 -1
vn 0 0 -1
vn 0 -0.001097619 0.9999994
vn 0 -0.001097619 0.9999994
vn 0 -0.001097619 0.9999994
vn 0 -0.001097619 0.9999994
vn 0 1 0
vn 0 1 0
vn 0 1 0
vn 0 1 0
vn 0 1 0
vn 0 1 0
vn -1 0 0
vn -1 0 0
vn -1 0 0
vn -1 0 0
vn -1 0 0
vn -1 0 0
vn -1 0 0
vn -1 0 0
vn -1 0 0
vn -1 0 0
vn -1 0 0
vn -1 0 0
vn -1 0 0
vn -1 0 0
vn -1 0 0
vn -1 0 0
vn -1 0 0
vn -1 0 0
vn 0 0 -1
vn 0 0 -1
vn 0 0 -1
vn 0 0 -1
vn 0 1 0
vn 0 1 0
vn 0 1 0
vn 0 1 0
vn 0 -1 0
vn 0 -1 0
vn 0 -1 0
vn 0 -1 0
vn 0 -1 0
vn 0 -1 0
vn 0 1 0
vn 0 1 0
vn 0 1 0
vn 0 1 0
vn 0 0 -1
vn 0 0 -1
vn 0 0 -1
vn 0 0 -1
vn 0 -1 0
vn 0 -1 0
vn 0 -1 0
vn 0 -1 0
vn 0 0 1
vn 0 0 1
vn 0 0 1
vn 0 0 1
vn 0 -0.001097619 -0.9999994
vn 0 -0.001097619 -0.9999994
vn 0 -0.001097619 -0.9999994
vn 0 -0.001097619 -0.9999994
vn 0 0 1
vn 0 0 1
vn 0 0 1
vn 0 0 1
vn 0 1 0
vn 0 1 0
vn 0 1 0
vn 0 1 0
vn 0 1 0
vn 0 1 0
vn 0 1 0
vn 0 1 0
vn 0 0 1
vn 0 0 1
vn 0 0 1
vn 0 0 1

g Support_d19
usemtl Support_d19
usemap Support_d19
f 1//1 3//3 2//2
f 4//4 1//1 2//2
f 1//1 5//5 3//3
f 6//6 3//3 5//5
f 7//7 6//6 5//5
f 1//1 8//8 5//5
f 9//9 4//4 2//2
f 9//9 10//10 4//4
f 6//6 7//7 11//11
f 12//12 6//6 11//11
f 11//11 13//13 12//12
f 12//12 13//13 14//14
f 13//13 15//15 14//14
f 16//16 13//13 11//11
f 15//15 17//17 14//14
f 18//18 17//17 15//15
f 19//19 21//21 20//20
f 19//19 22//22 21//21
f 23//23 25//25 24//24
f 23//23 26//26 25//25
f 27//27 29//29 28//28
f 27//27 30//30 29//29
f 31//31 33//33 32//32
f 31//31 34//34 33//33
f 35//35 34//34 31//31
f 35//35 36//36 34//34
f 37//37 39//39 38//38
f 40//40 39//39 37//37
f 41//41 40//40 37//37
f 42//42 40//40 41//41
f 38//38 39//39 43//43
f 39//39 44//44 43//43
f 38//38 45//45 37//37
f 41//41 46//46 42//42
f 44//44 47//47 43//43
f 47//47 48//48 43//43
f 47//47 49//49 48//48
f 47//47 50//50 49//49
f 50//50 51//51 49//49
f 50//50 52//52 51//51
f 53//53 48//48 49//49
f 54//54 51//51 52//52
f 55//55 57//57 56//56
f 55//55 58//58 57//57
f 59//59 61//61 60//60
f 59//59 62//62 61//61
f 63//63 65//65 64//64
f 63//63 66//66 65//65
f 67//67 65//65 66//66
f 67//67 68//68 65//65
f 69//69 71//71 70//70
f 69//69 72//72 71//71
f 73//73 75//75 74//74
f 73//73 76//76 75//75
f 77//77 79//79 78//78
f 77//77 80//80 79//79
f 81//81 83//83 82//82
f 81//81 84//84 83//83
f 85//85 87//87 86//86
f 85//85 88//88 87//87
f 89//89 91//91 90//90
f 89//89 92//92 91//91
f 93//93 95//95 94//94
f 93//93 96//96 95//95
f 97//97 99//99 98//98
f 97//97 100//100 99//99
f 101//101 103//103 102//102
f 101//101 104//104 103//103
