#Support_d3.obj

v 0.175 0 0.3969704
v -0.175 0 0.3969704
v -0.175 2.390711E-08 1.052164
v 0.175 2.390711E-08 1.052165
v 0.175 1.995023 -0.9521646
v 0.175 2.463871 1.052164
v 0.175 2.463871 -1.416123
v 0.175 1.995023 0.3969701
v 0.175 1.995023 1.052164
v 0.175 1.407964 -0.9521646
v 0.175 0.8391158 -0.9521645
v 0.175 1.407964 -0.3969705
v 0.175 0.8391157 -1.415
v 0.175 0 -0.3969702
v 0.175 -7.615038E-09 -0.9521644
v 0.175 1.426175 0.3969702
v 0.175 1.426175 1.052165
v 0.175 1.995023 1.415
v 0.175 0.419558 1.414158
v 0.175 0.839116 1.052164
v 0.175 0.419558 1.052164
v 0.175 0 0.3969704
v 0.175 0.839116 0.3969702
v 0.175 2.390711E-08 1.052165
v -0.175 0.839116 0.3969702
v -0.175 0 0.3969704
v 0.175 0 0.3969704
v 0.175 0.839116 0.3969702
v -0.175 0.839116 1.052164
v -0.175 0.839116 0.3969702
v 0.175 0.839116 0.3969702
v 0.175 0.839116 1.052164
v -0.175 0.839116 0.3969702
v -0.175 0.419558 1.052164
v -0.175 0 0.3969704
v -0.175 0.839116 1.052164
v -0.175 0.419558 1.414158
v -0.175 1.426175 1.052165
v -0.175 1.995023 1.415
v -0.175 1.995023 1.052165
v -0.175 1.995023 0.3969701
v -0.175 2.463871 1.052164
v -0.175 1.426175 0.3969702
v -0.175 1.995023 -0.9521646
v -0.175 2.463871 -1.416123
v -0.175 1.407964 -0.9521646
v -0.175 0.8391158 -0.9521645
v -0.175 1.407964 -0.3969702
v -0.175 0.8391157 -1.415
v -0.175 0 -0.3969702
v -0.175 -7.615038E-09 -0.9521644
v -0.175 1.426175 1.052165
v 0.175 1.426175 1.052165
v 0.175 1.426175 0.3969702
v -0.175 1.426175 0.3969702
v -0.175 -7.615038E-09 -0.9521644
v -0.175 0 -0.3969702
v 0.175 0 -0.3969702
v 0.175 -7.615038E-09 -0.9521644
v 0.175 0 -0.3969702
v -0.175 0 -0.3969702
v -0.175 1.407964 -0.3969702
v 0.175 1.407964 -0.3969705
v -0.175 1.407964 -0.3969702
v -0.175 1.407964 -0.9521646
v 0.175 1.407964 -0.9521646
v 0.175 1.407964 -0.3969705
v -0.175 2.463871 1.052164
v -0.175 2.463871 -1.416123
v 0.175 2.463871 -1.416123
v 0.175 2.463871 1.052164
v -0.175 1.995023 0.3969701
v -0.175 1.426175 0.3969702
v 0.175 1.426175 0.3969702
v 0.175 1.995023 0.3969701
v -0.175 1.995023 -0.9521646
v -0.175 1.995023 0.3969701
v 0.175 1.995023 0.3969701
v 0.175 1.995023 -0.9521646
v 0.175 1.407964 -0.9521646
v -0.175 1.407964 -0.9521646
v -0.175 1.995023 -0.9521646
v 0.175 1.995023 -0.9521646
v -0.175 -7.615038E-09 -0.9521644
v 0.175 -7.615038E-09 -0.9521644
v 0.175 0.8391158 -0.9521645
v -0.175 0.8391158 -0.9521645
v 0.175 0.8391157 -1.415
v -0.175 0.8391157 -1.415
v -0.175 0.8391158 -0.9521645
v 0.175 0.8391158 -0.9521645
v -0.175 0.8391157 -1.415
v 0.175 0.8391157 -1.415
v 0.175 2.463871 -1.416123
v -0.175 2.463871 -1.416123
v 0.175 1.995023 1.415
v -0.175 1.995023 1.415
v -0.175 1.995023 1.052165
v 0.175 1.995023 1.052164
v 0.175 2.463871 1.052164
v 0.175 1.995023 1.052164
v -0.175 1.995023 1.052165
v -0.175 2.463871 1.052164
v -0.175 0.839116 1.052164
v 0.175 0.839116 1.052164
v 0.175 1.426175 1.052165
v -0.175 1.426175 1.052165
v 0.175 0.419558 1.414158
v -0.175 0.419558 1.414158
v -0.175 1.995023 1.415
v 0.175 1.995023 1.415
v 0.175 0.419558 1.414158
v 0.175 0.419558 1.052164
v -0.175 0.419558 1.052164
v -0.175 0.419558 1.414158
v -0.175 2.390711E-08 1.052164
v -0.175 0.419558 1.052164
v 0.175 0.419558 1.052164
v 0.175 2.390711E-08 1.052165
v -0.175 2.390711E-08 1.052164

vn 0 -1 0
vn 0 -1 0
vn 0 -1 0
vn 0 -1 0
vn 1 0 0
vn 1 0 0
vn 1 0 0
vn 1 0 0
vn 1 0 0
vn 1 0 0
vn 1 0 0
vn 1 0 0
vn 1 0 0
vn 1 0 0
vn 1 0 0
vn 1 0 0
vn 1 0 0
vn 1 0 0
vn 1 0 0
vn 1 0 0
vn 1 0 0
vn 1 0 0
vn 1 0 0
vn 1 0 0
vn 0 0 -1
vn 0 0 -1
vn 0 0 -1
vn 0 0 -1
vn 0 1 0
vn 0 1 0
vn 0 1 0
vn 0 1 0
vn -1 0 0
vn -1 0 0
vn -1 0 0
vn -1 0 0
vn -1 0 0
vn -1 0 0
vn -1 0 0
vn -1 0 0
vn -1 0 0
vn -1 0 0
vn -1 0 0
vn -1 0 0
vn -1 0 0
vn -1 0 0
vn -1 0 0
vn -1 0 0
vn -1 0 0
vn -1 0 0
vn -1 0 0
vn 0 -1 0
vn 0 -1 0
vn 0 -1 0
vn 0 -1 0
vn 0 -1 0
vn 0 -1 0
vn 0 -1 0
vn 0 -1 0
vn 0 0 1
vn 0 0 1
vn 0 0 1
vn 0 0 1
vn 0 1 0
vn 0 1 0
vn 0 1 0
vn 0 1 0
vn 0 1 0
vn 0 1 0
vn 0 1 0
vn 0 1 0
vn 0 0 -1
vn 0 0 -1
vn 0 0 -1
vn 0 0 -1
vn 0 -1 0
vn 0 -1 0
vn 0 -1 0
vn 0 -1 0
vn 0 0 1
vn 0 0 1
vn 0 0 1
vn 0 0 1
vn 0 0 -1
vn 0 0 -1
vn 0 0 -1
vn 0 0 -1
vn 0 -1 0
vn 0 -1 0
vn 0 -1 0
vn 0 -1 0
vn 0 -0.0006911511 -0.9999998
vn 0 -0.0006911511 -0.9999998
vn 0 -0.0006911511 -0.9999998
vn 0 -0.0006911511 -0.9999998
vn 0 1 0
vn 0 1 0
vn 0 1 0
vn 0 1 0
vn 0 0 1
vn 0 0 1
vn 0 0 1
vn 0 0 1
vn 0 0 -1
vn 0 0 -1
vn 0 0 -1
vn 0 0 -1
vn 0 -0.0005345053 0.9999999
vn 0 -0.0005345053 0.9999999
vn 0 -0.0005345053 0.9999999
vn 0 -0.0005345053 0.9999999
vn 0 -1 0
vn 0 -1 0
vn 0 -1 0
vn 0 -1 0
vn 0 0 1
vn 0 0 1
vn 0 0 1
vn 0 0 1
vn -1 0 0

g Support_d3
usemtl Support_d3
usemap Support_d3
f 1//1 3//3 2//2
f 1//1 4//4 3//3
f 5//5 7//7 6//6
f 8//8 5//5 6//6
f 9//9 8//8 6//6
f 7//7 5//5 10//10
f 7//7 10//10 11//11
f 11//11 10//10 12//12
f 11//11 13//13 7//7
f 11//11 12//12 14//14
f 15//15 11//11 14//14
f 16//16 8//8 9//9
f 16//16 9//9 17//17
f 9//9 18//18 17//17
f 17//17 18//18 19//19
f 20//20 17//17 19//19
f 20//20 19//19 21//21
f 20//20 21//21 22//22
f 23//23 20//20 22//22
f 21//21 24//24 22//22
f 25//25 27//27 26//26
f 25//25 28//28 27//27
f 29//29 31//31 30//30
f 29//29 32//32 31//31
f 33//33 35//35 34//34
f 36//36 33//33 34//34
f 34//34 37//37 36//36
f 36//36 37//37 38//38
f 37//37 39//39 38//38
f 40//40 38//38 39//39
f 38//38 40//40 41//41
f 41//41 40//40 42//42
f 43//43 38//38 41//41
f 41//41 42//42 44//44
f 42//42 45//45 44//44
f 46//46 44//44 45//45
f 47//47 46//46 45//45
f 48//48 46//46 47//47
f 45//45 49//49 47//47
f 50//50 48//48 47//47
f 51//51 50//50 47//47
f 52//52 54//54 53//53
f 52//52 55//55 54//54
f 56//56 58//58 57//57
f 56//56 59//59 58//58
f 60//60 62//62 61//61
f 60//60 63//63 62//62
f 64//64 66//66 65//65
f 64//64 67//67 66//66
f 68//68 70//70 69//69
f 68//68 71//71 70//70
f 72//72 74//74 73//73
f 72//72 75//75 74//74
f 76//76 78//78 77//77
f 76//76 79//79 78//78
f 80//80 82//82 81//81
f 80//80 83//83 82//82
f 84//84 86//86 85//85
f 84//84 87//87 86//86
f 88//88 90//90 89//89
f 88//88 91//91 90//90
f 92//92 94//94 93//93
f 92//92 95//95 94//94
f 96//96 98//98 97//97
f 96//96 99//99 98//98
f 100//100 102//102 101//101
f 100//100 103//103 102//102
f 104//104 106//106 105//105
f 104//104 107//107 106//106
f 108//108 110//110 109//109
f 108//108 111//111 110//110
f 112//112 114//114 113//113
f 112//112 115//115 114//114
f 116//116 118//118 117//117
f 116//116 119//119 118//118
f 34//34 35//35 120//120
