#Support_d17.obj

v 0.175 2.026175 0.795
v 0.175 0 1.113877
v 0.175 2.346158 1.116123
v 0.175 0.6534402 0.795
v 0.175 -2.950462E-08 0.3200131
v 0.175 2.026175 -0.320013
v 0.175 2.346158 -1.116123
v 0.175 0.6534402 0.3200131
v 0.175 1.072735 -0.795
v 0.175 0 -1.113877
v 0.175 -4.152468E-08 -0.7950001
v 0.175 1.072735 -0.320013
v 0.175 -2.950462E-08 0.3200131
v -0.175 -1.63912E-08 0.3200131
v -0.175 -1.311342E-08 1.113877
v 0.175 0 1.113877
v -0.175 2.026175 0.795
v -0.175 0.6534402 0.795
v 0.175 0.6534402 0.795
v 0.175 2.026175 0.795
v -0.175 -1.311342E-08 1.113877
v -0.175 2.346158 1.116123
v 0.175 2.346158 1.116123
v 0.175 0 1.113877
v -0.175 2.026175 -0.320013
v -0.175 2.346158 1.116123
v -0.175 2.026175 0.795
v -0.175 2.346158 -1.116123
v -0.175 -1.311342E-08 1.113877
v -0.175 0.6534402 0.795
v -0.175 -1.63912E-08 0.3200131
v -0.175 0.6534402 0.3200131
v -0.175 1.072735 -0.795
v -0.175 -1.311342E-08 -1.113877
v -0.175 -2.841126E-08 -0.7950001
v -0.175 1.072735 -0.320013
v 0.175 0.6534402 0.3200131
v 0.175 0.6534402 0.795
v -0.175 0.6534402 0.795
v -0.175 0.6534402 0.3200131
v 0.175 2.026175 -0.320013
v -0.175 2.026175 -0.320013
v -0.175 2.026175 0.795
v 0.175 2.026175 0.795
v -0.175 0.6534402 0.3200131
v -0.175 -1.63912E-08 0.3200131
v 0.175 -2.950462E-08 0.3200131
v 0.175 0.6534402 0.3200131
v -0.175 -2.841126E-08 -0.7950001
v 0.175 -4.152468E-08 -0.7950001
v 0.175 0 -1.113877
v -0.175 -1.311342E-08 -1.113877
v -0.175 -2.841126E-08 -0.7950001
v -0.175 1.072735 -0.795
v 0.175 1.072735 -0.795
v 0.175 -4.152468E-08 -0.7950001
v -0.175 -1.311342E-08 -1.113877
v 0.175 0 -1.113877
v 0.175 2.346158 -1.116123
v -0.175 2.346158 -1.116123
v -0.175 1.072735 -0.320013
v -0.175 2.026175 -0.320013
v 0.175 2.026175 -0.320013
v 0.175 1.072735 -0.320013
v 0.175 1.072735 -0.795
v 0.175 1.072735 -0.320013
v -0.175 1.072735 -0.320013
v -0.175 1.072735 -0.795
v 0.175 2.346158 1.116123
v -0.175 2.346158 1.116123
v -0.175 2.346158 -1.116123
v 0.175 2.346158 -1.116123

vn 1 0 0
vn 1 0 0
vn 1 0 0
vn 1 0 0
vn 1 0 0
vn 1 0 0
vn 1 0 0
vn 1 0 0
vn 1 0 0
vn 1 0 0
vn 1 0 0
vn 1 0 0
vn 0 -1 0
vn 0 -1 0
vn 0 -1 0
vn 0 -1 0
vn 0 0 -1
vn 0 0 -1
vn 0 0 -1
vn 0 0 -1
vn 0 -0.0009572682 0.9999995
vn 0 -0.0009572682 0.9999995
vn 0 -0.0009572682 0.9999995
vn 0 -0.0009572682 0.9999995
vn -1 0 0
vn -1 0 0
vn -1 0 0
vn -1 0 0
vn -1 0 0
vn -1 0 0
vn -1 0 0
vn -1 0 0
vn -1 0 0
vn -1 0 0
vn -1 0 0
vn -1 0 0
vn 0 1 0
vn 0 1 0
vn 0 1 0
vn 0 1 0
vn 0 -1 0
vn 0 -1 0
vn 0 -1 0
vn 0 -1 0
vn 0 0 -1
vn 0 0 -1
vn 0 0 -1
vn 0 0 -1
vn 0 -1 0
vn 0 -1 0
vn 0 -1 0
vn 0 -1 0
vn 0 0 1
vn 0 0 1
vn 0 0 1
vn 0 0 1
vn 0 -0.0009572682 -0.9999995
vn 0 -0.0009572682 -0.9999995
vn 0 -0.0009572682 -0.9999995
vn 0 -0.0009572682 -0.9999995
vn 0 0 1
vn 0 0 1
vn 0 0 1
vn 0 0 1
vn 0 1 0
vn 0 1 0
vn 0 1 0
vn 0 1 0
vn 0 1 0
vn 0 1 0
vn 0 1 0
vn 0 1 0

g Support_d17
usemtl Support_d17
usemap Support_d17
f 1//1 3//3 2//2
f 4//4 1//1 2//2
f 5//5 4//4 2//2
f 3//3 1//1 6//6
f 7//7 3//3 6//6
f 5//5 8//8 4//4
f 6//6 9//9 7//7
f 7//7 9//9 10//10
f 9//9 11//11 10//10
f 12//12 9//9 6//6
f 13//13 15//15 14//14
f 13//13 16//16 15//15
f 17//17 19//19 18//18
f 17//17 20//20 19//19
f 21//21 23//23 22//22
f 21//21 24//24 23//23
f 25//25 27//27 26//26
f 28//28 25//25 26//26
f 29//29 26//26 27//27
f 30//30 29//29 27//27
f 31//31 29//29 30//30
f 30//30 32//32 31//31
f 28//28 33//33 25//25
f 28//28 34//34 33//33
f 34//34 35//35 33//33
f 36//36 25//25 33//33
f 37//37 39//39 38//38
f 37//37 40//40 39//39
f 41//41 43//43 42//42
f 41//41 44//44 43//43
f 45//45 47//47 46//46
f 45//45 48//48 47//47
f 49//49 51//51 50//50
f 49//49 52//52 51//51
f 53//53 55//55 54//54
f 53//53 56//56 55//55
f 57//57 59//59 58//58
f 57//57 60//60 59//59
f 61//61 63//63 62//62
f 61//61 64//64 63//63
f 65//65 67//67 66//66
f 65//65 68//68 67//67
f 69//69 71//71 70//70
f 69//69 72//72 71//71
