#Support_d20.obj

v -0.175 1.6 0.5513474
v -0.175 2.463871 0.3018674
v -0.175 2.463871 1.416123
v -0.175 1.9 0.3018675
v -0.175 1.6 1.413877
v -0.175 1.2 1.413877
v -0.175 1.2 0.8513474
v -0.175 0.8 1.413877
v -0.175 0.8 0.5513475
v -0.175 0.4 1.413877
v -0.175 0.4000001 0.8513476
v -0.175 0 1.413877
v -0.175 3.695528E-08 0.5513476
v -0.175 2.463871 0
v -0.175 1.6 0
v -0.175 1.9 -0.3018675
v -0.175 2.463871 -0.3018674
v -0.175 1.6 -0.5513474
v -0.175 1.6 -1.413877
v -0.175 2.463871 -1.416123
v -0.175 1.2 -1.413877
v -0.175 1.2 -0.8513474
v -0.175 0.8 -1.413877
v -0.175 0.8 -0.5513475
v -0.175 0.4 -1.413877
v -0.175 0.4000001 -0.8513476
v -0.175 0 -1.413877
v -0.175 3.695528E-08 -0.5513476
v -0.175 1.9 0.3018675
v -0.175 1.6 0.5513474
v 0.175 1.6 0.551347
v 0.175 1.9 0.3018675
v -0.175 3.695528E-08 0.5513476
v -0.175 0 1.413877
v 0.175 0 1.413877
v 0.175 3.695528E-08 0.5513476
v 0.175 1.6 0.551347
v 0.175 2.463871 0.3018674
v 0.175 1.9 0.3018675
v 0.175 1.6 1.413877
v 0.175 2.463871 1.416123
v 0.175 1.2 1.413877
v 0.175 1.2 0.8513474
v 0.175 0.8 1.413877
v 0.175 0.8 0.5513475
v 0.175 0.4 1.413877
v 0.175 0.4000001 0.8513476
v 0.175 0 1.413877
v 0.175 3.695528E-08 0.5513476
v 0.175 2.463871 0
v 0.175 1.6 0
v 0.175 1.9 -0.3018675
v 0.175 2.463871 -0.3018674
v 0.175 1.6 -0.551347
v 0.175 2.463871 -1.416123
v 0.175 1.6 -1.413877
v 0.175 1.2 -1.413877
v 0.175 1.2 -0.8513474
v 0.175 0.8 -1.413877
v 0.175 0.8 -0.5513475
v 0.175 0.4 -1.413877
v 0.175 0.4000001 -0.8513476
v 0.175 0 -1.413877
v 0.175 3.695528E-08 -0.5513476
v -0.175 0.4000001 0.8513476
v -0.175 3.695528E-08 0.5513476
v 0.175 3.695528E-08 0.5513476
v 0.175 0.4000001 0.8513476
v 0.175 0 1.413877
v -0.175 0 1.413877
v -0.175 0.4 1.413877
v 0.175 0.4 1.413877
v 0.175 0.8 1.413877
v -0.175 0.8 1.413877
v 0.175 1.2 1.413877
v -0.175 1.2 1.413877
v 0.175 1.6 1.413877
v -0.175 1.6 1.413877
v -0.175 2.463871 1.416123
v 0.175 2.463871 1.416123
v -0.175 0.8 0.5513475
v -0.175 0.4000001 0.8513476
v 0.175 0.4000001 0.8513476
v 0.175 0.8 0.5513475
v -0.175 0.8 0.5513475
v 0.175 0.8 0.5513475
v 0.175 1.2 0.8513474
v -0.175 1.2 0.8513474
v -0.175 1.2 0.8513474
v 0.175 1.2 0.8513474
v 0.175 1.6 0.551347
v -0.175 1.6 0.5513474
v 0.175 2.463871 0
v 0.175 2.463871 0.3018674
v -0.175 2.463871 0.3018674
v -0.175 2.463871 0
v 0.175 2.463871 1.416123
v -0.175 2.463871 1.416123
v 0.175 2.463871 -0.3018674
v -0.175 2.463871 -0.3018674
v -0.175 2.463871 -1.416123
v 0.175 2.463871 -1.416123
v -0.175 1.9 0.3018675
v 0.175 1.9 0.3018675
v 0.175 1.6 0
v -0.175 1.6 0
v 0.175 1.6 -0.551347
v -0.175 1.6 -0.5513474
v -0.175 1.9 -0.3018675
v 0.175 1.9 -0.3018675
v -0.175 0 -1.413877
v -0.175 3.695528E-08 -0.5513476
v 0.175 3.695528E-08 -0.5513476
v 0.175 0 -1.413877
v -0.175 3.695528E-08 -0.5513476
v -0.175 0.4000001 -0.8513476
v 0.175 0.4000001 -0.8513476
v 0.175 3.695528E-08 -0.5513476
v -0.175 0.4 -1.413877
v -0.175 0 -1.413877
v 0.175 0 -1.413877
v 0.175 0.4 -1.413877
v -0.175 0.8 -1.413877
v 0.175 0.8 -1.413877
v -0.175 1.2 -1.413877
v 0.175 1.2 -1.413877
v -0.175 1.6 -1.413877
v 0.175 1.6 -1.413877
v 0.175 2.463871 -1.416123
v -0.175 2.463871 -1.416123
v -0.175 0.4000001 -0.8513476
v -0.175 0.8 -0.5513475
v 0.175 0.8 -0.5513475
v 0.175 0.4000001 -0.8513476
v 0.175 0.8 -0.5513475
v -0.175 0.8 -0.5513475
v -0.175 1.2 -0.8513474
v 0.175 1.2 -0.8513474
v 0.175 1.2 -0.8513474
v -0.175 1.2 -0.8513474
v -0.175 1.6 -0.5513474
v 0.175 1.6 -0.551347
v -0.175 1.9 -0.3018675
v -0.175 1.6 0
v 0.175 1.6 0
v 0.175 1.9 -0.3018675

vn -1 0 0
vn -1 0 0
vn -1 0 0
vn -1 0 0
vn -1 0 0
vn -1 0 0
vn -1 0 0
vn -1 0 0
vn -1 0 0
vn -1 0 0
vn -1 0 0
vn -1 0 0
vn -1 0 0
vn -1 0 0
vn -1 0 0
vn -1 0 0
vn -1 0 0
vn -1 0 0
vn -1 0 0
vn -1 0 0
vn -1 0 0
vn -1 0 0
vn -1 0 0
vn -1 0 0
vn -1 0 0
vn -1 0 0
vn -1 0 0
vn -1 0 0
vn 0 -0.639397 -0.7688767
vn 0 -0.639397 -0.7688767
vn 0 -0.639397 -0.7688767
vn 0 -0.639397 -0.7688767
vn 0 -1 0
vn 0 -1 0
vn 0 -1 0
vn 0 -1 0
vn 1 0 0
vn 1 0 0
vn 1 0 0
vn 1 0 0
vn 1 0 0
vn 1 0 0
vn 1 0 0
vn 1 0 0
vn 1 0 0
vn 1 0 0
vn 1 0 0
vn 1 0 0
vn 1 0 0
vn 1 0 0
vn 1 0 0
vn 1 0 0
vn 1 0 0
vn 1 0 0
vn 1 0 0
vn 1 0 0
vn 1 0 0
vn 1 0 0
vn 1 0 0
vn 1 0 0
vn 1 0 0
vn 1 0 0
vn 1 0 0
vn 1 0 0
vn 0 0.6 -0.8000001
vn 0 0.6 -0.8000001
vn 0 0.6 -0.8000001
vn 0 0.6 -0.8000001
vn 0 0 1
vn 0 0 1
vn 0 0 1
vn 0 0 1
vn 0 0 1
vn 0 0 1
vn 0 0 1
vn 0 0 1
vn 0 0 1
vn 0 0 1
vn 0 -0.002600357 0.9999967
vn 0 -0.002600357 0.9999967
vn 0 -0.6000002 -0.7999998
vn 0 -0.6000002 -0.7999998
vn 0 -0.6000002 -0.7999998
vn 0 -0.6000002 -0.7999998
vn 0 0.6 -0.8
vn 0 0.6 -0.8
vn 0 0.6 -0.8
vn 0 0.6 -0.8
vn 0 -0.6000004 -0.7999997
vn 0 -0.6000004 -0.7999997
vn 0 -0.6000004 -0.7999997
vn 0 -0.6000004 -0.7999997
vn 0 1 0
vn 0 1 0
vn 0 1 0
vn 0 1 0
vn 0 1 0
vn 0 1 0
vn 0 1 0
vn 0 1 0
vn 0 1 0
vn 0 1 0
vn 0 -0.7092975 0.7049093
vn 0 -0.7092975 0.7049093
vn 0 -0.7092975 0.7049093
vn 0 -0.7092975 0.7049093
vn 0 -0.639397 0.7688767
vn 0 -0.639397 0.7688767
vn 0 -0.639397 0.7688767
vn 0 -0.639397 0.7688767
vn 0 -1 0
vn 0 -1 0
vn 0 -1 0
vn 0 -1 0
vn 0 0.6 0.8000001
vn 0 0.6 0.8000001
vn 0 0.6 0.8000001
vn 0 0.6 0.8000001
vn 0 0 -1
vn 0 0 -1
vn 0 0 -1
vn 0 0 -1
vn 0 0 -1
vn 0 0 -1
vn 0 0 -1
vn 0 0 -1
vn 0 0 -1
vn 0 0 -1
vn 0 -0.002600356 -0.9999967
vn 0 -0.002600356 -0.9999967
vn 0 -0.6000002 0.7999998
vn 0 -0.6000002 0.7999998
vn 0 -0.6000002 0.7999998
vn 0 -0.6000002 0.7999998
vn 0 0.6 0.8
vn 0 0.6 0.8
vn 0 0.6 0.8
vn 0 0.6 0.8
vn 0 -0.6000004 0.7999997
vn 0 -0.6000004 0.7999997
vn 0 -0.6000004 0.7999997
vn 0 -0.6000004 0.7999997
vn 0 -0.7092975 -0.7049093
vn 0 -0.7092975 -0.7049093
vn 0 -0.7092975 -0.7049093
vn 0 -0.7092975 -0.7049093

g Support_d20
usemtl Support_d20
usemap Support_d20
f 1//1 3//3 2//2
f 4//4 1//1 2//2
f 5//5 3//3 1//1
f 6//6 5//5 1//1
f 7//7 6//6 1//1
f 8//8 6//6 7//7
f 9//9 8//8 7//7
f 10//10 8//8 9//9
f 11//11 10//10 9//9
f 12//12 10//10 11//11
f 13//13 12//12 11//11
f 4//4 2//2 14//14
f 15//15 4//4 14//14
f 16//16 15//15 14//14
f 17//17 16//16 14//14
f 18//18 16//16 17//17
f 19//19 18//18 17//17
f 19//19 17//17 20//20
f 19//19 21//21 18//18
f 21//21 22//22 18//18
f 21//21 23//23 22//22
f 23//23 24//24 22//22
f 23//23 25//25 24//24
f 25//25 26//26 24//24
f 25//25 27//27 26//26
f 27//27 28//28 26//26
f 29//29 31//31 30//30
f 29//29 32//32 31//31
f 33//33 35//35 34//34
f 33//33 36//36 35//35
f 37//37 39//39 38//38
f 40//40 37//37 38//38
f 40//40 38//38 41//41
f 37//37 40//40 42//42
f 43//43 37//37 42//42
f 43//43 42//42 44//44
f 45//45 43//43 44//44
f 45//45 44//44 46//46
f 47//47 45//45 46//46
f 47//47 46//46 48//48
f 49//49 47//47 48//48
f 38//38 39//39 50//50
f 39//39 51//51 50//50
f 51//51 52//52 50//50
f 52//52 53//53 50//50
f 52//52 54//54 53//53
f 55//55 53//53 54//54
f 55//55 54//54 56//56
f 56//56 54//54 57//57
f 54//54 58//58 57//57
f 57//57 58//58 59//59
f 58//58 60//60 59//59
f 59//59 60//60 61//61
f 60//60 62//62 61//61
f 61//61 62//62 63//63
f 62//62 64//64 63//63
f 65//65 67//67 66//66
f 65//65 68//68 67//67
f 69//69 71//71 70//70
f 69//69 72//72 71//71
f 71//71 72//72 73//73
f 71//71 73//73 74//74
f 74//74 73//73 75//75
f 74//74 75//75 76//76
f 76//76 75//75 77//77
f 76//76 77//77 78//78
f 79//79 78//78 77//77
f 79//79 77//77 80//80
f 81//81 83//83 82//82
f 81//81 84//84 83//83
f 85//85 87//87 86//86
f 85//85 88//88 87//87
f 89//89 91//91 90//90
f 89//89 92//92 91//91
f 93//93 95//95 94//94
f 93//93 96//96 95//95
f 97//97 94//94 95//95
f 97//97 95//95 98//98
f 99//99 96//96 93//93
f 99//99 100//100 96//96
f 101//101 100//100 99//99
f 101//101 99//99 102//102
f 103//103 105//105 104//104
f 103//103 106//106 105//105
f 107//107 109//109 108//108
f 107//107 110//110 109//109
f 111//111 113//113 112//112
f 111//111 114//114 113//113
f 115//115 117//117 116//116
f 115//115 118//118 117//117
f 119//119 121//121 120//120
f 119//119 122//122 121//121
f 123//123 122//122 119//119
f 123//123 124//124 122//122
f 125//125 124//124 123//123
f 125//125 126//126 124//124
f 127//127 126//126 125//125
f 127//127 128//128 126//126
f 129//129 128//128 127//127
f 129//129 127//127 130//130
f 131//131 133//133 132//132
f 131//131 134//134 133//133
f 135//135 137//137 136//136
f 135//135 138//138 137//137
f 139//139 141//141 140//140
f 139//139 142//142 141//141
f 143//143 145//145 144//144
f 143//143 146//146 145//145
