#Support_d21.obj

v -0.175 -4.371138E-09 0.895
v -0.175 0 1.413877
v 0.175 0 1.413877
v 0.175 -4.371138E-09 0.895
v -0.175 -4.371138E-09 0.895
v -0.175 0.519558 0.895
v -0.175 0 1.413877
v -0.175 1.052401 0.8949999
v -0.175 0.519558 0.4513475
v -0.175 1.626175 0.4513475
v -0.175 2.063871 0.8949997
v -0.175 2.063871 -1.416123
v -0.175 1.626175 -0.8949999
v -0.175 0.519558 -1.414635
v -0.175 1.039116 -0.895
v -0.175 1.052401 1.415
v -0.175 0.519558 -0.8949999
v -0.175 0 -0.4513476
v -0.175 1.039116 -0.4513476
v -0.175 6.127854E-09 -0.8949998
v 0.175 1.626175 0.4513475
v 0.175 1.052401 0.8949999
v 0.175 2.063871 0.8949997
v 0.175 0.519558 0.4513475
v 0.175 0.519558 0.895
v 0.175 0 1.413877
v 0.175 -4.371138E-09 0.895
v 0.175 1.052401 1.415
v 0.175 2.063871 -1.416123
v 0.175 1.626175 -0.8949999
v 0.175 0.519558 -1.414635
v 0.175 1.039116 -0.895
v 0.175 0.519558 -0.8949999
v 0.175 0 -0.4513476
v 0.175 1.039116 -0.4513476
v 0.175 6.127854E-09 -0.8949998
v -0.175 0.519558 0.895
v -0.175 -4.371138E-09 0.895
v 0.175 -4.371138E-09 0.895
v 0.175 0.519558 0.895
v -0.175 0 1.413877
v -0.175 1.052401 1.415
v 0.175 1.052401 1.415
v 0.175 0 1.413877
v -0.175 0.519558 0.895
v 0.175 0.519558 0.895
v 0.175 0.519558 0.4513475
v -0.175 0.519558 0.4513475
v 0.175 1.626175 0.4513475
v -0.175 1.626175 0.4513475
v -0.175 0.519558 0.4513475
v 0.175 0.519558 0.4513475
v -0.175 1.626175 0.4513475
v 0.175 1.626175 0.4513475
v 0.175 1.626175 -0.8949999
v -0.175 1.626175 -0.8949999
v 0.175 2.063871 -1.416123
v 0.175 2.063871 0.8949997
v -0.175 2.063871 0.8949997
v -0.175 2.063871 -1.416123
v -0.175 6.127854E-09 -0.8949998
v -0.175 0 -0.4513476
v 0.175 0 -0.4513476
v 0.175 6.127854E-09 -0.8949998
v -0.175 0.519558 -1.414635
v 0.175 0.519558 -1.414635
v 0.175 2.063871 -1.416123
v -0.175 2.063871 -1.416123
v -0.175 0 -0.4513476
v -0.175 1.039116 -0.4513476
v 0.175 1.039116 -0.4513476
v 0.175 0 -0.4513476
v -0.175 1.039116 -0.4513476
v -0.175 1.039116 -0.895
v 0.175 1.039116 -0.895
v 0.175 1.039116 -0.4513476
v 0.175 1.039116 -0.895
v -0.175 1.039116 -0.895
v -0.175 1.626175 -0.8949999
v 0.175 1.626175 -0.8949999
v 0.175 1.052401 0.8949999
v 0.175 1.052401 1.415
v -0.175 1.052401 1.415
v -0.175 1.052401 0.8949999
v -0.175 1.052401 0.8949999
v -0.175 2.063871 0.8949997
v 0.175 2.063871 0.8949997
v 0.175 1.052401 0.8949999
v 0.175 0.519558 -0.8949999
v 0.175 0.519558 -1.414635
v -0.175 0.519558 -1.414635
v -0.175 0.519558 -0.8949999
v -0.175 0.519558 -0.8949999
v -0.175 6.127854E-09 -0.8949998
v 0.175 6.127854E-09 -0.8949998
v 0.175 0.519558 -0.8949999

vn 0 -1 0
vn 0 -1 0
vn 0 -1 0
vn 0 -1 0
vn -1 0 0
vn -1 0 0
vn -1 0 0
vn -1 0 0
vn -1 0 0
vn -1 0 0
vn -1 0 0
vn -1 0 0
vn -1 0 0
vn -1 0 0
vn -1 0 0
vn -1 0 0
vn -1 0 0
vn -1 0 0
vn -1 0 0
vn -1 0 0
vn 1 0 0
vn 1 0 0
vn 1 0 0
vn 1 0 0
vn 1 0 0
vn 1 0 0
vn 1 0 0
vn 1 0 0
vn 1 0 0
vn 1 0 0
vn 1 0 0
vn 1 0 0
vn 1 0 0
vn 1 0 0
vn 1 0 0
vn 1 0 0
vn 0 0 -1
vn 0 0 -1
vn 0 0 -1
vn 0 0 -1
vn 0 -0.001067037 0.9999994
vn 0 -0.001067037 0.9999994
vn 0 -0.001067037 0.9999994
vn 0 -0.001067037 0.9999994
vn 0 -1 0
vn 0 -1 0
vn 0 -1 0
vn 0 -1 0
vn 0 0 -1
vn 0 0 -1
vn 0 0 -1
vn 0 0 -1
vn 0 -1 0
vn 0 -1 0
vn 0 -1 0
vn 0 -1 0
vn 0 1 0
vn 0 1 0
vn 0 1 0
vn 0 1 0
vn 0 -1 0
vn 0 -1 0
vn 0 -1 0
vn 0 -1 0
vn 0 -0.0009634385 -0.9999995
vn 0 -0.0009634385 -0.9999995
vn 0 -0.0009634385 -0.9999995
vn 0 -0.0009634385 -0.9999995
vn 0 0 1
vn 0 0 1
vn 0 0 1
vn 0 0 1
vn 0 1 0
vn 0 1 0
vn 0 1 0
vn 0 1 0
vn 0 0 1
vn 0 0 1
vn 0 0 1
vn 0 0 1
vn 0 1 0
vn 0 1 0
vn 0 1 0
vn 0 1 0
vn 0 0 1
vn 0 0 1
vn 0 0 1
vn 0 0 1
vn 0 -1 0
vn 0 -1 0
vn 0 -1 0
vn 0 -1 0
vn 0 0 -1
vn 0 0 -1
vn 0 0 -1
vn 0 0 -1

g Support_d21
usemtl Support_d21
usemap Support_d21
f 1//1 3//3 2//2
f 1//1 4//4 3//3
f 5//5 7//7 6//6
f 6//6 7//7 8//8
f 6//6 8//8 9//9
f 9//9 8//8 10//10
f 8//8 11//11 10//10
f 12//12 10//10 11//11
f 13//13 10//10 12//12
f 12//12 14//14 13//13
f 14//14 15//15 13//13
f 7//7 16//16 8//8
f 14//14 17//17 15//15
f 17//17 18//18 15//15
f 18//18 19//19 15//15
f 20//20 18//18 17//17
f 21//21 23//23 22//22
f 24//24 21//21 22//22
f 25//25 24//24 22//22
f 25//25 22//22 26//26
f 27//27 25//25 26//26
f 22//22 28//28 26//26
f 29//29 23//23 21//21
f 29//29 21//21 30//30
f 29//29 30//30 31//31
f 30//30 32//32 31//31
f 32//32 33//33 31//31
f 34//34 33//33 32//32
f 35//35 34//34 32//32
f 33//33 34//34 36//36
f 37//37 39//39 38//38
f 37//37 40//40 39//39
f 41//41 43//43 42//42
f 41//41 44//44 43//43
f 45//45 47//47 46//46
f 45//45 48//48 47//47
f 49//49 51//51 50//50
f 49//49 52//52 51//51
f 53//53 55//55 54//54
f 53//53 56//56 55//55
f 57//57 59//59 58//58
f 57//57 60//60 59//59
f 61//61 63//63 62//62
f 61//61 64//64 63//63
f 65//65 67//67 66//66
f 65//65 68//68 67//67
f 69//69 71//71 70//70
f 69//69 72//72 71//71
f 73//73 75//75 74//74
f 73//73 76//76 75//75
f 77//77 79//79 78//78
f 77//77 80//80 79//79
f 81//81 83//83 82//82
f 81//81 84//84 83//83
f 85//85 87//87 86//86
f 85//85 88//88 87//87
f 89//89 91//91 90//90
f 89//89 92//92 91//91
f 93//93 95//95 94//94
f 93//93 96//96 95//95
