#Support_d7.obj

v 0.1749999 2.385912 -1.024826
v -0.1750001 2.385912 -1.025
v -0.175 0.0002156496 -1.025
v 0.175 0.0002156359 -1.025
v 0.1749999 1.891112 -0.675
v 0.175 0.0002155602 -0.675
v -0.175 0.0002155602 -0.675
v -0.1750001 1.891112 -0.675
v -0.1750001 1.891112 -0.675
v -0.175 0.0002156496 -1.025
v -0.1750001 2.385912 -1.025
v -0.175 0.0002155602 -0.675
v -0.1750001 2.385912 -0.175
v -0.1750001 1.891112 -0.175
v -0.175 -0.004799732 1.720701
v -0.1750001 1.891007 -0.1749999
v -0.175 0.004729054 2.206147
v 0.1749999 2.385912 -1.024826
v 0.175 0.0002155602 -0.675
v 0.1749999 1.891112 -0.675
v 0.175 0.0002156359 -1.025
v 0.1749999 1.891112 -0.1748949
v 0.1749999 2.385912 -0.174913
v 0.175 0.004729054 2.206147
v 0.175 -0.004799732 1.720701
v -0.175 0.0002156496 -1.025
v -0.175 0.0002155602 -0.675
v 0.175 0.0002155602 -0.675
v 0.175 0.0002156359 -1.025
v 0.1749999 1.891112 -0.1748949
v -0.1750001 1.891007 -0.1749999
v -0.175 -0.004799732 1.720701
v 0.175 -0.004799732 1.720701
v -0.1750001 2.385912 -0.175
v 0.1749999 2.385912 -0.174913
v 0.175 0.004729054 2.206147
v -0.175 0.004729054 2.206147
v -0.175 0.004729054 2.206147
v 0.175 0.004729054 2.206147
v 0.175 -0.004799732 1.720701
v -0.175 -0.004799732 1.720701
v 0.1749999 1.891112 -0.675
v -0.1750001 1.891112 -0.675
v -0.1750001 1.891112 -0.175
v 0.1749999 1.891112 -0.1748949
v 0.1749999 2.385912 -0.174913
v -0.1750001 2.385912 -0.175
v -0.1750001 2.385912 -1.025
v 0.1749999 2.385912 -1.024826

vn 0.0002484141 3.640195E-05 -1
vn 0.0002484141 3.640195E-05 -1
vn 0.0002484141 3.640195E-05 -1
vn 0.0002484141 3.640195E-05 -1
vn 0 0 1
vn 0 0 1
vn 0 0 1
vn 0 0 1
vn -1 0 0
vn -1 0 0
vn -1 0 0
vn -1 0 0
vn -1 0 0
vn -1 0 0
vn -1 0 0
vn -1 0 0
vn -1 0 0
vn 1 0 0
vn 1 0 0
vn 1 0 0
vn 1 0 0
vn 1 0 0
vn 1 0 0
vn 1 0 0
vn 1 0 0
vn 0 -1 0
vn 0 -1 0
vn 0 -1 0
vn 0 -1 0
vn 0.0002121753 -0.7070673 -0.7071461
vn 0.0002121753 -0.7070673 -0.7071461
vn 0.0002121753 -0.7070673 -0.7071461
vn 0.0002121753 -0.7070673 -0.7071461
vn -8.799557E-05 0.707095 0.7071186
vn -8.799557E-05 0.707095 0.7071186
vn -8.799557E-05 0.707095 0.7071186
vn -8.799557E-05 0.707095 0.7071186
vn 0 -0.9998074 0.01962515
vn 0 -0.9998074 0.01962515
vn 0 -0.9998074 0.01962515
vn 0 -0.9998074 0.01962515
vn 0 -1 0
vn 0 -1 0
vn 0 -1 0
vn 0 -1 0
vn 0 1 0
vn 0 1 0
vn 0 1 0
vn 0 1 0

g Support_d7
usemtl Support_d7
usemap Support_d7
f 1//1 3//3 2//2
f 1//1 4//4 3//3
f 5//5 7//7 6//6
f 5//5 8//8 7//7
f 9//9 11//11 10//10
f 12//12 9//9 10//10
f 13//13 11//11 9//9
f 14//14 13//13 9//9
f 13//13 16//16 15//15
f 17//17 13//13 15//15
f 18//18 20//20 19//19
f 21//21 18//18 19//19
f 20//20 18//18 22//22
f 18//18 23//23 22//22
f 22//22 23//23 24//24
f 25//25 22//22 24//24
f 26//26 28//28 27//27
f 26//26 29//29 28//28
f 30//30 32//32 31//31
f 30//30 33//33 32//32
f 34//34 36//36 35//35
f 34//34 37//37 36//36
f 38//38 40//40 39//39
f 38//38 41//41 40//40
f 42//42 44//44 43//43
f 42//42 45//45 44//44
f 46//46 48//48 47//47
f 46//46 49//49 48//48
