#Support_d5.obj

v -0.175 -1.311342E-08 1.113877
v -0.175 0.4224041 1.115
v 0.175 0.4224041 1.115
v 0.175 -1.311342E-08 1.113877
v -0.175 2.263871 1.116123
v 0.175 2.263871 1.116123
v 0.175 -1.311342E-08 0.695
v -0.175 -1.311342E-08 0.695
v -0.175 -1.311342E-08 1.113877
v 0.175 -1.311342E-08 1.113877
v -0.175 -2.185569E-08 0.495
v 0.175 -2.185569E-08 0.495
v -0.175 0.4224041 1.115
v -0.175 -1.311342E-08 1.113877
v -0.175 -1.311342E-08 0.695
v -0.175 0.4224041 0.695
v -0.175 0.4224041 0.495
v -0.175 -2.185569E-08 0.495
v -0.175 1.726175 0.695
v -0.175 2.263871 1.116123
v -0.175 1.726175 0
v -0.175 2.263871 0
v -0.175 2.263871 -1.116123
v -0.175 1.726175 -0.695
v -0.175 0.4224041 -1.115
v -0.175 0.4224041 -0.695
v -0.175 -1.311342E-08 -1.113877
v -0.175 -1.311342E-08 -0.695
v -0.175 -2.185569E-08 -0.495
v -0.175 0.4224041 -0.495
v 0.175 1.726175 0.695
v 0.175 0.4224041 1.115
v 0.175 2.263871 1.116123
v 0.175 0.4224041 0.695
v 0.175 2.263871 0
v 0.175 1.726175 0
v 0.175 -1.311342E-08 1.113877
v 0.175 -1.311342E-08 0.695
v 0.175 -2.185569E-08 0.495
v 0.175 0.4224041 0.495
v 0.175 1.726175 -0.695
v 0.175 2.263871 -1.116123
v 0.175 0.4224041 -1.115
v 0.175 0.4224041 -0.695
v 0.175 -1.311342E-08 -0.695
v 0.175 -1.311342E-08 -1.113877
v 0.175 0.4224041 -0.495
v 0.175 -2.185569E-08 -0.495
v -0.175 1.726175 0
v -0.175 1.726175 0.695
v 0.175 1.726175 0.695
v 0.175 1.726175 0
v -0.175 1.726175 -0.695
v 0.175 1.726175 -0.695
v 0.175 2.263871 0
v 0.175 2.263871 1.116123
v -0.175 2.263871 1.116123
v -0.175 2.263871 0
v 0.175 2.263871 -1.116123
v -0.175 2.263871 -1.116123
v -0.175 1.726175 0.695
v -0.175 0.4224041 0.695
v 0.175 0.4224041 0.695
v 0.175 1.726175 0.695
v -0.175 0.4224041 0.495
v -0.175 -2.185569E-08 0.495
v 0.175 -2.185569E-08 0.495
v 0.175 0.4224041 0.495
v 0.175 0.4224041 0.495
v 0.175 0.4224041 0.695
v -0.175 0.4224041 0.695
v -0.175 0.4224041 0.495
v -0.175 -1.311342E-08 -1.113877
v 0.175 -1.311342E-08 -1.113877
v 0.175 0.4224041 -1.115
v -0.175 0.4224041 -1.115
v 0.175 2.263871 -1.116123
v -0.175 2.263871 -1.116123
v -0.175 -1.311342E-08 -0.695
v 0.175 -1.311342E-08 -0.695
v 0.175 -1.311342E-08 -1.113877
v -0.175 -1.311342E-08 -1.113877
v 0.175 -2.185569E-08 -0.495
v -0.175 -2.185569E-08 -0.495
v -0.175 1.726175 -0.695
v 0.175 1.726175 -0.695
v 0.175 0.4224041 -0.695
v -0.175 0.4224041 -0.695
v -0.175 0.4224041 -0.495
v 0.175 0.4224041 -0.495
v 0.175 -2.185569E-08 -0.495
v -0.175 -2.185569E-08 -0.495
v 0.175 0.4224041 -0.695
v 0.175 0.4224041 -0.495
v -0.175 0.4224041 -0.495
v -0.175 0.4224041 -0.695

vn 0 -0.002658467 0.9999965
vn 0 -0.001634141 0.9999987
vn 0 -0.001634141 0.9999987
vn 0 -0.002658467 0.9999965
vn 0 -0.0006098136 0.9999999
vn 0 -0.0006098136 0.9999999
vn 0 -1 0
vn 0 -1 0
vn 0 -1 0
vn 0 -1 0
vn 0 -1 0
vn 0 -1 0
vn -1 0 0
vn -1 0 0
vn -1 0 0
vn -1 0 0
vn -1 0 0
vn -1 0 0
vn -1 0 0
vn -1 0 0
vn -1 0 0
vn -1 0 0
vn -1 0 0
vn -1 0 0
vn -1 0 0
vn -1 0 0
vn -1 0 0
vn -1 0 0
vn -1 0 0
vn -1 0 0
vn 1 0 0
vn 1 0 0
vn 1 0 0
vn 1 0 0
vn 1 0 0
vn 1 0 0
vn 1 0 0
vn 1 0 0
vn 1 0 0
vn 1 0 0
vn 1 0 0
vn 1 0 0
vn 1 0 0
vn 1 0 0
vn 1 0 0
vn 1 0 0
vn 1 0 0
vn 1 0 0
vn 0 -1 0
vn 0 -1 0
vn 0 -1 0
vn 0 -1 0
vn 0 -1 0
vn 0 -1 0
vn 0 1 0
vn 0 1 0
vn 0 1 0
vn 0 1 0
vn 0 1 0
vn 0 1 0
vn 0 0 -1
vn 0 0 -1
vn 0 0 -1
vn 0 0 -1
vn 0 0 -1
vn 0 0 -1
vn 0 0 -1
vn 0 0 -1
vn 0 1 0
vn 0 1 0
vn 0 1 0
vn 0 1 0
vn 0 -0.002658467 -0.9999965
vn 0 -0.002658467 -0.9999965
vn 0 -0.001634141 -0.9999987
vn 0 -0.001634141 -0.9999987
vn 0 -0.0006098136 -0.9999999
vn 0 -0.0006098136 -0.9999999
vn 0 -1 0
vn 0 -1 0
vn 0 -1 0
vn 0 -1 0
vn 0 -1 0
vn 0 -1 0
vn 0 0 1
vn 0 0 1
vn 0 0 1
vn 0 0 1
vn 0 0 1
vn 0 0 1
vn 0 0 1
vn 0 0 1
vn 0 1 0
vn 0 1 0
vn 0 1 0
vn 0 1 0

g Support_d5
usemtl Support_d5
usemap Support_d5
f 1//1 3//3 2//2
f 1//1 4//4 3//3
f 5//5 2//2 3//3
f 5//5 3//3 6//6
f 7//7 9//9 8//8
f 7//7 10//10 9//9
f 11//11 7//7 8//8
f 11//11 12//12 7//7
f 13//13 15//15 14//14
f 13//13 16//16 15//15
f 15//15 16//16 17//17
f 15//15 17//17 18//18
f 16//16 13//13 19//19
f 13//13 20//20 19//19
f 19//19 20//20 21//21
f 20//20 22//22 21//21
f 22//22 23//23 21//21
f 23//23 24//24 21//21
f 23//23 25//25 24//24
f 25//25 26//26 24//24
f 26//26 25//25 27//27
f 26//26 27//27 28//28
f 29//29 26//26 28//28
f 29//29 30//30 26//26
f 31//31 33//33 32//32
f 34//34 31//31 32//32
f 35//35 33//33 31//31
f 36//36 35//35 31//31
f 34//34 32//32 37//37
f 34//34 37//37 38//38
f 39//39 34//34 38//38
f 39//39 40//40 34//34
f 35//35 36//36 41//41
f 42//42 35//35 41//41
f 42//42 41//41 43//43
f 41//41 44//44 43//43
f 45//45 43//43 44//44
f 45//45 46//46 43//43
f 45//45 44//44 47//47
f 45//45 47//47 48//48
f 49//49 51//51 50//50
f 49//49 52//52 51//51
f 53//53 52//52 49//49
f 53//53 54//54 52//52
f 55//55 57//57 56//56
f 55//55 58//58 57//57
f 59//59 58//58 55//55
f 59//59 60//60 58//58
f 61//61 63//63 62//62
f 61//61 64//64 63//63
f 65//65 67//67 66//66
f 65//65 68//68 67//67
f 69//69 71//71 70//70
f 69//69 72//72 71//71
f 73//73 75//75 74//74
f 73//73 76//76 75//75
f 77//77 75//75 76//76
f 77//77 76//76 78//78
f 79//79 81//81 80//80
f 79//79 82//82 81//81
f 83//83 79//79 80//80
f 83//83 84//84 79//79
f 85//85 87//87 86//86
f 85//85 88//88 87//87
f 89//89 91//91 90//90
f 89//89 92//92 91//91
f 93//93 95//95 94//94
f 93//93 96//96 95//95
