#Support_d1.obj

v 0.175 1.105111 -0.7949998
v 0.175 8.742278E-09 -1.213877
v 0.175 1.235804E-07 -0.7949999
v 0.175 2.093605 -1.216123
v 0.175 1.503163 -0.7949998
v 0.175 1.503163 -0.3995008
v 0.175 1.105111 -0.1967657
v 0.175 1.901215 -0.7949998
v 0.175 1.901215 -0.3995009
v 0.175 2.093605 -0.3995009
v 0.175 1.503163 -0.1967657
v 0.175 1.901215 -0.1967658
v 0.175 1.901215 0
v 0.175 1.503163 0
v 0.175 2.093605 0
v 0.175 1.503163 0.1967657
v 0.175 1.901215 0.1967658
v 0.175 1.901215 0.3995009
v 0.175 1.503163 0.3995008
v 0.175 1.105111 0.1967657
v 0.175 1.105111 0.7949998
v 0.175 1.503163 0.7949998
v 0.175 2.093605 1.216123
v 0.175 8.742278E-09 1.213877
v 0.175 1.235804E-07 0.7949999
v 0.175 1.901215 0.7949998
v 0.175 2.093605 0.3995009
v -0.175 8.742278E-09 -1.213877
v 0.175 8.742278E-09 -1.213877
v 0.175 2.093605 -1.216123
v -0.175 2.093605 -1.216123
v -0.175 8.742278E-09 -1.213877
v -0.175 1.105111 -0.7949998
v -0.175 1.235804E-07 -0.7949999
v -0.175 2.093605 -1.216123
v -0.175 1.503163 -0.7949998
v -0.175 1.901215 -0.7949998
v -0.175 1.503163 -0.3995008
v -0.175 1.105111 -0.1967657
v -0.175 1.503163 -0.1967657
v -0.175 1.901215 -0.1967658
v -0.175 1.901215 -0.3995009
v -0.175 2.093605 0
v -0.175 1.901215 0
v -0.175 2.093605 -0.3995009
v -0.175 1.503163 0
v -0.175 1.901215 0.1967658
v -0.175 1.901215 0.3995009
v -0.175 2.093605 0.3995009
v -0.175 1.503163 0.1967657
v -0.175 1.503163 0.3995008
v -0.175 1.105111 0.1967657
v -0.175 1.105111 0.7949998
v -0.175 1.503163 0.7949998
v -0.175 2.093605 1.216123
v -0.175 8.742278E-09 1.213877
v -0.175 1.235804E-07 0.7949999
v -0.175 1.901215 0.7949998
v -0.175 1.235804E-07 -0.7949999
v -0.175 1.105111 -0.7949998
v 0.175 1.105111 -0.7949998
v 0.175 1.235804E-07 -0.7949999
v -0.175 1.901215 -0.3995009
v -0.175 1.503163 -0.3995008
v 0.175 1.503163 -0.3995008
v 0.175 1.901215 -0.3995009
v 0.175 2.093605 -1.216123
v -0.175 2.093605 -1.216123
v -0.175 1.901215 -0.7949998
v 0.175 1.901215 -0.7949998
v -0.175 1.105111 -0.7949998
v -0.175 1.105111 -0.1967657
v 0.175 1.105111 -0.1967657
v 0.175 1.105111 -0.7949998
v -0.175 2.093605 -0.3995009
v -0.175 2.093605 -1.216123
v 0.175 2.093605 -1.216123
v 0.175 2.093605 -0.3995009
v -0.175 2.093605 0
v 0.175 2.093605 0
v -0.175 2.093605 0.3995009
v 0.175 2.093605 0.3995009
v -0.175 2.093605 1.216123
v 0.175 2.093605 1.216123
v -0.175 1.901215 -0.7949998
v 0.175 1.901215 -0.7949998
v 0.175 1.503163 -0.7949998
v -0.175 1.503163 -0.7949998
v -0.175 1.901215 -0.7949998
v -0.175 1.901215 -0.3995009
v 0.175 1.901215 -0.3995009
v 0.175 1.901215 -0.7949998
v -0.175 1.235804E-07 -0.7949999
v 0.175 1.235804E-07 -0.7949999
v 0.175 8.742278E-09 -1.213877
v -0.175 8.742278E-09 -1.213877
v 0.175 1.503163 -0.3995008
v -0.175 1.503163 -0.3995008
v -0.175 1.503163 -0.7949998
v 0.175 1.503163 -0.7949998
v -0.175 1.503163 -0.1967657
v 0.175 1.503163 -0.1967657
v 0.175 1.105111 -0.1967657
v -0.175 1.105111 -0.1967657
v -0.175 1.503163 -0.1967657
v -0.175 1.503163 0
v 0.175 1.503163 0
v 0.175 1.503163 -0.1967657
v -0.175 1.503163 0.1967657
v 0.175 1.503163 0.1967657
v -0.175 8.742278E-09 1.213877
v -0.175 2.093605 1.216123
v 0.175 2.093605 1.216123
v 0.175 8.742278E-09 1.213877
v -0.175 1.105111 0.7949998
v -0.175 1.235804E-07 0.7949999
v 0.175 1.235804E-07 0.7949999
v 0.175 1.105111 0.7949998
v -0.175 1.503163 0.3995008
v -0.175 1.901215 0.3995009
v 0.175 1.901215 0.3995009
v 0.175 1.503163 0.3995008
v -0.175 2.093605 1.216123
v 0.175 2.093605 1.216123
v 0.175 1.901215 0.7949998
v -0.175 1.901215 0.7949998
v -0.175 1.105111 0.1967657
v -0.175 1.105111 0.7949998
v 0.175 1.105111 0.7949998
v 0.175 1.105111 0.1967657
v 0.175 1.503163 0.7949998
v 0.175 1.901215 0.7949998
v -0.175 1.901215 0.7949998
v -0.175 1.503163 0.7949998
v -0.175 1.901215 0.3995009
v -0.175 1.901215 0.7949998
v 0.175 1.901215 0.7949998
v 0.175 1.901215 0.3995009
v 0.175 1.235804E-07 0.7949999
v -0.175 1.235804E-07 0.7949999
v -0.175 8.742278E-09 1.213877
v 0.175 8.742278E-09 1.213877
v 0.175 1.503163 0.3995008
v 0.175 1.503163 0.7949998
v -0.175 1.503163 0.7949998
v -0.175 1.503163 0.3995008
v -0.175 1.503163 0.1967657
v -0.175 1.105111 0.1967657
v 0.175 1.105111 0.1967657
v 0.175 1.503163 0.1967657

vn 1 0 0
vn 1 0 0
vn 1 0 0
vn 1 0 0
vn 1 0 0
vn 1 0 0
vn 1 0 0
vn 1 0 0
vn 1 0 0
vn 1 0 0
vn 1 0 0
vn 1 0 0
vn 1 0 0
vn 1 0 0
vn 1 0 0
vn 1 0 0
vn 1 0 0
vn 1 0 0
vn 1 0 0
vn 1 0 0
vn 1 0 0
vn 1 0 0
vn 1 0 0
vn 1 0 0
vn 1 0 0
vn 1 0 0
vn 1 0 0
vn 0 -0.001072744 -0.9999994
vn 0 -0.001072744 -0.9999994
vn 0 -0.001072744 -0.9999994
vn 0 -0.001072744 -0.9999994
vn -1 0 0
vn -1 0 0
vn -1 0 0
vn -1 0 0
vn -1 0 0
vn -1 0 0
vn -1 0 0
vn -1 0 0
vn -1 0 0
vn -1 0 0
vn -1 0 0
vn -1 0 0
vn -1 0 0
vn -1 0 0
vn -1 0 0
vn -1 0 0
vn -1 0 0
vn -1 0 0
vn -1 0 0
vn -1 0 0
vn -1 0 0
vn -1 0 0
vn -1 0 0
vn -1 0 0
vn -1 0 0
vn -1 0 0
vn -1 0 0
vn 0 0 1
vn 0 0 1
vn 0 0 1
vn 0 0 1
vn 0 0 -1
vn 0 0 -1
vn 0 0 -1
vn 0 0 -1
vn 0 -0.9095749 -0.4155399
vn 0 -0.9095749 -0.4155399
vn 0 -0.9095749 -0.4155399
vn 0 -0.9095749 -0.4155399
vn 0 -1 0
vn 0 -1 0
vn 0 -1 0
vn 0 -1 0
vn 0 1 0
vn 0 1 0
vn 0 1 0
vn 0 1 0
vn 0 1 0
vn 0 1 0
vn 0 1 0
vn 0 1 0
vn 0 1 0
vn 0 1 0
vn 0 0 1
vn 0 0 1
vn 0 0 1
vn 0 0 1
vn 0 -1 0
vn 0 -1 0
vn 0 -1 0
vn 0 -1 0
vn 0 -1 0
vn 0 -1 0
vn 0 -1 0
vn 0 -1 0
vn 0 1 0
vn 0 1 0
vn 0 1 0
vn 0 1 0
vn 0 0 1
vn 0 0 1
vn 0 0 1
vn 0 0 1
vn 0 -1 0
vn 0 -1 0
vn 0 -1 0
vn 0 -1 0
vn 0 -1 0
vn 0 -1 0
vn 0 -0.001072744 0.9999994
vn 0 -0.001072744 0.9999994
vn 0 -0.001072744 0.9999994
vn 0 -0.001072744 0.9999994
vn 0 0 -1
vn 0 0 -1
vn 0 0 -1
vn 0 0 -1
vn 0 0 1
vn 0 0 1
vn 0 0 1
vn 0 0 1
vn 0 -0.909575 0.4155398
vn 0 -0.909575 0.4155398
vn 0 -0.909575 0.4155398
vn 0 -0.909575 0.4155398
vn 0 -1 0
vn 0 -1 0
vn 0 -1 0
vn 0 -1 0
vn 0 0 -1
vn 0 0 -1
vn 0 0 -1
vn 0 0 -1
vn 0 -1 0
vn 0 -1 0
vn 0 -1 0
vn 0 -1 0
vn 0 -1 0
vn 0 -1 0
vn 0 -1 0
vn 0 -1 0
vn 0 1 0
vn 0 1 0
vn 0 1 0
vn 0 1 0
vn 0 0 -1
vn 0 0 -1
vn 0 0 -1
vn 0 0 -1

g Support_d1
usemtl Support_d1
usemap Support_d1
f 1//1 3//3 2//2
f 4//4 1//1 2//2
f 1//1 4//4 5//5
f 1//1 5//5 6//6
f 7//7 1//1 6//6
f 8//8 5//5 4//4
f 8//8 4//4 9//9
f 4//4 10//10 9//9
f 11//11 6//6 9//9
f 7//7 6//6 11//11
f 12//12 11//11 9//9
f 9//9 10//10 12//12
f 13//13 11//11 12//12
f 13//13 14//14 11//11
f 12//12 15//15 13//13
f 10//10 15//15 12//12
f 16//16 14//14 13//13
f 16//16 13//13 17//17
f 15//15 17//17 13//13
f 18//18 16//16 17//17
f 18//18 19//19 16//16
f 19//19 20//20 16//16
f 21//21 20//20 19//19
f 22//22 21//21 19//19
f 23//23 21//21 22//22
f 21//21 23//23 24//24
f 25//25 21//21 24//24
f 22//22 26//26 23//23
f 23//23 26//26 18//18
f 27//27 23//23 18//18
f 27//27 18//18 17//17
f 15//15 27//27 17//17
f 28//28 30//30 29//29
f 28//28 31//31 30//30
f 32//32 34//34 33//33
f 35//35 32//32 33//33
f 36//36 35//35 33//33
f 36//36 37//37 35//35
f 38//38 36//36 33//33
f 39//39 38//38 33//33
f 40//40 38//38 39//39
f 41//41 38//38 40//40
f 41//41 42//42 38//38
f 41//41 43//43 42//42
f 41//41 44//44 43//43
f 44//44 41//41 40//40
f 43//43 45//45 42//42
f 45//45 35//35 37//37
f 42//42 45//45 37//37
f 46//46 44//44 40//40
f 44//44 47//47 43//43
f 47//47 44//44 46//46
f 43//43 47//47 48//48
f 49//49 43//43 48//48
f 48//48 47//47 50//50
f 47//47 46//46 50//50
f 48//48 50//50 51//51
f 51//51 50//50 52//52
f 51//51 52//52 53//53
f 54//54 51//51 53//53
f 55//55 54//54 53//53
f 56//56 55//55 53//53
f 57//57 56//56 53//53
f 58//58 54//54 55//55
f 49//49 48//48 58//58
f 55//55 49//49 58//58
f 59//59 61//61 60//60
f 59//59 62//62 61//61
f 63//63 65//65 64//64
f 63//63 66//66 65//65
f 67//67 69//69 68//68
f 67//67 70//70 69//69
f 71//71 73//73 72//72
f 71//71 74//74 73//73
f 75//75 77//77 76//76
f 75//75 78//78 77//77
f 79//79 78//78 75//75
f 79//79 80//80 78//78
f 81//81 80//80 79//79
f 81//81 82//82 80//80
f 82//82 81//81 83//83
f 82//82 83//83 84//84
f 85//85 87//87 86//86
f 85//85 88//88 87//87
f 89//89 91//91 90//90
f 89//89 92//92 91//91
f 93//93 95//95 94//94
f 93//93 96//96 95//95
f 97//97 99//99 98//98
f 97//97 100//100 99//99
f 101//101 103//103 102//102
f 101//101 104//104 103//103
f 105//105 107//107 106//106
f 105//105 108//108 107//107
f 109//109 106//106 107//107
f 109//109 107//107 110//110
f 111//111 113//113 112//112
f 111//111 114//114 113//113
f 115//115 117//117 116//116
f 115//115 118//118 117//117
f 119//119 121//121 120//120
f 119//119 122//122 121//121
f 123//123 125//125 124//124
f 123//123 126//126 125//125
f 127//127 129//129 128//128
f 127//127 130//130 129//129
f 131//131 133//133 132//132
f 131//131 134//134 133//133
f 135//135 137//137 136//136
f 135//135 138//138 137//137
f 139//139 141//141 140//140
f 139//139 142//142 141//141
f 143//143 145//145 144//144
f 143//143 146//146 145//145
f 147//147 149//149 148//148
f 147//147 150//150 149//149
