#Support_d10.obj

v 0.175 1.105111 -0.9949999
v 0.175 0 -1.413877
v 0.175 1.148382E-07 -0.9949999
v 0.175 1.563871 -1.416123
v 0.175 1.563871 0
v 0.175 1.105111 -0.3767657
v 0.175 0.5870589 0
v 0.175 0.5870589 -0.3767657
v 0.175 1.105111 0.3767657
v 0.175 0.5870589 0.3767657
v 0.175 1.105111 0.9949999
v 0.175 1.563871 1.416123
v 0.175 0 1.413877
v 0.175 1.148382E-07 0.9949999
v -0.175 0 -1.413877
v 0.175 0 -1.413877
v 0.175 1.563871 -1.416123
v -0.175 1.563871 -1.416123
v -0.175 0 -1.413877
v -0.175 1.105111 -0.9949999
v -0.175 1.148382E-07 -0.9949999
v -0.175 1.563871 -1.416123
v -0.175 1.563871 0
v -0.175 1.105111 -0.3767657
v -0.175 0.5870589 0
v -0.175 0.5870589 -0.3767657
v -0.175 1.105111 0.3767657
v -0.175 0.5870589 0.3767657
v -0.175 1.105111 0.9949999
v -0.175 1.563871 1.416123
v -0.175 0 1.413877
v -0.175 1.148382E-07 0.9949999
v -0.175 0.5870589 -0.3767657
v -0.175 0.5870589 0
v 0.175 0.5870589 0
v 0.175 0.5870589 -0.3767657
v -0.175 0.5870589 0.3767657
v 0.175 0.5870589 0.3767657
v -0.175 1.148382E-07 -0.9949999
v -0.175 1.105111 -0.9949999
v 0.175 1.105111 -0.9949999
v 0.175 1.148382E-07 -0.9949999
v -0.175 1.105111 -0.9949999
v -0.175 1.105111 -0.3767657
v 0.175 1.105111 -0.3767657
v 0.175 1.105111 -0.9949999
v 0.175 1.563871 0
v -0.175 1.563871 0
v -0.175 1.563871 -1.416123
v 0.175 1.563871 -1.416123
v -0.175 1.563871 1.416123
v 0.175 1.563871 1.416123
v -0.175 1.105111 -0.3767657
v -0.175 0.5870589 -0.3767657
v 0.175 0.5870589 -0.3767657
v 0.175 1.105111 -0.3767657
v -0.175 0 1.413877
v -0.175 1.563871 1.416123
v 0.175 1.563871 1.416123
v 0.175 0 1.413877
v -0.175 1.148382E-07 0.9949999
v 0.175 1.148382E-07 0.9949999
v 0.175 1.105111 0.9949999
v -0.175 1.105111 0.9949999
v -0.175 1.105111 0.9949999
v 0.175 1.105111 0.9949999
v 0.175 1.105111 0.3767657
v -0.175 1.105111 0.3767657
v -0.175 1.105111 0.3767657
v 0.175 1.105111 0.3767657
v 0.175 0.5870589 0.3767657
v -0.175 0.5870589 0.3767657

vn 1 0 0
vn 1 0 0
vn 1 0 0
vn 1 0 0
vn 1 0 0
vn 1 0 0
vn 1 0 0
vn 1 0 0
vn 1 0 0
vn 1 0 0
vn 1 0 0
vn 1 0 0
vn 1 0 0
vn 1 0 0
vn 0 -0.001436117 -0.999999
vn 0 -0.001436117 -0.999999
vn 0 -0.001436117 -0.999999
vn 0 -0.001436117 -0.999999
vn -1 0 0
vn -1 0 0
vn -1 0 0
vn -1 0 0
vn -1 0 0
vn -1 0 0
vn -1 0 0
vn -1 0 0
vn -1 0 0
vn -1 0 0
vn -1 0 0
vn -1 0 0
vn -1 0 0
vn -1 0 0
vn 0 -1 0
vn 0 -1 0
vn 0 -1 0
vn 0 -1 0
vn 0 -1 0
vn 0 -1 0
vn 0 0 1
vn 0 0 1
vn 0 0 1
vn 0 0 1
vn 0 -1 0
vn 0 -1 0
vn 0 -1 0
vn 0 -1 0
vn 0 1 0
vn 0 1 0
vn 0 1 0
vn 0 1 0
vn 0 1 0
vn 0 1 0
vn 0 0 -1
vn 0 0 -1
vn 0 0 -1
vn 0 0 -1
vn 0 -0.001436117 0.999999
vn 0 -0.001436117 0.999999
vn 0 -0.001436117 0.999999
vn 0 -0.001436117 0.999999
vn 0 0 -1
vn 0 0 -1
vn 0 0 -1
vn 0 0 -1
vn 0 -1 0
vn 0 -1 0
vn 0 -1 0
vn 0 -1 0
vn 0 0 1
vn 0 0 1
vn 0 0 1
vn 0 0 1

g Support_d10
usemtl Support_d10
usemap Support_d10
f 1//1 3//3 2//2
f 4//4 1//1 2//2
f 1//1 4//4 5//5
f 6//6 1//1 5//5
f 7//7 6//6 5//5
f 8//8 6//6 7//7
f 9//9 7//7 5//5
f 9//9 10//10 7//7
f 11//11 9//9 5//5
f 12//12 11//11 5//5
f 11//11 12//12 13//13
f 14//14 11//11 13//13
f 15//15 17//17 16//16
f 15//15 18//18 17//17
f 19//19 21//21 20//20
f 22//22 19//19 20//20
f 23//23 22//22 20//20
f 24//24 23//23 20//20
f 25//25 23//23 24//24
f 25//25 24//24 26//26
f 23//23 25//25 27//27
f 27//27 25//25 28//28
f 23//23 27//27 29//29
f 30//30 23//23 29//29
f 31//31 30//30 29//29
f 32//32 31//31 29//29
f 33//33 35//35 34//34
f 33//33 36//36 35//35
f 37//37 34//34 35//35
f 37//37 35//35 38//38
f 39//39 41//41 40//40
f 39//39 42//42 41//41
f 43//43 45//45 44//44
f 43//43 46//46 45//45
f 47//47 49//49 48//48
f 47//47 50//50 49//49
f 51//51 47//47 48//48
f 51//51 52//52 47//47
f 53//53 55//55 54//54
f 53//53 56//56 55//55
f 57//57 59//59 58//58
f 57//57 60//60 59//59
f 61//61 63//63 62//62
f 61//61 64//64 63//63
f 65//65 67//67 66//66
f 65//65 68//68 67//67
f 69//69 71//71 70//70
f 69//69 72//72 71//71
