#Support_d6.obj

v 0.175 1.105111 -0.9949999
v 0.175 0 -1.413877
v 0.175 1.148382E-07 -0.9949999
v 0.175 2.333605 -1.416123
v 0.175 1.623163 -0.9949999
v 0.175 1.105111 -0.4695008
v 0.175 1.623163 -0.4695008
v 0.175 2.141215 -0.9949999
v 0.175 2.141215 -0.4695009
v 0.175 2.333605 -0.4695009
v 0.175 1.623163 -0.2667657
v 0.175 2.141215 -0.2667658
v 0.175 2.141215 0
v 0.175 1.623163 0
v 0.175 2.333605 0
v 0.175 1.105111 -0.2667657
v 0.175 0.5870589 -0.4695008
v 0.175 0.5870589 0
v 0.175 1.105111 0
v 0.175 1.105111 0.2667657
v 0.175 0.5870589 0.4695008
v 0.175 1.623163 0.2667657
v 0.175 2.141215 0.2667658
v 0.175 2.141215 0.4695009
v 0.175 1.623163 0.4695008
v 0.175 1.105111 0.4695008
v 0.175 1.623163 0.9949999
v 0.175 1.105111 0.9949999
v 0.175 2.333605 1.416123
v 0.175 0 1.413877
v 0.175 1.148382E-07 0.9949999
v 0.175 2.141215 0.9949999
v 0.175 2.333605 0.4695009
v -0.175 0 -1.413877
v 0.175 0 -1.413877
v 0.175 2.333605 -1.416123
v -0.175 2.333605 -1.416123
v -0.175 0 -1.413877
v -0.175 1.105111 -0.9949999
v -0.175 1.148382E-07 -0.9949999
v -0.175 2.333605 -1.416123
v -0.175 1.623163 -0.9949999
v -0.175 2.141215 -0.9949999
v -0.175 1.623163 -0.4695008
v -0.175 1.105111 -0.4695008
v -0.175 1.105111 -0.2667657
v -0.175 1.623163 -0.2667657
v -0.175 2.141215 -0.2667658
v -0.175 2.141215 -0.4695009
v -0.175 2.333605 0
v -0.175 2.141215 0
v -0.175 2.333605 -0.4695009
v -0.175 1.623163 0
v -0.175 0.5870589 -0.4695008
v -0.175 1.105111 0
v -0.175 0.5870589 0
v -0.175 0.5870589 0.4695008
v -0.175 1.105111 0.2667657
v -0.175 2.141215 0.2667658
v -0.175 2.141215 0.4695009
v -0.175 2.333605 0.4695009
v -0.175 1.623163 0.4695008
v -0.175 1.623163 0.2667657
v -0.175 1.105111 0.4695008
v -0.175 1.105111 0.9949999
v -0.175 1.623163 0.9949999
v -0.175 2.333605 1.416123
v -0.175 0 1.413877
v -0.175 1.148382E-07 0.9949999
v -0.175 2.141215 0.9949999
v -0.175 0.5870589 -0.4695008
v -0.175 0.5870589 0
v 0.175 0.5870589 0
v 0.175 0.5870589 -0.4695008
v -0.175 0.5870589 0.4695008
v 0.175 0.5870589 0.4695008
v -0.175 1.148382E-07 -0.9949999
v -0.175 1.105111 -0.9949999
v 0.175 1.105111 -0.9949999
v 0.175 1.148382E-07 -0.9949999
v -0.175 2.141215 -0.4695009
v -0.175 1.623163 -0.4695008
v 0.175 1.623163 -0.4695008
v 0.175 2.141215 -0.4695009
v -0.175 2.333605 -1.416123
v -0.175 2.141215 -0.9949999
v 0.175 2.141215 -0.9949999
v 0.175 2.333605 -1.416123
v -0.175 0.5870589 -0.4695008
v 0.175 0.5870589 -0.4695008
v 0.175 1.105111 -0.4695008
v -0.175 1.105111 -0.4695008
v -0.175 1.105111 -0.9949999
v -0.175 1.105111 -0.4695008
v 0.175 1.105111 -0.4695008
v 0.175 1.105111 -0.9949999
v -0.175 2.333605 -1.416123
v 0.175 2.333605 -1.416123
v 0.175 2.333605 -0.4695009
v -0.175 2.333605 -0.4695009
v -0.175 2.333605 0
v 0.175 2.333605 0
v -0.175 2.333605 0.4695009
v 0.175 2.333605 0.4695009
v 0.175 2.333605 1.416123
v -0.175 2.333605 1.416123
v 0.175 1.105111 0
v -0.175 1.105111 0
v -0.175 1.105111 -0.2667657
v 0.175 1.105111 -0.2667657
v -0.175 1.105111 0.2667657
v 0.175 1.105111 0.2667657
v -0.175 2.141215 -0.9949999
v 0.175 2.141215 -0.9949999
v 0.175 1.623163 -0.9949999
v -0.175 1.623163 -0.9949999
v -0.175 2.141215 -0.9949999
v -0.175 2.141215 -0.4695009
v 0.175 2.141215 -0.4695009
v 0.175 2.141215 -0.9949999
v -0.175 1.148382E-07 -0.9949999
v 0.175 1.148382E-07 -0.9949999
v 0.175 0 -1.413877
v -0.175 0 -1.413877
v 0.175 1.623163 -0.4695008
v -0.175 1.623163 -0.4695008
v -0.175 1.623163 -0.9949999
v 0.175 1.623163 -0.9949999
v -0.175 1.623163 -0.2667657
v 0.175 1.623163 -0.2667657
v 0.175 1.105111 -0.2667657
v -0.175 1.105111 -0.2667657
v -0.175 1.623163 -0.2667657
v -0.175 1.623163 0
v 0.175 1.623163 0
v 0.175 1.623163 -0.2667657
v -0.175 1.623163 0.2667657
v 0.175 1.623163 0.2667657
v -0.175 0 1.413877
v -0.175 2.333605 1.416123
v 0.175 2.333605 1.416123
v 0.175 0 1.413877
v -0.175 1.148382E-07 0.9949999
v 0.175 1.148382E-07 0.9949999
v 0.175 1.105111 0.9949999
v -0.175 1.105111 0.9949999
v 0.175 1.623163 0.4695008
v -0.175 1.623163 0.4695008
v -0.175 2.141215 0.4695009
v 0.175 2.141215 0.4695009
v -0.175 2.333605 1.416123
v 0.175 2.333605 1.416123
v 0.175 2.141215 0.9949999
v -0.175 2.141215 0.9949999
v -0.175 0.5870589 0.4695008
v -0.175 1.105111 0.4695008
v 0.175 1.105111 0.4695008
v 0.175 0.5870589 0.4695008
v -0.175 1.105111 0.4695008
v -0.175 1.105111 0.9949999
v 0.175 1.105111 0.9949999
v 0.175 1.105111 0.4695008
v 0.175 1.623163 0.9949999
v 0.175 2.141215 0.9949999
v -0.175 2.141215 0.9949999
v -0.175 1.623163 0.9949999
v -0.175 2.141215 0.9949999
v 0.175 2.141215 0.9949999
v 0.175 2.141215 0.4695009
v -0.175 2.141215 0.4695009
v 0.175 1.148382E-07 0.9949999
v -0.175 1.148382E-07 0.9949999
v -0.175 0 1.413877
v 0.175 0 1.413877
v -0.175 1.623163 0.4695008
v 0.175 1.623163 0.4695008
v 0.175 1.623163 0.9949999
v -0.175 1.623163 0.9949999
v -0.175 1.623163 0.2667657
v -0.175 1.105111 0.2667657
v 0.175 1.105111 0.2667657
v 0.175 1.623163 0.2667657

vn 1 0 0
vn 1 0 0
vn 1 0 0
vn 1 0 0
vn 1 0 0
vn 1 0 0
vn 1 0 0
vn 1 0 0
vn 1 0 0
vn 1 0 0
vn 1 0 0
vn 1 0 0
vn 1 0 0
vn 1 0 0
vn 1 0 0
vn 1 0 0
vn 1 0 0
vn 1 0 0
vn 1 0 0
vn 1 0 0
vn 1 0 0
vn 1 0 0
vn 1 0 0
vn 1 0 0
vn 1 0 0
vn 1 0 0
vn 1 0 0
vn 1 0 0
vn 1 0 0
vn 1 0 0
vn 1 0 0
vn 1 0 0
vn 1 0 0
vn 0 -0.0009624175 -0.9999995
vn 0 -0.0009624175 -0.9999995
vn 0 -0.0009624175 -0.9999995
vn 0 -0.0009624175 -0.9999995
vn -1 0 0
vn -1 0 0
vn -1 0 0
vn -1 0 0
vn -1 0 0
vn -1 0 0
vn -1 0 0
vn -1 0 0
vn -1 0 0
vn -1 0 0
vn -1 0 0
vn -1 0 0
vn -1 0 0
vn -1 0 0
vn -1 0 0
vn -1 0 0
vn -1 0 0
vn -1 0 0
vn -1 0 0
vn -1 0 0
vn -1 0 0
vn -1 0 0
vn -1 0 0
vn -1 0 0
vn -1 0 0
vn -1 0 0
vn -1 0 0
vn -1 0 0
vn -1 0 0
vn -1 0 0
vn -1 0 0
vn -1 0 0
vn -1 0 0
vn 0 -1 0
vn 0 -1 0
vn 0 -1 0
vn 0 -1 0
vn 0 -1 0
vn 0 -1 0
vn 0 0 1
vn 0 0 1
vn 0 0 1
vn 0 0 1
vn 0 0 -1
vn 0 0 -1
vn 0 0 -1
vn 0 0 -1
vn 0 -0.9095752 -0.4155393
vn 0 -0.9095752 -0.4155393
vn 0 -0.9095752 -0.4155393
vn 0 -0.9095752 -0.4155393
vn 0 0 -1
vn 0 0 -1
vn 0 0 -1
vn 0 0 -1
vn 0 -1 0
vn 0 -1 0
vn 0 -1 0
vn 0 -1 0
vn 0 1 0
vn 0 1 0
vn 0 1 0
vn 0 1 0
vn 0 1 0
vn 0 1 0
vn 0 1 0
vn 0 1 0
vn 0 1 0
vn 0 1 0
vn 0 1 0
vn 0 1 0
vn 0 1 0
vn 0 1 0
vn 0 1 0
vn 0 1 0
vn 0 0 1
vn 0 0 1
vn 0 0 1
vn 0 0 1
vn 0 -1 0
vn 0 -1 0
vn 0 -1 0
vn 0 -1 0
vn 0 -1 0
vn 0 -1 0
vn 0 -1 0
vn 0 -1 0
vn 0 1 0
vn 0 1 0
vn 0 1 0
vn 0 1 0
vn 0 0 1
vn 0 0 1
vn 0 0 1
vn 0 0 1
vn 0 -1 0
vn 0 -1 0
vn 0 -1 0
vn 0 -1 0
vn 0 -1 0
vn 0 -1 0
vn 0 -0.0009624175 0.9999995
vn 0 -0.0009624175 0.9999995
vn 0 -0.0009624175 0.9999995
vn 0 -0.0009624175 0.9999995
vn 0 0 -1
vn 0 0 -1
vn 0 0 -1
vn 0 0 -1
vn 0 0 1
vn 0 0 1
vn 0 0 1
vn 0 0 1
vn 0 -0.9095752 0.4155395
vn 0 -0.9095752 0.4155395
vn 0 -0.9095752 0.4155395
vn 0 -0.9095752 0.4155395
vn 0 0 1
vn 0 0 1
vn 0 0 1
vn 0 0 1
vn 0 -1 0
vn 0 -1 0
vn 0 -1 0
vn 0 -1 0
vn 0 0 -1
vn 0 0 -1
vn 0 0 -1
vn 0 0 -1
vn 0 -1 0
vn 0 -1 0
vn 0 -1 0
vn 0 -1 0
vn 0 -1 0
vn 0 -1 0
vn 0 -1 0
vn 0 -1 0
vn 0 1 0
vn 0 1 0
vn 0 1 0
vn 0 1 0
vn 0 0 -1
vn 0 0 -1
vn 0 0 -1
vn 0 0 -1

g Support_d6
usemtl Support_d6
usemap Support_d6
f 1//1 3//3 2//2
f 4//4 1//1 2//2
f 1//1 4//4 5//5
f 6//6 1//1 5//5
f 6//6 5//5 7//7
f 8//8 5//5 4//4
f 8//8 4//4 9//9
f 4//4 10//10 9//9
f 11//11 7//7 9//9
f 6//6 7//7 11//11
f 12//12 11//11 9//9
f 9//9 10//10 12//12
f 13//13 11//11 12//12
f 13//13 14//14 11//11
f 12//12 15//15 13//13
f 10//10 15//15 12//12
f 16//16 6//6 11//11
f 17//17 6//6 16//16
f 18//18 17//17 16//16
f 19//19 18//18 16//16
f 18//18 19//19 20//20
f 21//21 18//18 20//20
f 22//22 14//14 13//13
f 22//22 13//13 23//23
f 15//15 23//23 13//13
f 24//24 22//22 23//23
f 24//24 25//25 22//22
f 25//25 20//20 22//22
f 25//25 26//26 20//20
f 26//26 21//21 20//20
f 26//26 25//25 27//27
f 26//26 27//27 28//28
f 29//29 28//28 27//27
f 28//28 29//29 30//30
f 31//31 28//28 30//30
f 27//27 32//32 29//29
f 29//29 32//32 24//24
f 33//33 29//29 24//24
f 33//33 24//24 23//23
f 15//15 33//33 23//23
f 34//34 36//36 35//35
f 34//34 37//37 36//36
f 38//38 40//40 39//39
f 41//41 38//38 39//39
f 42//42 41//41 39//39
f 42//42 43//43 41//41
f 44//44 42//42 39//39
f 44//44 39//39 45//45
f 46//46 44//44 45//45
f 46//46 47//47 44//44
f 48//48 44//44 47//47
f 48//48 49//49 44//44
f 48//48 50//50 49//49
f 48//48 51//51 50//50
f 51//51 48//48 47//47
f 50//50 52//52 49//49
f 52//52 41//41 43//43
f 49//49 52//52 43//43
f 53//53 51//51 47//47
f 46//46 45//45 54//54
f 46//46 54//54 55//55
f 54//54 56//56 55//55
f 56//56 57//57 55//55
f 57//57 58//58 55//55
f 51//51 59//59 50//50
f 59//59 51//51 53//53
f 50//50 59//59 60//60
f 61//61 50//50 60//60
f 62//62 60//60 59//59
f 62//62 59//59 63//63
f 59//59 53//53 63//63
f 63//63 64//64 62//62
f 63//63 58//58 64//64
f 64//64 58//58 57//57
f 65//65 62//62 64//64
f 65//65 66//66 62//62
f 67//67 66//66 65//65
f 68//68 67//67 65//65
f 69//69 68//68 65//65
f 70//70 66//66 67//67
f 61//61 60//60 70//70
f 67//67 61//61 70//70
f 71//71 73//73 72//72
f 71//71 74//74 73//73
f 75//75 72//72 73//73
f 75//75 73//73 76//76
f 77//77 79//79 78//78
f 77//77 80//80 79//79
f 81//81 83//83 82//82
f 81//81 84//84 83//83
f 85//85 87//87 86//86
f 85//85 88//88 87//87
f 89//89 91//91 90//90
f 89//89 92//92 91//91
f 93//93 95//95 94//94
f 93//93 96//96 95//95
f 97//97 99//99 98//98
f 97//97 100//100 99//99
f 101//101 99//99 100//100
f 101//101 102//102 99//99
f 103//103 102//102 101//101
f 103//103 104//104 102//102
f 105//105 104//104 103//103
f 105//105 103//103 106//106
f 107//107 109//109 108//108
f 107//107 110//110 109//109
f 111//111 107//107 108//108
f 111//111 112//112 107//107
f 113//113 115//115 114//114
f 113//113 116//116 115//115
f 117//117 119//119 118//118
f 117//117 120//120 119//119
f 121//121 123//123 122//122
f 121//121 124//124 123//123
f 125//125 127//127 126//126
f 125//125 128//128 127//127
f 129//129 131//131 130//130
f 129//129 132//132 131//131
f 133//133 135//135 134//134
f 133//133 136//136 135//135
f 137//137 134//134 135//135
f 137//137 135//135 138//138
f 139//139 141//141 140//140
f 139//139 142//142 141//141
f 143//143 145//145 144//144
f 143//143 146//146 145//145
f 147//147 149//149 148//148
f 147//147 150//150 149//149
f 151//151 153//153 152//152
f 151//151 154//154 153//153
f 155//155 157//157 156//156
f 155//155 158//158 157//157
f 159//159 161//161 160//160
f 159//159 162//162 161//161
f 163//163 165//165 164//164
f 163//163 166//166 165//165
f 167//167 169//169 168//168
f 167//167 170//170 169//169
f 171//171 173//173 172//172
f 171//171 174//174 173//173
f 175//175 177//177 176//176
f 175//175 178//178 177//177
f 179//179 181//181 180//180
f 179//179 182//182 181//181
