#Support_d18.obj

v -0.175 0 -1.413877
v -0.175 4.371139E-09 -0.3513476
v 0.175 4.371139E-09 -0.3513476
v 0.175 0 -1.413877
v -0.175 1.726175 0
v -0.175 2.163871 -1.416123
v -0.175 2.163871 4.887621E-08
v -0.175 1.726175 -0.8949999
v -0.175 1.039116 -1.415393
v -0.175 1.239116 -0.895
v -0.175 0 -1.413877
v -0.175 4.371139E-09 -0.3513476
v -0.175 1.239116 -0.3513476
v -0.175 2.163871 1.416123
v -0.175 1.726175 0.8949999
v -0.175 1.039116 1.415393
v -0.175 1.239116 0.895
v -0.175 0 1.413877
v -0.175 4.371139E-09 0.3513476
v -0.175 1.239116 0.3513476
v 0.175 1.726175 -0.8949999
v 0.175 1.039116 -1.415393
v 0.175 1.239116 -0.895
v 0.175 2.163871 -1.416123
v 0.175 1.726175 0
v 0.175 2.163871 4.887621E-08
v 0.175 0 -1.413877
v 0.175 4.371139E-09 -0.3513476
v 0.175 1.239116 -0.3513476
v 0.175 2.163871 1.416123
v 0.175 1.726175 0.8949999
v 0.175 1.039116 1.415393
v 0.175 1.239116 0.895
v 0.175 0 1.413877
v 0.175 4.371139E-09 0.3513476
v 0.175 1.239116 0.3513476
v -0.175 1.039116 -1.415393
v 0.175 1.039116 -1.415393
v 0.175 2.163871 -1.416123
v -0.175 2.163871 -1.416123
v 0.175 0 -1.413877
v -0.175 0 -1.413877
v 0.175 2.163871 -1.416123
v 0.175 2.163871 4.887621E-08
v -0.175 2.163871 4.887621E-08
v -0.175 2.163871 -1.416123
v -0.175 2.163871 1.416123
v 0.175 2.163871 1.416123
v -0.175 4.371139E-09 -0.3513476
v -0.175 1.239116 -0.3513476
v 0.175 1.239116 -0.3513476
v 0.175 4.371139E-09 -0.3513476
v 0.175 1.239116 -0.3513476
v -0.175 1.239116 -0.3513476
v -0.175 1.239116 -0.895
v 0.175 1.239116 -0.895
v -0.175 1.239116 -0.895
v -0.175 1.726175 -0.8949999
v 0.175 1.726175 -0.8949999
v 0.175 1.239116 -0.895
v -0.175 1.726175 -0.8949999
v -0.175 1.726175 0
v 0.175 1.726175 0
v 0.175 1.726175 -0.8949999
v 0.175 1.726175 0.8949999
v -0.175 1.726175 0.8949999
v -0.175 4.371139E-09 0.3513476
v -0.175 0 1.413877
v 0.175 0 1.413877
v 0.175 4.371139E-09 0.3513476
v 0.175 1.039116 1.415393
v -0.175 1.039116 1.415393
v -0.175 2.163871 1.416123
v 0.175 2.163871 1.416123
v -0.175 0 1.413877
v 0.175 0 1.413877
v -0.175 1.239116 0.3513476
v -0.175 4.371139E-09 0.3513476
v 0.175 4.371139E-09 0.3513476
v 0.175 1.239116 0.3513476
v -0.175 1.239116 0.895
v -0.175 1.239116 0.3513476
v 0.175 1.239116 0.3513476
v 0.175 1.239116 0.895
v -0.175 1.726175 0.8949999
v -0.175 1.239116 0.895
v 0.175 1.239116 0.895
v 0.175 1.726175 0.8949999

vn 0 -1 0
vn 0 -1 0
vn 0 -1 0
vn 0 -1 0
vn -1 0 0
vn -1 0 0
vn -1 0 0
vn -1 0 0
vn -1 0 0
vn -1 0 0
vn -1 0 0
vn -1 0 0
vn -1 0 0
vn -1 0 0
vn -1 0 0
vn -1 0 0
vn -1 0 0
vn -1 0 0
vn -1 0 0
vn -1 0 0
vn 1 0 0
vn 1 0 0
vn 1 0 0
vn 1 0 0
vn 1 0 0
vn 1 0 0
vn 1 0 0
vn 1 0 0
vn 1 0 0
vn 1 0 0
vn 1 0 0
vn 1 0 0
vn 1 0 0
vn 1 0 0
vn 1 0 0
vn 1 0 0
vn 0 -0.001053937 -0.9999995
vn 0 -0.001053937 -0.9999995
vn 0 -0.0006489576 -0.9999998
vn 0 -0.0006489576 -0.9999998
vn 0 -0.001458916 -0.9999989
vn 0 -0.001458916 -0.9999989
vn 0 1 0
vn 0 1 0
vn 0 1 0
vn 0 1 0
vn 0 1 0
vn 0 1 0
vn 0 0 1
vn 0 0 1
vn 0 0 1
vn 0 0 1
vn 0 1 0
vn 0 1 0
vn 0 1 0
vn 0 1 0
vn 0 0 1
vn 0 0 1
vn 0 0 1
vn 0 0 1
vn 0 -1 0
vn 0 -1 0
vn 0 -1 0
vn 0 -1 0
vn 0 -1 0
vn 0 -1 0
vn 0 -1 0
vn 0 -1 0
vn 0 -1 0
vn 0 -1 0
vn 0 -0.001053937 0.9999995
vn 0 -0.001053937 0.9999995
vn 0 -0.0006489576 0.9999998
vn 0 -0.0006489576 0.9999998
vn 0 -0.001458916 0.9999989
vn 0 -0.001458916 0.9999989
vn 0 0 -1
vn 0 0 -1
vn 0 0 -1
vn 0 0 -1
vn 0 1 0
vn 0 1 0
vn 0 1 0
vn 0 1 0
vn 0 0 -1
vn 0 0 -1
vn 0 0 -1
vn 0 0 -1

g Support_d18
usemtl Support_d18
usemap Support_d18
f 1//1 3//3 2//2
f 1//1 4//4 3//3
f 5//5 7//7 6//6
f 8//8 5//5 6//6
f 6//6 9//9 8//8
f 9//9 10//10 8//8
f 9//9 11//11 10//10
f 11//11 12//12 10//10
f 13//13 10//10 12//12
f 7//7 5//5 14//14
f 5//5 15//15 14//14
f 16//16 14//14 15//15
f 17//17 16//16 15//15
f 18//18 16//16 17//17
f 19//19 18//18 17//17
f 17//17 20//20 19//19
f 21//21 23//23 22//22
f 24//24 21//21 22//22
f 21//21 24//24 25//25
f 24//24 26//26 25//25
f 22//22 23//23 27//27
f 23//23 28//28 27//27
f 23//23 29//29 28//28
f 26//26 30//30 25//25
f 30//30 31//31 25//25
f 31//31 30//30 32//32
f 33//33 31//31 32//32
f 33//33 32//32 34//34
f 35//35 33//33 34//34
f 36//36 33//33 35//35
f 37//37 39//39 38//38
f 37//37 40//40 39//39
f 41//41 37//37 38//38
f 41//41 42//42 37//37
f 43//43 45//45 44//44
f 43//43 46//46 45//45
f 47//47 44//44 45//45
f 47//47 48//48 44//44
f 49//49 51//51 50//50
f 49//49 52//52 51//51
f 53//53 55//55 54//54
f 53//53 56//56 55//55
f 57//57 59//59 58//58
f 57//57 60//60 59//59
f 61//61 63//63 62//62
f 61//61 64//64 63//63
f 62//62 63//63 65//65
f 62//62 65//65 66//66
f 67//67 69//69 68//68
f 67//67 70//70 69//69
f 71//71 73//73 72//72
f 71//71 74//74 73//73
f 75//75 71//71 72//72
f 75//75 76//76 71//71
f 77//77 79//79 78//78
f 77//77 80//80 79//79
f 81//81 83//83 82//82
f 81//81 84//84 83//83
f 85//85 87//87 86//86
f 85//85 88//88 87//87
