#Support_d27.obj

v -0.175 1.645678 0.775
v -0.175 2.035697 1.126871
v -0.175 1.227377 0.775
v -0.1750001 2.035697 0
v -0.1750001 1.645678 0
v -0.175 6.397578E-08 1.125
v -0.175 0.8340668 0.775
v -0.175 6.397578E-08 0.775
v -0.175 1.227377 0.4753341
v -0.175 0.8340668 0.4753341
v -0.175 1.645678 -0.775
v -0.175 2.035697 -1.126871
v -0.175 1.227377 -0.775
v -0.175 6.397578E-08 -1.125
v -0.175 0.8340668 -0.775
v -0.175 6.397578E-08 -0.775
v -0.175 0.8340668 -0.4753341
v -0.175 1.227377 -0.4753341
v 0.1749999 1.645678 0
v 0.175 2.035697 1.126871
v 0.1749999 2.035697 0
v 0.175 1.645678 0.775
v 0.175 1.227377 0.775
v 0.175 0.8340668 0.775
v 0.175 6.397578E-08 1.125
v 0.175 0.8340668 0.4753341
v 0.175 1.227377 0.4753341
v 0.175 6.397578E-08 0.775
v 0.175 2.035697 -1.126871
v 0.175 1.645678 -0.775
v 0.175 1.227377 -0.775
v 0.175 0.8340668 -0.775
v 0.175 6.397578E-08 -1.125
v 0.175 1.227377 -0.4753341
v 0.175 0.8340668 -0.4753341
v 0.175 6.397578E-08 -0.775
v -0.1750001 2.035697 0
v 0.1749999 2.035697 0
v 0.175 2.035697 1.126871
v -0.175 2.035697 1.126871
v 0.175 2.035697 -1.126871
v -0.175 2.035697 -1.126871
v -0.175 1.645678 0.775
v -0.175 1.227377 0.775
v 0.175 1.227377 0.775
v 0.175 1.645678 0.775
v -0.175 0.8340668 0.775
v -0.175 6.397578E-08 0.775
v 0.175 6.397578E-08 0.775
v 0.175 0.8340668 0.775
v 0.1749999 1.645678 0
v -0.1750001 1.645678 0
v -0.175 1.645678 0.775
v 0.175 1.645678 0.775
v -0.175 1.645678 -0.775
v 0.175 1.645678 -0.775
v -0.175 6.397578E-08 1.125
v 0.175 6.397578E-08 1.125
v 0.175 6.397578E-08 0.775
v -0.175 6.397578E-08 0.775
v 0.175 6.397578E-08 1.125
v -0.175 6.397578E-08 1.125
v -0.175 2.035697 1.126871
v 0.175 2.035697 1.126871
v 0.175 1.227377 0.4753341
v 0.175 1.227377 0.775
v -0.175 1.227377 0.775
v -0.175 1.227377 0.4753341
v -0.175 1.227377 0.4753341
v -0.175 0.8340668 0.4753341
v 0.175 0.8340668 0.4753341
v 0.175 1.227377 0.4753341
v -0.175 0.8340668 0.4753341
v -0.175 0.8340668 0.775
v 0.175 0.8340668 0.775
v 0.175 0.8340668 0.4753341
v -0.175 1.645678 -0.775
v 0.175 1.645678 -0.775
v 0.175 1.227377 -0.775
v -0.175 1.227377 -0.775
v -0.175 0.8340668 -0.775
v 0.175 0.8340668 -0.775
v 0.175 6.397578E-08 -0.775
v -0.175 6.397578E-08 -0.775
v 0.175 6.397578E-08 -1.125
v -0.175 6.397578E-08 -1.125
v -0.175 6.397578E-08 -0.775
v 0.175 6.397578E-08 -0.775
v -0.175 6.397578E-08 -1.125
v 0.175 6.397578E-08 -1.125
v 0.175 2.035697 -1.126871
v -0.175 2.035697 -1.126871
v 0.175 1.227377 -0.775
v 0.175 1.227377 -0.4753341
v -0.175 1.227377 -0.4753341
v -0.175 1.227377 -0.775
v -0.175 0.8340668 -0.4753341
v -0.175 1.227377 -0.4753341
v 0.175 1.227377 -0.4753341
v 0.175 0.8340668 -0.4753341
v -0.175 0.8340668 -0.775
v -0.175 0.8340668 -0.4753341
v 0.175 0.8340668 -0.4753341
v 0.175 0.8340668 -0.775

vn -1 0 0
vn -1 0 0
vn -1 0 0
vn -1 0 0
vn -1 0 0
vn -1 0 0
vn -1 0 0
vn -1 0 0
vn -1 0 0
vn -1 0 0
vn -1 0 0
vn -1 0 0
vn -1 0 0
vn -1 0 0
vn -1 0 0
vn -1 0 0
vn -1 0 0
vn -1 0 0
vn 1 0 0
vn 1 0 0
vn 1 0 0
vn 1 0 0
vn 1 0 0
vn 1 0 0
vn 1 0 0
vn 1 0 0
vn 1 0 0
vn 1 0 0
vn 1 0 0
vn 1 0 0
vn 1 0 0
vn 1 0 0
vn 1 0 0
vn 1 0 0
vn 1 0 0
vn 1 0 0
vn 0 1 0
vn 0 1 0
vn 0 1 0
vn 0 1 0
vn 0 1 0
vn 0 1 0
vn 0 0 -1
vn 0 0 -1
vn 0 0 -1
vn 0 0 -1
vn 0 0 -1
vn 0 0 -1
vn 0 0 -1
vn 0 0 -1
vn 0 -1 0
vn 0 -1 0
vn 0 -1 0
vn 0 -1 0
vn 0 -1 0
vn 0 -1 0
vn 0 -1 0
vn 0 -1 0
vn 0 -1 0
vn 0 -1 0
vn 0 -0.0009193246 0.9999996
vn 0 -0.0009193246 0.9999996
vn 0 -0.0009193246 0.9999996
vn 0 -0.0009193246 0.9999996
vn 0 1 0
vn 0 1 0
vn 0 1 0
vn 0 1 0
vn 0 0 -1
vn 0 0 -1
vn 0 0 -1
vn 0 0 -1
vn 0 -1 0
vn 0 -1 0
vn 0 -1 0
vn 0 -1 0
vn 0 0 1
vn 0 0 1
vn 0 0 1
vn 0 0 1
vn 0 0 1
vn 0 0 1
vn 0 0 1
vn 0 0 1
vn 0 -1 0
vn 0 -1 0
vn 0 -1 0
vn 0 -1 0
vn 0 -0.0009193246 -0.9999996
vn 0 -0.0009193246 -0.9999996
vn 0 -0.0009193246 -0.9999996
vn 0 -0.0009193246 -0.9999996
vn 0 1 0
vn 0 1 0
vn 0 1 0
vn 0 1 0
vn 0 0 1
vn 0 0 1
vn 0 0 1
vn 0 0 1
vn 0 -1 0
vn 0 -1 0
vn 0 -1 0
vn 0 -1 0

g Support_d27
usemtl Support_d27
usemap Support_d27
f 1//1 3//3 2//2
f 2//2 4//4 1//1
f 4//4 5//5 1//1
f 2//2 3//3 6//6
f 3//3 7//7 6//6
f 7//7 8//8 6//6
f 7//7 3//3 9//9
f 7//7 9//9 10//10
f 5//5 4//4 11//11
f 4//4 12//12 11//11
f 13//13 11//11 12//12
f 13//13 12//12 14//14
f 15//15 13//13 14//14
f 16//16 15//15 14//14
f 17//17 13//13 15//15
f 17//17 18//18 13//13
f 19//19 21//21 20//20
f 22//22 19//19 20//20
f 22//22 20//20 23//23
f 23//23 20//20 24//24
f 20//20 25//25 24//24
f 26//26 23//23 24//24
f 26//26 27//27 23//23
f 28//28 24//24 25//25
f 21//21 19//19 29//29
f 19//19 30//30 29//29
f 29//29 30//30 31//31
f 29//29 31//31 32//32
f 33//33 29//29 32//32
f 32//32 31//31 34//34
f 32//32 34//34 35//35
f 32//32 36//36 33//33
f 37//37 39//39 38//38
f 37//37 40//40 39//39
f 41//41 37//37 38//38
f 41//41 42//42 37//37
f 43//43 45//45 44//44
f 43//43 46//46 45//45
f 47//47 49//49 48//48
f 47//47 50//50 49//49
f 51//51 53//53 52//52
f 51//51 54//54 53//53
f 55//55 51//51 52//52
f 55//55 56//56 51//51
f 57//57 59//59 58//58
f 57//57 60//60 59//59
f 61//61 63//63 62//62
f 61//61 64//64 63//63
f 65//65 67//67 66//66
f 65//65 68//68 67//67
f 69//69 71//71 70//70
f 69//69 72//72 71//71
f 73//73 75//75 74//74
f 73//73 76//76 75//75
f 77//77 79//79 78//78
f 77//77 80//80 79//79
f 81//81 83//83 82//82
f 81//81 84//84 83//83
f 85//85 87//87 86//86
f 85//85 88//88 87//87
f 89//89 91//91 90//90
f 89//89 92//92 91//91
f 93//93 95//95 94//94
f 93//93 96//96 95//95
f 97//97 99//99 98//98
f 97//97 100//100 99//99
f 101//101 103//103 102//102
f 101//101 104//104 103//103
