#Support_d11.obj

v -0.175 -1.311342E-08 1.113877
v -0.175 2.263871 1.116123
v 0.175 2.263871 1.116123
v 0.175 -1.311342E-08 1.113877
v 0.175 -2.185569E-08 0.495
v -0.175 -2.185569E-08 0.495
v -0.175 -1.311342E-08 1.113877
v 0.175 -1.311342E-08 1.113877
v -0.175 -1.311342E-08 1.113877
v -0.175 1.526175 0.4949999
v -0.175 2.263871 1.116123
v -0.175 -2.185569E-08 0.495
v -0.175 1.526175 0
v -0.175 2.263871 0
v -0.175 2.263871 -1.116123
v -0.175 1.526175 -0.4949999
v -0.175 -1.311342E-08 -1.113877
v -0.175 -2.185569E-08 -0.495
v 0.175 2.263871 0
v 0.175 2.263871 1.116123
v -0.175 2.263871 1.116123
v -0.175 2.263871 0
v 0.175 2.263871 -1.116123
v -0.175 2.263871 -1.116123
v 0.175 1.526175 0.4949999
v 0.175 -1.311342E-08 1.113877
v 0.175 2.263871 1.116123
v 0.175 -2.185569E-08 0.495
v 0.175 1.526175 0
v 0.175 2.263871 0
v 0.175 2.263871 -1.116123
v 0.175 1.526175 -0.4949999
v 0.175 -1.311342E-08 -1.113877
v 0.175 -2.185569E-08 -0.495
v -0.175 1.526175 0.4949999
v -0.175 -2.185569E-08 0.495
v 0.175 -2.185569E-08 0.495
v 0.175 1.526175 0.4949999
v -0.175 1.526175 0
v -0.175 1.526175 0.4949999
v 0.175 1.526175 0.4949999
v 0.175 1.526175 0
v -0.175 1.526175 -0.4949999
v 0.175 1.526175 -0.4949999
v -0.175 -1.311342E-08 -1.113877
v 0.175 -1.311342E-08 -1.113877
v 0.175 2.263871 -1.116123
v -0.175 2.263871 -1.116123
v -0.175 -2.185569E-08 -0.495
v 0.175 -2.185569E-08 -0.495
v 0.175 -1.311342E-08 -1.113877
v -0.175 -1.311342E-08 -1.113877
v -0.175 1.526175 -0.4949999
v 0.175 1.526175 -0.4949999
v 0.175 -2.185569E-08 -0.495
v -0.175 -2.185569E-08 -0.495

vn 0 -0.0009920629 0.9999995
vn 0 -0.0009920629 0.9999995
vn 0 -0.0009920629 0.9999995
vn 0 -0.0009920629 0.9999995
vn 0 -1 0
vn 0 -1 0
vn 0 -1 0
vn 0 -1 0
vn -1 0 0
vn -1 0 0
vn -1 0 0
vn -1 0 0
vn -1 0 0
vn -1 0 0
vn -1 0 0
vn -1 0 0
vn -1 0 0
vn -1 0 0
vn 0 1 0
vn 0 1 0
vn 0 1 0
vn 0 1 0
vn 0 1 0
vn 0 1 0
vn 1 0 0
vn 1 0 0
vn 1 0 0
vn 1 0 0
vn 1 0 0
vn 1 0 0
vn 1 0 0
vn 1 0 0
vn 1 0 0
vn 1 0 0
vn 0 0 -1
vn 0 0 -1
vn 0 0 -1
vn 0 0 -1
vn 0 -1 0
vn 0 -1 0
vn 0 -1 0
vn 0 -1 0
vn 0 -1 0
vn 0 -1 0
vn 0 -0.0009920629 -0.9999995
vn 0 -0.0009920629 -0.9999995
vn 0 -0.0009920629 -0.9999995
vn 0 -0.0009920629 -0.9999995
vn 0 -1 0
vn 0 -1 0
vn 0 -1 0
vn 0 -1 0
vn 0 0 1
vn 0 0 1
vn 0 0 1
vn 0 0 1

g Support_d11
usemtl Support_d11
usemap Support_d11
f 1//1 3//3 2//2
f 1//1 4//4 3//3
f 5//5 7//7 6//6
f 5//5 8//8 7//7
f 9//9 11//11 10//10
f 12//12 9//9 10//10
f 13//13 10//10 11//11
f 14//14 13//13 11//11
f 13//13 14//14 15//15
f 16//16 13//13 15//15
f 15//15 17//17 16//16
f 17//17 18//18 16//16
f 19//19 21//21 20//20
f 19//19 22//22 21//21
f 23//23 22//22 19//19
f 23//23 24//24 22//22
f 25//25 27//27 26//26
f 28//28 25//25 26//26
f 27//27 25//25 29//29
f 30//30 27//27 29//29
f 31//31 30//30 29//29
f 32//32 31//31 29//29
f 31//31 32//32 33//33
f 32//32 34//34 33//33
f 35//35 37//37 36//36
f 35//35 38//38 37//37
f 39//39 41//41 40//40
f 39//39 42//42 41//41
f 43//43 42//42 39//39
f 43//43 44//44 42//42
f 45//45 47//47 46//46
f 45//45 48//48 47//47
f 49//49 51//51 50//50
f 49//49 52//52 51//51
f 53//53 55//55 54//54
f 53//53 56//56 55//55
