#Support_d4.obj

v -0.1750001 0.8449107 1.325
v 0.1749999 0.8449107 1.324826
v 0.175 5.791759E-08 1.325
v -0.175 5.791759E-08 1.325
v 0.175 0.4541247 0.975
v -0.175 0.4541247 0.975
v -0.175 4.26186E-08 0.975
v 0.175 4.26186E-08 0.975
v -0.175 0.4541247 0.975
v -0.175 5.791759E-08 1.325
v -0.175 4.26186E-08 0.975
v -0.1750001 0.8449107 1.325
v -0.1750001 0.8449107 1.024826
v -0.175 0.4541247 0.675
v -0.1750001 1.835697 1.025
v -0.1750001 1.445678 0.675
v -0.1750001 1.835697 0
v -0.1750001 1.445678 0
v -0.1750001 1.445678 -0.675
v -0.1750001 1.835697 -1.025
v -0.175 0.4541247 -0.675
v -0.1750001 0.8449107 -1.024826
v -0.175 0.4541247 -0.975
v -0.1750001 0.8449107 -1.325
v -0.175 5.791759E-08 -1.325
v -0.175 4.26186E-08 -0.975
v 0.1749999 0.8449107 1.324826
v 0.175 4.26186E-08 0.975
v 0.175 5.791759E-08 1.325
v 0.175 0.4541247 0.975
v 0.175 0.4541247 0.675
v 0.1749999 0.8449107 1.024826
v 0.1749999 1.835697 1.024826
v 0.1749999 0.8449108 1.025
v 0.1749999 1.445678 0.675
v 0.1749999 1.445678 0
v 0.1749999 1.835697 0
v 0.1749999 1.835697 -1.024826
v 0.1749999 1.445678 -0.675
v 0.175 0.4541247 -0.675
v 0.1749999 0.8449108 -1.025
v 0.1749999 0.8449107 -1.324826
v 0.175 0.4541247 -0.975
v 0.175 4.26186E-08 -0.975
v 0.175 5.791759E-08 -1.325
v 0.1749999 0.8449107 -1.024826
v 0.1749999 0.8449108 1.025
v -0.1750001 0.8449107 1.024826
v -0.1750001 1.835697 1.025
v 0.1749999 1.835697 1.024826
v 0.175 0.4541247 0.675
v -0.175 0.4541247 0.675
v -0.175 0.4541247 0.975
v 0.175 0.4541247 0.975
v -0.1750001 0.8449107 1.024826
v 0.1749999 0.8449107 1.024826
v 0.1749999 0.8449107 1.324826
v -0.1750001 0.8449107 1.325
v -0.1750001 1.445678 0.675
v -0.175 0.4541247 0.675
v 0.175 0.4541247 0.675
v 0.1749999 1.445678 0.675
v -0.1750001 1.445678 0
v -0.1750001 1.445678 0.675
v 0.1749999 1.445678 0.675
v 0.1749999 1.445678 0
v -0.1750001 1.445678 -0.675
v 0.1749999 1.445678 -0.675
v -0.1750001 1.835697 0
v 0.1749999 1.835697 0
v 0.1749999 1.835697 1.024826
v -0.1750001 1.835697 1.025
v -0.1750001 1.835697 -1.025
v 0.1749999 1.835697 -1.024826
v 0.1749999 0.8449107 -1.324826
v -0.1750001 0.8449107 -1.325
v -0.175 5.791759E-08 -1.325
v 0.175 5.791759E-08 -1.325
v 0.175 0.4541247 -0.975
v 0.175 4.26186E-08 -0.975
v -0.175 4.26186E-08 -0.975
v -0.175 0.4541247 -0.975
v -0.1750001 1.835697 -1.025
v -0.1750001 0.8449107 -1.024826
v 0.1749999 0.8449108 -1.025
v 0.1749999 1.835697 -1.024826
v -0.175 0.4541247 -0.975
v -0.175 0.4541247 -0.675
v 0.175 0.4541247 -0.675
v 0.175 0.4541247 -0.975
v 0.1749999 0.8449107 -1.024826
v -0.1750001 0.8449107 -1.024826
v -0.1750001 0.8449107 -1.325
v 0.1749999 0.8449107 -1.324826
v -0.1750001 1.445678 -0.675
v 0.1749999 1.445678 -0.675
v 0.175 0.4541247 -0.675
v -0.175 0.4541247 -0.675

vn 0.0002483201 0.0001029259 1
vn 0.0002483201 0.0001029259 1
vn 0.0002483201 0.0001029259 1
vn 0.0002483201 0.0001029259 1
vn 0 0 -1
vn 0 0 -1
vn 0 0 -1
vn 0 0 -1
vn -1 0 0
vn -1 0 0
vn -1 0 0
vn -1 0 0
vn -1 0 0
vn -1 0 0
vn -1 0 0
vn -1 0 0
vn -1 0 0
vn -1 0 0
vn -1 0 0
vn -1 0 0
vn -1 0 0
vn -1 0 0
vn -1 0 0
vn -1 0 0
vn -1 0 0
vn -1 0 0
vn 1 0 0
vn 1 0 0
vn 1 0 0
vn 1 0 0
vn 1 0 0
vn 1 0 0
vn 1 0 0
vn 1 0 0
vn 1 0 0
vn 1 0 0
vn 1 0 0
vn 1 0 0
vn 1 0 0
vn 1 0 0
vn 1 0 0
vn 1 0 0
vn 1 0 0
vn 1 0 0
vn 1 0 0
vn 1 0 0
vn 0 0 1
vn 0 0 1
vn 0 0 1
vn 0 0 1
vn 0 -1 0
vn 0 -1 0
vn 0 -1 0
vn 0 -1 0
vn 0 1 0
vn 0 1 0
vn 0 1 0
vn 0 1 0
vn 0 0 -1
vn 0 0 -1
vn 0 0 -1
vn 0 0 -1
vn 0 -1 0
vn 0 -1 0
vn 0 -1 0
vn 0 -1 0
vn 0 -1 0
vn 0 -1 0
vn 0 1 0
vn 0 1 0
vn 0 1 0
vn 0 1 0
vn 0 1 0
vn 0 1 0
vn 0.0002483201 0.0001029259 -1
vn 0.0002483201 0.0001029259 -1
vn 0.0002483201 0.0001029259 -1
vn 0.0002483201 0.0001029259 -1
vn 0 0 1
vn 0 0 1
vn 0 0 1
vn 0 0 1
vn 0 0 -1
vn 0 0 -1
vn 0 0 -1
vn 0 0 -1
vn 0 -1 0
vn 0 -1 0
vn 0 -1 0
vn 0 -1 0
vn 0 1 0
vn 0 1 0
vn 0 1 0
vn 0 1 0
vn 0 0 1
vn 0 0 1
vn 0 0 1
vn 0 0 1

g Support_d4
usemtl Support_d4
usemap Support_d4
f 1//1 3//3 2//2
f 1//1 4//4 3//3
f 5//5 7//7 6//6
f 5//5 8//8 7//7
f 9//9 11//11 10//10
f 12//12 9//9 10//10
f 12//12 13//13 9//9
f 13//13 14//14 9//9
f 14//14 13//13 15//15
f 16//16 14//14 15//15
f 15//15 17//17 16//16
f 17//17 18//18 16//16
f 18//18 17//17 19//19
f 17//17 20//20 19//19
f 21//21 19//19 20//20
f 22//22 21//21 20//20
f 21//21 22//22 23//23
f 22//22 24//24 23//23
f 23//23 24//24 25//25
f 26//26 23//23 25//25
f 27//27 29//29 28//28
f 30//30 27//27 28//28
f 30//30 31//31 27//27
f 31//31 32//32 27//27
f 33//33 34//34 31//31
f 35//35 33//33 31//31
f 35//35 36//36 33//33
f 36//36 37//37 33//33
f 37//37 36//36 38//38
f 36//36 39//39 38//38
f 38//38 39//39 40//40
f 41//41 38//38 40//40
f 40//40 43//43 42//42
f 42//42 43//43 44//44
f 45//45 42//42 44//44
f 46//46 40//40 42//42
f 47//47 49//49 48//48
f 47//47 50//50 49//49
f 51//51 53//53 52//52
f 51//51 54//54 53//53
f 55//55 57//57 56//56
f 55//55 58//58 57//57
f 59//59 61//61 60//60
f 59//59 62//62 61//61
f 63//63 65//65 64//64
f 63//63 66//66 65//65
f 67//67 66//66 63//63
f 67//67 68//68 66//66
f 69//69 71//71 70//70
f 69//69 72//72 71//71
f 73//73 69//69 70//70
f 73//73 70//70 74//74
f 75//75 77//77 76//76
f 75//75 78//78 77//77
f 79//79 81//81 80//80
f 79//79 82//82 81//81
f 83//83 85//85 84//84
f 83//83 86//86 85//85
f 87//87 89//89 88//88
f 87//87 90//90 89//89
f 91//91 93//93 92//92
f 91//91 94//94 93//93
f 95//95 97//97 96//96
f 95//95 98//98 97//97
