#Support_d25.obj

v -0.175 5.960464E-08 0.675
v -0.1750001 1.435697 1.025
v -0.175 5.960464E-08 1.024826
v -0.1750001 1.045678 0.675
v -0.1750001 1.435697 0
v -0.1750001 1.045678 0
v -0.1750001 1.045678 -0.675
v -0.1750001 1.435697 -1.025
v -0.175 5.960464E-08 -0.675
v -0.175 5.960464E-08 -1.024826
v 0.175 5.960464E-08 0.675
v -0.175 5.960464E-08 0.675
v -0.175 5.960464E-08 1.024826
v 0.175 4.479657E-08 1.024826
v 0.175 4.479657E-08 1.024826
v 0.1749999 1.045678 0.675
v 0.175 5.960464E-08 0.675
v 0.1749999 1.435697 1.024826
v 0.1749999 1.045678 0
v 0.1749999 1.435697 0
v 0.1749999 1.435697 -1.024826
v 0.1749999 1.045678 -0.675
v 0.175 4.479657E-08 -1.024826
v 0.175 5.960464E-08 -0.675
v -0.1750001 1.045678 0.675
v -0.175 5.960464E-08 0.675
v 0.175 5.960464E-08 0.675
v 0.1749999 1.045678 0.675
v -0.1750001 1.045678 0
v -0.1750001 1.045678 0.675
v 0.1749999 1.045678 0.675
v 0.1749999 1.045678 0
v -0.1750001 1.045678 -0.675
v 0.1749999 1.045678 -0.675
v -0.1750001 1.435697 0
v 0.1749999 1.435697 0
v 0.1749999 1.435697 1.024826
v -0.1750001 1.435697 1.025
v -0.1750001 1.435697 -1.025
v 0.1749999 1.435697 -1.024826
v -0.1750001 1.435697 1.025
v 0.1749999 1.435697 1.024826
v 0.175 4.479657E-08 1.024826
v -0.175 5.960464E-08 1.024826
v -0.175 5.960464E-08 -1.024826
v -0.175 5.960464E-08 -0.675
v 0.175 5.960464E-08 -0.675
v 0.175 4.479657E-08 -1.024826
v -0.175 5.960464E-08 -0.675
v -0.1750001 1.045678 -0.675
v 0.1749999 1.045678 -0.675
v 0.175 5.960464E-08 -0.675
v 0.1749999 1.435697 -1.024826
v -0.1750001 1.435697 -1.025
v -0.175 5.960464E-08 -1.024826
v 0.175 4.479657E-08 -1.024826

vn -1 0 0
vn -1 0 0
vn -1 0 0
vn -1 0 0
vn -1 0 0
vn -1 0 0
vn -1 0 0
vn -1 0 0
vn -1 0 0
vn -1 0 0
vn 0 -1 0
vn 0 -1 0
vn 0 -1 0
vn 0 -1 0
vn 1 0 0
vn 1 0 0
vn 1 0 0
vn 1 0 0
vn 1 0 0
vn 1 0 0
vn 1 0 0
vn 1 0 0
vn 1 0 0
vn 1 0 0
vn 0 0 -1
vn 0 0 -1
vn 0 0 -1
vn 0 0 -1
vn 0 -1 0
vn 0 -1 0
vn 0 -1 0
vn 0 -1 0
vn 0 -1 0
vn 0 -1 0
vn 0 1 0
vn 0 1 0
vn 0 1 0
vn 0 1 0
vn 0 1 0
vn 0 1 0
vn 0.0002488598 -6.057209E-05 1
vn 0.0002488598 -6.057209E-05 1
vn 0.0002488598 -6.057209E-05 1
vn 0.0002488598 -6.057209E-05 1
vn 0 -1 0
vn 0 -1 0
vn 0 -1 0
vn 0 -1 0
vn 0 0 1
vn 0 0 1
vn 0 0 1
vn 0 0 1
vn 0.0002488598 -6.057209E-05 -1
vn 0.0002488598 -6.057209E-05 -1
vn 0.0002488598 -6.057209E-05 -1
vn 0.0002488598 -6.057209E-05 -1

g Support_d25
usemtl Support_d25
usemap Support_d25
f 1//1 3//3 2//2
f 4//4 1//1 2//2
f 2//2 5//5 4//4
f 5//5 6//6 4//4
f 6//6 5//5 7//7
f 5//5 8//8 7//7
f 9//9 7//7 8//8
f 10//10 9//9 8//8
f 11//11 13//13 12//12
f 11//11 14//14 13//13
f 15//15 17//17 16//16
f 18//18 15//15 16//16
f 16//16 19//19 18//18
f 19//19 20//20 18//18
f 20//20 19//19 21//21
f 19//19 22//22 21//21
f 23//23 21//21 22//22
f 24//24 23//23 22//22
f 25//25 27//27 26//26
f 25//25 28//28 27//27
f 29//29 31//31 30//30
f 29//29 32//32 31//31
f 33//33 32//32 29//29
f 33//33 34//34 32//32
f 35//35 37//37 36//36
f 35//35 38//38 37//37
f 39//39 35//35 36//36
f 39//39 36//36 40//40
f 41//41 43//43 42//42
f 41//41 44//44 43//43
f 45//45 47//47 46//46
f 45//45 48//48 47//47
f 49//49 51//51 50//50
f 49//49 52//52 51//51
f 53//53 55//55 54//54
f 53//53 56//56 55//55
